<mxfile host="app.diagrams.net" agent="Mozilla/5.0 (Macintosh; Intel Mac OS X 10_15_7) AppleWebKit/537.36 (KHTML, like Gecko) Chrome/128.0.0.0 Safari/537.36" version="24.7.12">
  <diagram id="C5RBs43oDa-KdzZeNtuy" name="Page-1">
    <mxGraphModel dx="1194" dy="639" grid="1" gridSize="10" guides="1" tooltips="1" connect="1" arrows="1" fold="1" page="1" pageScale="1" pageWidth="827" pageHeight="1169" math="0" shadow="0">
      <root>
        <mxCell id="WIyWlLk6GJQsqaUBKTNV-0" />
        <mxCell id="WIyWlLk6GJQsqaUBKTNV-1" parent="WIyWlLk6GJQsqaUBKTNV-0" />
        <mxCell id="K_4VdIDOAv-RHWIk8iGX-51" value="" style="edgeStyle=orthogonalEdgeStyle;rounded=0;orthogonalLoop=1;jettySize=auto;html=1;fillColor=#f8cecc;strokeColor=#b85450;" parent="WIyWlLk6GJQsqaUBKTNV-1" source="WIyWlLk6GJQsqaUBKTNV-3" target="WIyWlLk6GJQsqaUBKTNV-11" edge="1">
          <mxGeometry relative="1" as="geometry" />
        </mxCell>
        <mxCell id="WIyWlLk6GJQsqaUBKTNV-3" value="Creating a Book Rec APP" style="rounded=1;whiteSpace=wrap;html=1;fontSize=12;glass=0;strokeWidth=1;shadow=0;fillColor=#e1d5e7;strokeColor=#9673a6;" parent="WIyWlLk6GJQsqaUBKTNV-1" vertex="1">
          <mxGeometry x="160" y="340" width="120" height="40" as="geometry" />
        </mxCell>
        <mxCell id="K_4VdIDOAv-RHWIk8iGX-1" value="" style="edgeStyle=orthogonalEdgeStyle;rounded=0;orthogonalLoop=1;jettySize=auto;html=1;fillColor=#f8cecc;strokeColor=#b85450;" parent="WIyWlLk6GJQsqaUBKTNV-1" source="WIyWlLk6GJQsqaUBKTNV-11" target="K_4VdIDOAv-RHWIk8iGX-0" edge="1">
          <mxGeometry relative="1" as="geometry" />
        </mxCell>
        <mxCell id="K_4VdIDOAv-RHWIk8iGX-5" value="" style="edgeStyle=orthogonalEdgeStyle;rounded=0;orthogonalLoop=1;jettySize=auto;html=1;fillColor=#f8cecc;strokeColor=#b85450;" parent="WIyWlLk6GJQsqaUBKTNV-1" source="WIyWlLk6GJQsqaUBKTNV-11" target="K_4VdIDOAv-RHWIk8iGX-4" edge="1">
          <mxGeometry relative="1" as="geometry" />
        </mxCell>
        <mxCell id="WIyWlLk6GJQsqaUBKTNV-11" value="Set up the react app" style="rounded=1;whiteSpace=wrap;html=1;fontSize=12;glass=0;strokeWidth=1;shadow=0;fillColor=#f8cecc;strokeColor=#b85450;" parent="WIyWlLk6GJQsqaUBKTNV-1" vertex="1">
          <mxGeometry x="160" y="430" width="120" height="40" as="geometry" />
        </mxCell>
        <mxCell id="K_4VdIDOAv-RHWIk8iGX-3" value="" style="edgeStyle=orthogonalEdgeStyle;rounded=0;orthogonalLoop=1;jettySize=auto;html=1;fillColor=#f8cecc;strokeColor=#b85450;" parent="WIyWlLk6GJQsqaUBKTNV-1" source="K_4VdIDOAv-RHWIk8iGX-0" target="K_4VdIDOAv-RHWIk8iGX-2" edge="1">
          <mxGeometry relative="1" as="geometry" />
        </mxCell>
        <mxCell id="K_4VdIDOAv-RHWIk8iGX-0" value="- javascript + react&lt;div&gt;- set up folders&lt;br&gt;- start simple with app.jsx and app.scss&lt;/div&gt;&lt;div&gt;&lt;div&gt;&lt;br&gt;&lt;/div&gt;&lt;/div&gt;" style="whiteSpace=wrap;html=1;rounded=1;glass=0;strokeWidth=1;shadow=0;fillColor=#e1d5e7;strokeColor=#9673a6;" parent="WIyWlLk6GJQsqaUBKTNV-1" vertex="1">
          <mxGeometry x="360" y="420" width="120" height="90" as="geometry" />
        </mxCell>
        <mxCell id="K_4VdIDOAv-RHWIk8iGX-2" value="&lt;div&gt;&lt;div&gt;Install npm&amp;nbsp;&lt;br&gt;install sass&lt;br&gt;install axios&amp;nbsp;&lt;br&gt;install react-router-dom&lt;/div&gt;&lt;/div&gt;" style="whiteSpace=wrap;html=1;rounded=1;glass=0;strokeWidth=1;shadow=0;fillColor=#e1d5e7;strokeColor=#9673a6;" parent="WIyWlLk6GJQsqaUBKTNV-1" vertex="1">
          <mxGeometry x="560" y="420" width="120" height="150" as="geometry" />
        </mxCell>
        <mxCell id="K_4VdIDOAv-RHWIk8iGX-7" value="" style="edgeStyle=orthogonalEdgeStyle;rounded=0;orthogonalLoop=1;jettySize=auto;html=1;fillColor=#f8cecc;strokeColor=#b85450;" parent="WIyWlLk6GJQsqaUBKTNV-1" source="K_4VdIDOAv-RHWIk8iGX-4" edge="1">
          <mxGeometry relative="1" as="geometry">
            <mxPoint x="220" y="670" as="targetPoint" />
            <Array as="points">
              <mxPoint x="220" y="630" />
              <mxPoint x="220" y="630" />
            </Array>
          </mxGeometry>
        </mxCell>
        <mxCell id="K_4VdIDOAv-RHWIk8iGX-4" value="is it set up?&amp;nbsp;" style="rhombus;whiteSpace=wrap;html=1;rounded=1;glass=0;strokeWidth=1;shadow=0;fillColor=#dae8fc;strokeColor=#6c8ebf;" parent="WIyWlLk6GJQsqaUBKTNV-1" vertex="1">
          <mxGeometry x="180" y="530" width="80" height="80" as="geometry" />
        </mxCell>
        <mxCell id="K_4VdIDOAv-RHWIk8iGX-9" value="" style="edgeStyle=orthogonalEdgeStyle;rounded=0;orthogonalLoop=1;jettySize=auto;html=1;fillColor=#f8cecc;strokeColor=#b85450;" parent="WIyWlLk6GJQsqaUBKTNV-1" source="K_4VdIDOAv-RHWIk8iGX-6" target="K_4VdIDOAv-RHWIk8iGX-8" edge="1">
          <mxGeometry relative="1" as="geometry" />
        </mxCell>
        <mxCell id="K_4VdIDOAv-RHWIk8iGX-18" value="" style="edgeStyle=orthogonalEdgeStyle;rounded=0;orthogonalLoop=1;jettySize=auto;html=1;fillColor=#e1d5e7;strokeColor=#9673a6;" parent="WIyWlLk6GJQsqaUBKTNV-1" source="K_4VdIDOAv-RHWIk8iGX-6" target="K_4VdIDOAv-RHWIk8iGX-17" edge="1">
          <mxGeometry relative="1" as="geometry" />
        </mxCell>
        <mxCell id="K_4VdIDOAv-RHWIk8iGX-6" value="Start with the javascript logic" style="whiteSpace=wrap;html=1;rounded=1;glass=0;strokeWidth=1;shadow=0;fillColor=#f8cecc;strokeColor=#b85450;" parent="WIyWlLk6GJQsqaUBKTNV-1" vertex="1">
          <mxGeometry x="160" y="670" width="120" height="60" as="geometry" />
        </mxCell>
        <mxCell id="K_4VdIDOAv-RHWIk8iGX-11" value="" style="edgeStyle=orthogonalEdgeStyle;rounded=0;orthogonalLoop=1;jettySize=auto;html=1;fillColor=#f8cecc;strokeColor=#b85450;" parent="WIyWlLk6GJQsqaUBKTNV-1" source="K_4VdIDOAv-RHWIk8iGX-8" target="K_4VdIDOAv-RHWIk8iGX-10" edge="1">
          <mxGeometry relative="1" as="geometry" />
        </mxCell>
        <mxCell id="K_4VdIDOAv-RHWIk8iGX-8" value="API calls for get&amp;nbsp;&lt;br&gt;&lt;span style=&quot;color: rgb(255, 255, 255); font-family: Inter, OpenSans, Helvetica, Arial, sans-serif; text-align: left; white-space-collapse: preserve; background-color: rgb(33, 33, 33);&quot;&gt;https://openlibrary.org/search.json?q=twilight&amp;amp;fields=title,author_name,subject&lt;/span&gt;" style="rounded=1;whiteSpace=wrap;html=1;glass=0;strokeWidth=1;shadow=0;fillColor=#e1d5e7;strokeColor=#9673a6;" parent="WIyWlLk6GJQsqaUBKTNV-1" vertex="1">
          <mxGeometry x="360" y="670" width="160" height="120" as="geometry" />
        </mxCell>
        <mxCell id="K_4VdIDOAv-RHWIk8iGX-10" value="" style="whiteSpace=wrap;html=1;rounded=1;glass=0;strokeWidth=1;shadow=0;" parent="WIyWlLk6GJQsqaUBKTNV-1" vertex="1">
          <mxGeometry x="620" y="700" width="120" height="60" as="geometry" />
        </mxCell>
        <mxCell id="K_4VdIDOAv-RHWIk8iGX-12" value="" style="shape=image;imageAspect=0;aspect=fixed;verticalLabelPosition=bottom;verticalAlign=top;image=data:image/png,iVBORw0KGgoAAAANSUhEUgAAA9sAAAIZCAYAAAC23izXAAAYTGlDQ1BJQ0MgUHJvZmlsZQAAWIWVeQk4lV3X/77PfI75HPM8z2Se53meZxKO6ZjiGEOJJGOiQkglGSuVQiUiDUoZekiSSIZKoaJC9d2Gep73ef/X/7u+fV373r+z9tprrb3WHu51bgC4qnwjI8MQjACER8RQHUwN+N3cPfixcwAH6AEeSAM2X3J0pL6dnRWAy+/2P8vKMIA22qcyG7L+u///W5j8A6LJAEB2MPbzjyaHw/gqAKhyciQ1BgDMBl0oPiZyA8MVMFNhA2GcuYGDtnD5Bvbbwpc2eZwcDGHcDQCO1teXGgQAfT9M548jB8Ey6BfhPmKEPyUCABYUjHXCw3f7A8BlBPOIwzyRMN6Yh5rfP+QE/YdMvz8yfX2D/uCtuWwWnBElOjLMd8//0R3/ewkPi/2tQxSutMFUM4eNOcN+GwndbbmBaWE8H+FnYwtjIoy/Ufw3+WGMIATHmjlv8SO4ydGGsM8AK4zl/H2NLGHMDWOTiDAbq226XyDFxBzG8ApBJFBizJ1gzA7jzIBoY8dtntPU3Q7buhDNgVRD/W36A1/qpt4NXeOxoc762/I/BQeYb8tH0icGO7nCmABj4TiKiw2M6WEsGx3qaLnNo5UYbGjzm4ca67BhvzCMHQIiTA225CPjAqkmDtv82eHRv+eLPB1MMbfZxldigp3MtvyD7Cb7btoPzwXZHxCh7/xbTkC0m9XvufgHGBlvzR05FxDh7Lgt51tkjIHD1lgUITLMbpsfJRgQZrpBF4SxUnSc4/ZYlEsMvCC35KMCI2PsnLbsRCWG+FrYbdmDOgKsgCEwAvwgFq5+YDcIAZQn8y3z8K+tHhPgC6ggCAQAmW3K7xGumz0R8NMRJIIPMAoA0X/GGWz2BoA4mP7jD3XrKQMCN3vjNkeEghkYhwNLEAb/jt0cFfFHmwt4A1Mo/6XdF65k2N4wuG70/7/pv6l/U/RhitU2Jfa3Rn6G35wYY4wRxgxjgpFAcaJ0UJooK/ipB1cFlBpK/fc8/uZHz6AH0K/RQ+gJ9PNdlDTqv6y0BhOwfJNtX/j90xcoUVimMsoApQ1LhyWjWFGcQAalBOvRR+nCmpVhquG23Rte4f+X7P+YwT+isc2Hl8Mj8Gx4Pbz4v0fSS9Ir/5Gy4et/+mfLVr8//jb80/Nv/Yb/8L4/3Fr+mxOZiWxC3kd2InuQbcgWwI/sQLYie5G3NvCf1fVmc3X91uawaU8oLIfyX/p+R3bDk9FyDXJv5da3+mICEjbOaGC4O3IPlRIUHMOvD98IAfzmEWRZaX4FOQUlADbul63j67PD5r0Bsfb9TSMfBEAVPp/xq3/Twj8DcAne+/zWf9NEvOHthwGgdoYcS43boqE2Hmj4lGCAdxoH4AVCQByejwJQAZpADxgDC2ALnIA78IatD4bXORXEg2SQCjJADjgCjoNScAqcBbXgArgCWkAb6AT3wCPQD4bAC3j1TIP3YBGsgDUIgrAQHUSCOCA+SASSghQgNUgHMoasIAfIHfKBgqAIKBZKhg5AOVAhVAqdgeqgy9B1qBPqgQag59Ak9Bb6BK0ikAhaBDOCByGK2IFQQ+gjLBFOiJ2IIEQUIhGRjjiMKEFUIs4jmhGdiEeIIcQE4j1iGQmQNEhWpABSBqmGNETaIj2QgUgqch8yG1mErEReRN6A4/wUOYGcR35HYVAkFD9KBl7BZihnFBkVhdqHykWVompRzahu1FPUJGoR9RNNh+ZGS6E10OZoN3QQOh6dgS5CV6Ovoe/Ce2kavYLBYFgxYhhVeC+6Y0IwSZhczElMI+Y2ZgAzhVnGYrEcWCmsNtYW64uNwWZgT2DPYzuwg9hp7DccDY4Pp4AzwXngInBpuCJcPa4dN4ibxa3hGfEieA28Ld4fvwefj6/C38D34afxawQmghhBm+BECCGkEkoIFwl3CWOEzzQ0NII06jT2NBSa/TQlNJdoHtBM0nynJdJK0hrSetHG0h6mraG9Tfuc9jMdHZ0onR6dB10M3WG6Oro7dON03+hJ9LL05vT+9Cn0ZfTN9IP0HxnwDCIM+gzeDIkMRQxNDH0M84x4RlFGQ0Zfxn2MZYzXGZ8xLjORmOSZbJnCmXKZ6pl6mOaIWKIo0ZjoT0wnniXeIU6RkCQhkiGJTDpAqiLdJU0zY5jFmM2ZQ5hzmC8wP2FeZCGyKLG4sCSwlLHcYplgRbKKspqzhrHms15hHWZdZeNh02cLYMtiu8g2yPaVnYtdjz2APZu9kX2IfZWDn8OYI5SjgKOF4yUnilOS054znrOC8y7nPBczlyYXmSub6wrXKDeCW5LbgTuJ+yx3L/cyDy+PKU8kzwmeOzzzvKy8erwhvMd423nf8pH4dPgofMf4Ovje8bPw6/OH8Zfwd/MvCnALmAnECpwReCKwJigm6CyYJtgo+FKIIKQmFCh0TKhLaFGYT9haOFm4QXhUBC+iJhIsUixyX+SrqJioq+gh0RbROTF2MXOxRLEGsTFxOnFd8SjxSvG/JDASahKhEicl+iURksqSwZJlkn1SCCkVKYrUSakBabS0unSEdKX0MxlaGX2ZOJkGmUlZVlkr2TTZFtmPO4R3eOwo2HF/x085ZbkwuSq5F/JEeQv5NPkb8p8UJBXICmUKfynSKZoopii2Ki4pSSkFKFUojSiTlK2VDyl3Kf9QUVWhqlxUeasqrOqjWq76TI1ZzU4tV+2BOlrdQD1FvU39u4aKRozGFY0FTRnNUM16zTktMa0ArSqtKW1BbV/tM9oTOvw6PjqndSZ0BXR9dSt1X+sJ6fnrVevN6kvoh+if1/9oIGdANbhm8NVQw3Cv4W0jpJGpUbbRE2OisbNxqfG4iaBJkEmDyaKpsmmS6W0ztJmlWYHZM3Mec7J5nfmiharFXotuS1pLR8tSy9dWklZUqxvWCGsL66PWYzYiNhE2LbbA1tz2qO1LOzG7KLub9hh7O/sy+xkHeYdkh/uOJMddjvWOK04GTvlOL5zFnWOdu1wYXLxc6ly+uhq5FrpOuO1w2+v2yJ3TneLe6oH1cPGo9lj2NPY87jntpeyV4TW8U2xnws4eb07vMO9buxh2+e5q8kH7uPrU+6z72vpW+i77mfuV+y2SDcnF5Pf+ev7H/N8GaAcUBswGagcWBs4FaQcdDXobrBtcFDxPMaSUUpZCzEJOhXwNtQ2tCf0V5hrWGI4L9wm/HkGMCI3o3s27O2H3QKRUZEbkRJRG1PGoRaoltToait4Z3RrDDL/I98aKxx6MnYzTiSuL+xbvEt+UwJQQkdC7R3JP1p7ZRJPEc0moJHJSV7JAcmry5F79vWf2Qfv89nWlCKWkp0zvN91fm0pIDU19nCaXVpj25YDrgRvpPOn706cOmh5syKDPoGY8O6R56FQmKpOS+SRLMetE1s9s/+yHOXI5RTnrueTch3nyeSV5vw4HHn6Sr5JfcQRzJOLIcIFuQW0hU2Fi4dRR66PNx/iPZR/7cnzX8Z4ipaJTxYTi2OKJEquS1hPCJ46cWC8NLh0qMyhrLOcuzyr/etL/5GCFXsXFUzynck6tnqacHjljeqa5UrSy6CzmbNzZmSqXqvvn1M7VVXNW51T/qImomah1qO2uU62rq+euz29ANMQ2vD3vdb7/gtGF1osyF880sjbmXAKXYi+9u+xzefiK5ZWuJrWmi1dFrpZfI13Lboaa9zQvtgS3TLS6tw5ct7jedUPzxrWbsjdr2gTaym6x3MpvJ7Snt//qSOxYvh15e74zqHOqa1fXiztud/7qtu9+ctfy7oN7Jvfu3Ne/3/FA+0Fbj0bP9YdqD1seqTxq7lXuvfZY+fG1JypPmvtU+1r71ftvDGgNtA/qDnY+NXp67y/zvx4N2QwNDDsPjzzzejYx4j8y9zzs+dJo3Ojai/1j6LHsl4wvi8a5xytfSbxqnFCZuDVpNNn72vH1iyny1Ps30W/Wp9Nn6GaKZvlm6+YU5tremrztf+f5bvp95Pu1+YwPTB/KP4p/vLqgt9C76LY4vURd+vUp9zPH55ovSl+6lu2Wx1fCV9a+Zn/j+Fb7Xe37/VXX1dm1+HXseskPiR83flr+HPsV/utXpC/Vd/NVAAlXRGAgAJ9qAKBzB4AE52cEz638b7sg4ZcPBNy6QLLQe0Q6fKP2oTLQJhgk5hG2BBeBtyJI0GBp5mkH6VroaxiqGRuZWoldpEfM/SwjrK/Y5tjfcyxxrnL94EHwYvkI/HQCREGiEKswuwibKLsYtziPBL8kv5SgtLCMqKzYDmk5OXlFBRVFDSVdZWMVc1VzNRN1Ew0TTUMtfW0tHQ1dJT1ZfVEDHkNmI4LRL+PPJjOmz816zdssai2PWqVYh9i42RrbKduLOXA5MjrhnJEukCvCDeWO92D05PAS3injLbFL2IfPl9OPhUzyJwaQAlmDuIIFKdIhqqEmYS7hlIjk3YWRVVGnqSXRBTG5sVlx2fGHE0r21Ca2J73YC/ZJp+zafyL1xQHB9N0HOw9hMoWyFLINchxzA/MSDxfk1x65XTBauHyM6bhMkUVxYMmBExWl18sGy9+cXD6FPc1xRrJS66xtld+5mOqDNUW1tXXX6x82jJ5/d+F7I+4S22XxK7pN7lejrmU1n2xpbO243nOj72Z/26NbXe2XO8pup3Tu6tK4Q7wz0339bv298vs5DxJ6/B6aP5Ltpe+df3z3SXlfZL/BAGlgavDK09S/7IdEhlHDb5/1jjQ+LxyNeeEypvaS8+X6+Pirzolzk1mvd085v9GaFoZX2crsX3NX3xa/S3kfNk/+QP4YuZCzeG1p4bPelzMrpK8l36VWn6yn/NT49esf8VdAzqEK0ZYYFsxLbBMuFx9EMKKRpGWgXaebpR9hGGF8xfSG+IH0mXmF5QfrGtsP9p8cPzhXuD5zL/DM8I7xDfLfFbguWC2UIxwmYiUqKYYXeyfeI1EnmS1FkbaUkZGlk13YMSB3Vb5YIVmRrGSvbKCioCqgRlT7pf5RY0yzR6tZu1InVzdez0ffwkDBkNMIYfTW+InJJdMCs2hzJwsVSzbLNatX1nds6m0L7JLsAx0cHfWd5J0FXEiuWNdVt/fuYx69nre8Gnee9j6665BPsi/Vj0L29fcIcAq0D7IJtqRYhpiFaobJhgtEsOymiURErkd9o36P/hGLjiPGCyVo7HFKjE4qSm7bO5NCs58vVSZN+4BNut/B+Iy8Q9WZHVmj2V9zmfMUDtvnRxzJK2gofHD0zbFfRZzFyiV2J0JLD5adKm892V8xd+rnGeZKibPaVXbnyNWxNYdqS+Bzrrdh4QLxomKj46Woy/lXGpq6r45d+9SCaeW4LnlD46ZFm9utwPaYjpTbqZ0Hug7eyeg+dDfzXvb93Ad5PXkP8x7l9eY+znmS1XeoP30gdXDv07i/ooZ2D0c+ixlJen5w9OiLyrGml/fGn7/6MAleE6cE38hP68yYz/rNnX774b3yfNKH9o8/FzWX4j5d/PxmmX3F8mvKt6bvs2vc6w4/sn92b8ffGKGP3IH8iOpEH8I4YsWxS7jr+AyCAw03zTjtWbpwenUGBEMnYzqTBZGB2E86wmzLwsDymDWbzYQdYm/liOAU4hzhyuHW4f7AU8ZrxvuFr4LfjP+jwDFBDcExob3C/MLtIt4i66IlYkpiveIB4usSRyWlJDukHKVmpFNlRGRGZHN3GOz4Ilcj76lAp9ChGKkkoDSonKaioDKpmq+mrfZBvUzDXGNZ86yWvdZP7QYdd12s7jU9sj5R/7ZBpCG/Yb9RmrGS8axJqakt/N5x0zzKQsrijWWFlYc1q/VTm0JbBzuS3bD9CQdvR2HHd06XnRNdjF0ZXEfdqt2jPQw8aT2HvU7tDPZW8F7bddenwNfLT8JvhdztfzTAN1AxCBU0HFxPSQlxCpUOQ4e9Cr8RUbI7PtI1SoPKG42Kno8Ziu2Ma4yvSMjfk5oYnxSa7L935z63FKf9Dqn2afYHHNKdDrpn7DwUkBmaFZ2dkpOZW5hXcbguv/nInYKBwvGjH4+jiiSKvUqOnLhbulYue9Kv4viph6fXKxXOBlSVnuurQdVq1cXXNza8vyB5MaSx/tLCFZWm/Vd7mzlawlq7b/DdTGl73W7V0dYp33W+W+ru5fsGD0YfJvTyPe7vyxtweio6BIbfj7wZffcSvBKZ3DVVP4OeS3wPPlQtkj/rrqh9d14v2Yj/1v+AGwWjAsDxQwBs/M/jUAdA7nkAxPYAwAbnnnZ0ADipA4SAKYCWuwBkof3n/oDgxJMASIAHSAI1YAbnl2FwTlkMGkEPmAI/IHZIGXKEoqHjUCv0Es75pBEuiFREI2IcyYA0QMYjLyBn4CzNC1WGegFnYj7oc+gPGBVMKuYJlgcbju3AkXAUXCeeEx+LHyQoEooJ6zRkmse06rS1dOx0ufQI+iT6rwyxDCuMiUwQUzaRlVhFUiP1M4ewYFnOsRqzzrBlskux93PEcHJwtnP5c9NwX+Hx4EXyXuDzhDOCAYF8QVshJqGnwsUinqICojNi58WjJTQkIckeqQJpT3h1LsoO7miTq5YvVNinSFFyVNZQ4VOFVCfU2tSPaYRoamvRa41p1+nE6Orq4fQG9JsMrhq2GN0wbje5Y9pj1mc+bDFuOWu1ZL1mi7NjtRd1UHO0ciI7J7uUuLa7zXmQPPW9IndWeg/5EHz1/ZLIrf5fA9WCkoI7QwihzmFV4cu7zSIrohaitWJyYsfjlRKO7FlKck2+t087pT3VMm0qPStDOxNkDeRcyivPLywwO4o8dreooCSg1LBcukLwtEilUpVNdVRtWf2jC6BR9bJNk/u14Jbk68dvXrk12LHSxdttdi/mwemHT3p/9MkM7Hx6eOj2CGmUPHZhfH6Se0ptWm9W/i39u2fzhz/uWOhcMvvU/UVhuXRl9Zv993OrS+saP1J+3t48P7biT4TjLwFUgQlwBSFgHzgGGkA3GAffIBIkB9lAEdARqAl6jgAICTjLT0NcRryG83grZDqyA7mG0kYdQPWi2dGB6GYMHuONacYyYsOwj3DSuHzcMt4Lf48gSyimQdJE0UzSOtM+pDOka6fXor8FZ7EPGO0Zx+E89RfxGEmW9Jg5As48W1l92WjYWtkDOVg57nPu4ZLmmuQu5rHlxfF28e3nNxDACDwWLBLyFZYVXhfpFa0QixI3luCS+CT5UOqsdIqMp6zmDgk5dnm8/LrCguKU0jPlhyo3Vc+rlaof0qBqemoZakvqMOos647qtes3Glw2bDJqMb5p0mHabfbQvN/imeUrq1nrJZs1O5w9q4OYo7qTtbO/y17XUrfr7qMeP7wEd1p4x+w67dPnB5FV/CMC6gJngkUpISGXQ1fDTSOKds9FaVH3RnfEouKs4osTZhLVkw4nz+4zTqlNpU/bc2AWPk/6My2y7ueY5fYedsifKEg5ynvsdlFgCf2J1jL/k6SKe6f3Vqqc/XTuck1snVYD5vzQxXOXkq94XVVppm+Zun715oFbNh3stye76rqp97QeYHuGH9U93t/nNaDzVGSIafjBiPPz6ReJL5nHr0w4Ta5P1U67zzLM9bzLnLf8yLjwbOn055Blla+Ib32rZetBPxW3448EGEC7eQKIAxV4BbiBcHAQnAI3wSi8/wUhCygWqoKGETQII3jndyFxSHvkKeQnlAWqBo1HU9GvME7wbrfBDuHIuO/4IoI6YZrmBK0e7RhdEj0/fQ9DPKMk4xTTKaIfSYL0lfk+SwVrEpsnux6HFCc7Fw03gnudZ5V3nR8IYOE3UB5hWRFtUQexIPH9Eickr8F596Is4w4FOVf5fQpVin1KayoSqu5qheqDmsxa7tpVOgt62vp5Bq+MFI1zTCbNtMyLLD5Z2VlfsKW1C7N/6CjplOP8ztXCrd4D70nxuu8tuuugz7SfIbk6ABnoH3SHIhqSEToXbhXRGMkSlUCdiDGKvRjPnrBvz/skN3ifqqTUpHKkHU5HHUzO+JTpkXU5+1euU17N4dUjjgUXjxKOUY7fK5YqyT2xUOZafqtC9FQBfPb7n+09p1ldU8tUl1g/c97xQluj6KX8yytN3lfvNcu0HGldvGF/8+ItQntgR3snsSvgTvNd1D27+2UPph5KPKL0Vj+e7OPstx84OHj16eshwrDcM4cR6vPDo3Uv7owNvZwZX3q1Pgm9xk5h3mCmwfTqzIfZ8bnHb1vfVb7PnI/4YP1RagG78GqxdSnrk8dnic+fvrQtp60YfcV87f6W8l3z+9LquTWPdcJ68w/yT7qfV365b8R/69vR5v3BCMBprg00cGn5v77bbH1X+kdu8u8WbN4uG2Xjdtls4ZsG/A9k08/1OF3BpwAAAFZlWElmTU0AKgAAAAgAAYdpAAQAAAABAAAAGgAAAAAAA5KGAAcAAAASAAAARKACAAQAAAABAAAD26ADAAQAAAABAAACGQAAAABBU0NJSQAAAFNjcmVlbnNob3SmV+4IAAAB1mlUWHRYTUw6Y29tLmFkb2JlLnhtcAAAAAAAPHg6eG1wbWV0YSB4bWxuczp4PSJhZG9iZTpuczptZXRhLyIgeDp4bXB0az0iWE1QIENvcmUgNi4wLjAiPgogICA8cmRmOlJERiB4bWxuczpyZGY9Imh0dHA6Ly93d3cudzMub3JnLzE5OTkvMDIvMjItcmRmLXN5bnRheC1ucyMiPgogICAgICA8cmRmOkRlc2NyaXB0aW9uIHJkZjphYm91dD0iIgogICAgICAgICAgICB4bWxuczpleGlmPSJodHRwOi8vbnMuYWRvYmUuY29tL2V4aWYvMS4wLyI+CiAgICAgICAgIDxleGlmOlBpeGVsWURpbWVuc2lvbj41Mzc8L2V4aWY6UGl4ZWxZRGltZW5zaW9uPgogICAgICAgICA8ZXhpZjpQaXhlbFhEaW1lbnNpb24+OTg3PC9leGlmOlBpeGVsWERpbWVuc2lvbj4KICAgICAgICAgPGV4aWY6VXNlckNvbW1lbnQ+U2NyZWVuc2hvdDwvZXhpZjpVc2VyQ29tbWVudD4KICAgICAgPC9yZGY6RGVzY3JpcHRpb24+CiAgIDwvcmRmOlJERj4KPC94OnhtcG1ldGE+Cty67tQAAEAASURBVHgB7N0HfJRF3gfwX3rvBdIIgRRKaELoXXoXBaQoCofYsN1ZTr2z6713nr0cKiiKBamKAlIUpPfQO4QkJCQhvWw29Z2ZsEt6gSS72fzm/Sz77DPzzDPz3fh+7r9THrOgoKBiCwsLeHt7w8zMDM09paWlNXcC9p8CDSKQk5NTbb329vbV5jOzrICxe9bUvrK94ScKUIACFKAABShgegLmskuFhYXIz883vd6xRxSggFEIyP8fw0QBClCAAhSgAAUoQIHmJKCCbdnh7OxsFXQ3p86zrxSgQOMI8Me8xnHmXShAAQpQgAIUoAAFjEfAUtcUjUajDh0cHGBlZcUp5ToYvlOAAjctoJs1U1RUVGMdsqxc0sJUs0BtZgoY0rM27au5lyxBAQpQgAIUoAAFmraAPtiW3ZABty7obtrdYuspQIGmJiBHvxls1+5bq81MAUN61qZ9tespS1GAAhSgAAUoQIGmK6CfRt50u8CWU4ACpiAgR79zc3O5nKWaL1OOGEuj2swUMIRnXdpXTTeZRQEKUIACFKAABUxCoMzItkn0iJ2gAAWarIAMELVabZNtv7E1nJ7G9o2wPRSgAAUoQAEKNCcBjmw3p2+bfaUABShAAQpQgAIUoAAFKECBRhFgsN0ozLwJBShAAQpQgAIUoAAFKEABCjQnAQbbzenbZl8pQAEKUIACFKAABShAAQpQoFEEGGw3CjNvQgEKUIACFKAABShAAQpQgALNSYDBdnP6ttlXClCAAhSgAAUoQAEKUIACFGgUAQbbjcLMm1CAAhSgAAUoQAEKUIACFKBAcxJgsN2cvm32lQIUoAAFKEABClCAAhSgAAUaRYDBdqMw8yYUoAAFKEABClCAAhSgAAUo0JwEGGw3p2+bfaUABShAAQpQgAIUoAAFKECBRhGwbJS7GMFN5s+fX2UrFi5cWGUeMyhAAQpQgAIUoAAFKEABClCAArUR6N27NwYPGaCKNptgW/b2k68+qeDz8H0PVzjHExSgAAUoQAEKUIACFKAABShAgboK5OXlwcqyJMxuVsF2XaFYngIUoAAFKEABClCAAhSgAAUoUBeB7777URVvdsG2mZkZ/jL7L2jh1QK52lzkZOTUxY1lKUABClCAAhSgAAUoQAEKUIACNQoYPNh2dHTAxIlj4ermgmU/rMK1a8k1NvpWCgQGBMLb0xuv/+d1VQ2nkd+KJq+lAAUoQAEKUIACFKAABShAgcoEDLobuZubKybfOQF79u5HenpGZe2r93MZmRnw9fGt93pZIQUoQAEKUIACFKAABShAAQpQQCdg0GDbwcEe27buwIXzl3TtafD3lNQUREVHYUDfkh3iGvyGvAEFKEABClCAAhSgAAUoQAEKNDsBgwbbsbFxuHw5ptHRN2zegN4RvRv9vrwhBShAAQpQgAIUoAAFKEABCjQPAYOv2W5M5uFDhiO4bTD8fPzw3fLvGvPWvBcFKEABClCAAhSgAAUoQAEKNCMBg45sN7ZzUnISYq/Eori4GC7OLo19e96PAhSgAAUoQAEKUIACFKAABZqJQLMa2Y48Ggn5irochVHDR2H3vt3N5GtmNylAAQpQgAIUoAAFKEABClCgMQWa1ci2Dvbuu+7Gb1t+033kOwUoQAEKUIACFKAABShAAQpQoF4FDDqy7e3thXHjRqoOOYjnbU+6YyyKCouwfcdunDt7oV47qqtMPmPb3t4eR48f1Z3iOwUoQAEKUIACFKAABShAAQpQoF4FDBpsJyYmYfHipfXaoZoqs7OzQ0ZGBlxdXYHimkoznwIUoAAFKEABClCAAhSgAAUoUHcBgwbbdW/urV8RHRsN+Xr0gUeh1WqRnZ5965WyBgpQgAIUoAAFKEABClCAAhSgQCmBZhdsy53IF329SE/w8H0P6495QAEKUIACFKAABShAAQpQgAIUqA+BZrlBWn3AsQ4KUIACFKAABShAAQpQgAIUoEBVAs1qZJuj2FX9GfA8BShAAQpQgAIUoAAFKEABCtSnQLMJtlPSErBn19ZK7QICxGZpTBSgAAUoQAEKUIACFKAABShAgVsQcHKygbm5naqB08hvAZKXUoACFKAABShAAQpQgAIUoAAFKhNoNiPblXWe5yhAAQpQgAIUoAAFKEABClCAAvUlkJZ2DSkpSao6oxjZtrCwgJ2dbX31z6jqsXZwgW+PYTAzt0DggIlG1baGaoyzfzA8w7rrq3f2D4F7206w9/SFd8c++vMNfWBpZQlrW+tKb1NdXqUX8CQFKEABClCAAhSgAAUoQIE6CBh8ZHvAgD7o0LE9NBqNavYvazeIXwJS69AF4y5q4+yONkOnIuHodoSNn4fL239q0AbLe3W4awHysjP098m5Focd/zdP/7mhD9zbdoaTbxtcO3NQ3cojpCukQ+rF4/DrORyJJ3bfchNCuoVi2IyR0Gq0+rrWf/UL4i/GQQbSI+8dDd82fsjLzUNWehbWLf4FmqycavP0FYmDPmP7oceInlj90QrEnospncVjClCAAhSgAAUoQAEKUIACNQoYNNgOCPCHf4Afvvh8CQoLC9Grdw/0698ba39eX2PDWaBqgZjd63Dkm7eqLmACOda2NjiwaR/2b9xboTe3DZWj6mb44sWFkM9V7zmyN/qO748t329EdXm6ipzcnNGqXWvEno1R1+vO850CFKAABShAAQpQgAIUoEBtBQw6jTwmJhY/LlutAm3Z4CtX4uHs5FTbtjeJckWFBdBmpEBEbdCkJpZpc68F7yBIjESPencTBjz3hZhq3Vmf33HK4/Dq0FP/ufPMZ+Ee3EV97vPkh+g84xmMfHs9AnqPwbC31qDD5Ef0Zas7cAsKx+CXvsOYD/9Az0fehpzmrkv9n/0clrYOuo8Y9OLXMLco+T0mbNxchIyajaGv/qju16rfeH05M3NzdLn3eYz9cCv6/vVjWNmX/Q4LcrORn5OJwnwt8rLS9dfpDnr37o9///tjuLt76E7V+G5rb4PcnNxKy7UI9MGFo+f0gfL5yLPwC/ZXZavL01U2YNJA7Fq7XX+97jzfKUABClCAAhSgAAUoQAEK1FbAoMG2bKQc0dYlPz8fJCSWLCbXnWvq79mJMdj/v+dEoJmH7W/NKdMdBy9/EdzaY+PTYxC961d0uPNRfb6dm3eZwFd9trFX+Q7eAZCj19E718Kv10hsfWUmSge/lnYOcPD217+sHJzVdRbWtui14L84tfoTbHxmHLISLqPzrOf093Rs0UqsLb/xJ+HYMlAMEJupfBtnD7iJddd/vnk/Dix8HvLHAAtrG5Xn2S5C/VCw498PiL7+HR4h3fR1ygPZ1gubvsO10wdwfNm7ZfLkh/z8fLGMIAdFRUUV8qo6YXN9jf/gu4Zi9P3jxEi0aOv1lJOZg5Yi4NalFq19YGVd8qNBdXmyvF9bf5hbWiDmbLTucr5TgAIUoAAFKEABClCAAhSos4BBp5GXbq2buys6dw7HiuVrSp82+eP4g7+jqCAf0Tt+EgHsY7AUAXWBNqfGfmdcOQcZHFtYWUOOHBdoNbCwKXmeW8vOA+DWuqO+jotbfsDFLcvESHkvEWBHi/XjO1TeufVLMPrdjWr0Wo7A15QSj+9S90qLOgn58gi9DYnHd4v3bri8bRXSY86qKhJEOdm22qaDB/dCvuqSzC3M0Sa8DY7vOgbvgBYY95eJWPHBMiRGJ+DYjiO487Gpan22JlsDT19PpCWlqeqryzMTPyz0nzQIG5b8WpemsCwFKEABClCAAhSgAAUoQIEKAkYRbDs6OmD8+NH44/c/kZpaEhRVaKmJniguKhnZLxajuvk5WWI0265WwbbkKC6+MStA1mNmVjIqHbt3Q6Vrtu09WiI9+oxeMl9soqZJTYKtqxdykuP156s60LVV5uemJ4sp6CUj5nKn8bO/fqm/rLgWgbu+8E0e7PjpT/2VF46eh5O7M8Jua6eC7cSYBCx/7we07RyMtMRUNR28sKDEqrq8jn3CEXchFunXmtffoB6SBxSgAAUoQAEKUIACFKBAvQncmDNcb1XWrSIHB3vcMXk8du/ah/PnL9btYhMuXVSYL6Zp1+/j0OR6aTkdXZfkemwbJ1f9Omo5wn4z9yzM06rdxnX1GuI9LTEFVqUe83XtShL2rt+NqJOX0LF3uBrt1rWrqryug26Du4+HmpYup6Z7+Xmj95i+CO4aoruU7xSgAAUoQAEKUIACFKAABWolYNBg297eDpPuGIddO/fi3LkLtWpwcyl07fQheLWPUN2V66jV+ulb7Hzy2cPwEM+/lmu6ZfIO74PM+Ev6kXT5qC7dPW3lmvHr5Wq6rXqkV8QI9SxxWdalVVhNl5TJ9/dvhTvvnAHr62vAy2RW8WHAHYP1m55ZWluJUewQXL0UV6a0mbkZRs0eK3Ys3we5Vrt0qizv92WbEbn1EE7uOa5eWemZiDpxCUmxN/YRkFPNFyx4Br169StdHY8pQAEKUIACFKAABShAAQqUETDoNPI2bYLg6uqCQYP6qZeuZT/9tA7JyWIH72acrkZuE5uejcPQ135ETlJcyY7mt+ihSU3AyRUfYvhbP4lp43GwsnPC/k+f1dcatXUlut3/T7VDetqlkyjQZOvzqju4tHUF+jzxIUb+dz3kddlJsdUVr5DXsWNnjB49Ebt2bUN8/JUK+ZWdOHvotHiW9hjkiedsu7Vwh9xx/NS+k/qiNnY2Kj8pNhGR2w7pz8uDqvLiLpa9d7ch3XH1cnyZaeVeXi3QtWsP/PjjN2Xq5AcKUIACFKAABShAAQpQgAKlBcyCgoKKS58w1eMp0yZhz66tTa571o6uYi13BuSa7vpKcqTc2tFNBPDJlVYpdx6vKq/SC66ftHESdWaJ9c7iMWd1TXJUO09MR69TEhulOzg7QJujRUF+zRu81anuKgr36NEbgwePwNtvv1pFCZ6mAAUoQAEKUIACFKAABZqrgLu7F1JSSmbGGnRku7l+AXXpd54MXus5ycC9umC6urzqmqLNTK0uu9q8OgfasjYR02en1270vdqb1yFTbkK3fv2aOlzBohSgAAUoQAEKUIACFKBAcxRgsN0cv3X2+aYF9u/fddPX8kIKUIACFKAABShAAQpQoPkIGHSDtObDzJ5SgAIUoAAFKEABClCAAhSgQHMSYLDdnL5t9pUCFKAABShAAQpQgAIUoAAFGkWgWU0jj4mp//XPjfIt8SYUoAAFKEABClCAAhSgAAUoYPQChYX2iIsriTs5sm30XxcbSAEKUIACFKAABShAAQpQgAJNTYDBdlP7xtheClCAAhSgAAUoQAEKUIACFDB6AaMIti0tLWFvb2f0WDfTQFsnVwQPHA1zCwt0GDXlZqpo1GvCx81Q9wsdMh7W9o71dm8zMzPYOZrmd1xvSKyIAhSgAAUoQAEKUIACFDAZAYMG2zIAG3r7INx3/0zceddEzL5vBjw9PUwGV3bE3s0TnSfcA3NLK0TMWlCnvnm2aYc7/vNtna6pTeExL38K304RlRbtPftJdb7r5DmwcXKptExdT3Yf0hXPf/YU5r9yH/72wQJ4+3vVtQqWpwAFKEABClCAAhSgAAUo0KQEDLpBmq2tLbS5Wiz64msUFxejd+8I9OnbE2t/Xt+kEBuqsTJAb4hkYWndENVWWqeTmyNGzxiGd//6CbIzchDaNRh3PzYZHzyzsNLyPEkBClCAAhSgAAUoQAEKUMAUBAwabGs0GuzcuUfvmJ2dDS946j+bwkFhQT5yUq+pHxOyryWU6ZJ7YAhuf+otuPgGIjslEUfXfI0T65fBN7wHhjz5JuxcPGAlfpCYuWijuu70plU4+MP/YGljhyGPv4bWvYYgNeYSDi3/DBd3lpSJmPEIQm+fqMpv/vffEDJ4HAJu64+Nbz2BHiLPOyQcLn6B8GgdinytRpVbvuAO5OVkq+PMpHj1LttTXFiojnX/yJkIH3/8MQ4ePIhFixbpTlf73rFne5w8cEYF2rLg2cjzmProJDi7OyEjJbPaa5lJAQpQgAIUoAAFKEABClCgqQoYNNjWoQUGBsDL2xOhocHYsnmb7rRJvKfHXcaGNx5TfVnxRNk12wMefAEnf1uhAmw7Z1d0vXMuLMRo9tXTkVj11DR4hXRCxMxHse7l+er6Aq1Wvbds3xVZInBfPL0v3PyDMO61L3Bp9xYUFxUictWXOP7rdxj3+iJ0Gj8LKTEXsO2jl5GREIs/3n9R1G+JUS9+hMiVi3H11CFVX54mR73Lf5Y9PEEd//pSyT31GdcP5A8iubm55U9X+dnlelBta2+L1u1b4fTBs8hMzYKLuzOD7SrVmEEBClCAAhSgAAUoQAEKNHUBowi2w8JCVLCdk6NBdvaNwK+p49bUfgtrG2izMiCGvaFJT8XuxW/rL5Gf80RekRgZl8elU2zkbsiXTNcunkZmwhV4h4Yj4fQR5OfmqFdRQQGSo87g8IqKI9CF+XnQZmdUqLf0PSo7llP9n3766cqyqjwng+zMtCy07xGKmU9NwQvTX0ehGDG3sbOp8hpmUIACFKAABShAAQpQgAIUaOoCRhFsb9z4u3LsdlsXDBs+GGtW/9LUXWvV/p2f/0tMB38dgx97DcmXTuPY2qU4/2fN69Wt7OzRZdJ98O/SG7au7nDxCVQj4uVveuXI3vKnGv1zTpYGlpYWOLLjOKJOR0Or0cLSyhIacZ6JAhSgAAUoQAEKUIACFKCAqQoYRbCtw70cFY2ePW/TfTT5dzkS/cND4yGDZ+/Qzhj+zNtIOn8C6XHR1fa9w8gpcG7pj3WvPYK87ExM/NeSSssXV3q2cU+mJaUhqENrFBUVITUxTd3cxcMZacnpjdsQ3o0CFKAABShAAQpQgAIUoEAjChj00V/t24eha9dO+u62bRuE5OQU/WdTPrCwslbrseVmZ/lizfSVo3uRm5kmpo0X6LtdkFeyRlt/4vqB3FAt8dwJFWibizXYzi38yxep9nNhFfVWe9H1zKlTpyIiIqI2RVWZk/vPoH33UDi5ljyzO7xXe1yLS9ZvmCYLBQYG4o033kDr1q3VNfyHAhSgAAUoQAEKUIACFKBAUxcw6Mh2dHQsRo0ehvBOHcRUY0vk5+dj/bpNTd20Vu2X66bl+uqpH61GltgB3MrWXmxythmZiXH665MvnVEB9d3/+wVyJ/AzW37CoR8/Exugfa9Gwdv0HabWfB/9eSmGil3NVz45DR1GT0XokPFqh/NRL3yAArHjuJyavv/bj/T1nt60Gv3mPSd2NbdV51Y+OVW/G7m+UCUH5ubmmD59Ovbt24f9+/dXUqLiqezMHPzy9W94/D8PIisjG1ZiCvmSf/9QpmCHDh1UoH358uUy5/mBAhSgAAUoQAEKUIACFKBAUxUwCwoKMvhsY1tbGxVMajS13+W6ruBTpk3C8mVr6npZo5S3c3GHJkNsgiY2IKtLsnVyVaPhdbnmVstaW1urH0XkZml1SfLHAgdne2SllzxirPS1CxYsQEpKCr799tvSp3lMAQpQgAIUoAAFKEABClCgSQn4+voiLq5kANWgI9s6tdzcyqdL6/JN/V2TfnNT5+W088ZOeXl5N3VLGZxXFmjLyjIyMrB+fc0bw93UjXkRBShAAQpQgAIUoAAFKEABAwgYRbBtgH7zlkYksGRJ5Ru8GVET2RQKUIACFKAABShAAQpQgAJ1EjDoBml1aikLU4ACFKAABShAAQpQgAIUoAAFmogAg+0m8kWxmRSgAAUoQAEKUIACFKAABSjQdAQYbDed74otpQAFKEABClCAAhSgAAUoQIEmIsBgu4l8UWwmBShAAQpQgAIUoAAFKEABCjQdAQbbTee7YkspQAEKUIACFKAABShAAQpQoIkIMNhu4C9KPgs7eOBomFtYoMOoKQ18N+Oo3iMoDH6dexlHYypphWebdmjZvhucW/ijVfcBlZTgKQpQgAIUoAAFKEABClCAArcmYDSP/urdJwI9etyG1avX4kpsyUPAb61rxnG1vZsnOk+4B1F7/0DErAU4uWF5gzZM3qvP3GegLfUM7oyEWKz66/QGvW/pyn063Aa3Vm1x5ehe1ffy7Yk/cRC/vfVE6Usa5HjeyoP4/M7uFer26dgddq6eSDhzBCGDxiD64PYKZW7mRJCnMx4Y2Al/X7XzZi7nNRSgAAUoQAEKUIACFKCACQkYRbDt5OSIwFYBIsi+AhSbkK6BunJmyxps/eAfBrp7xdsapD1mZjC3tKrYmAY8Y2nOiSINyMuqKUABClCAAhSgAAUo0KQEjCI66D+gD3bu2ouiYtOLtAsL8pGTeg3Fom/Z1xLK/HGMfWUhOk2YhbnL9mLyOz+gpRgR1qV+855DQLe+uo8Y9OjL8OlYkj/hjcUY+MhLuP+7nQi7fSLu+ep39JnzN33Z6g5atOuCuz/5GfNWHcKYlz6FnOauS5P/+z2s7R10HzHlw1UiYC35PSZixiO4beoDmPHZenW/9iPu1JczM7fAkMdfwwOrD2Piv5bA2tFZn1fdgXurYNz5zjJY2tipYu6tQzDxra/09wzsORizFm/CnB92q/ptytUrR/Fnf7NNtafr5DmqDgsRYM9ctBH3ffOn6IujOpafx7z8qb4peTnZyMvORIE2F7kZafrzuoOhQ4fim2++gZeXl+5Ute8dfT2wcNbteG1iX7Rr6a6O5eepPULVdXdHhOnPhbZww1/6h+PjGUMR6OGM/sG++nKy8NB2AZjUta3+fnK0/N2pg/D1nJH4x9hecLaz1ufxgAIUoAAFKEABClCAAhQwXgGDB9t+fj6wEMFabIwY1TbBlB53GRveeAyFeVqseKLsmm0Xn1awtnPEVzP748ym1ehbKmB29GwJKxEs6pL6bFsSCLv4tYYcLT61cSVCB4/HsofHo93wybqiKsh08W0F3cvG0UXlyaB27Mv/w56v3sGSWQORFnsJgxa8or/OVdQrA2ddcvNvAzPxfzLZienwcp3ziifuwm9vPg75Y4Clja3K8+/aW/1QsOqvM7Dh9cfgG95Dndf9I4NeXVvku52Lm8pKiT6P5Etn0Gu2mFIuRqKHPvEmIld9iaKCApXf7vZJWPfqw/h69hBYWNkgbOhEXZXw7RSB9mIN/I+PTsKKx+9Em37D4eTtC/njxqqnpmHZIxNUMC2P5WvL28/qr5V2kasW48qRPdix8E39ed1BXl4ecnJyUFRUpDtV7fuZq6l4euV2/GfjAZxPTFPH8vPPRy6o69ZEnlfncvIKMLZTENI0Wny67QgSM3LgaGsNN3sbff1O4rPr9c+WFuZ4fkxP/O/Po7h38W+IjE3CgqFd9WV5QAEKUIACFKAABShAAQoYr4BBp5GbiQCrf/8+2LBhs/EKNXDLLuzYoALEk7+tQN95z8LKzh75mpwa7yqDVBkcW1jbQI7UFuRqYGVrr65r3WsIWoR11tdxZM0SHP3pawTc1g9pV6IQtW+ryju4bCHm/rhXjSTrAlz9RZUcXN6/Td0r8ewxJIiXb6eeiD7wpwp8T/z6A65dPKWukuVk23SpfHvObl2LvUveU9k7v/gXpi9cpwJ3GfzLa3Wp9Lru05tX47Yp83D0529UdtjQCTiy+ito0lPV51V/myGWIJTMjNCdk2sSbhzraq35fceOHZCv2qYCEZRnaPKQpc2H7rj0tbn5hZAvmReVnIHVh8+Xzq7yuIu/F86J4F0G8zL9cuQiZvfpACsRhOcX1u6HgCorZwYFKEABClCAAhSgAAUo0KACBg22O3Zshytx8UhPz2jQThpz5cXXR0+LiwqhzcoQwbZDrYJt2SfdtfK4qLBAjEqXjEKf/WNtpWu25cjvtQsnZXGVtFnpyLp2FQ4eLZCZUPPMAtlGXcpJSRJT0EtGzOWI94Hvb0zTLi68UU6Wr6o9Mk/+sHDgu48x9Mk3sWhab3lKn/y79kGoCKq9gjuq0frMxBsb5zl6+yF39xZ9WV2gfeOEcR4du3Kt1g1r4WyPbgFe+Gj6EP01WjHq72Zvi8TMmn+Q0V/EAwpQgAIUoAAFKEABClCg0QUMGmx36doJWZnZGD16uOq4l5cnevXugaNHjuP8+YuNjmFMNywsyNNP066vduVmpMKh1CO55HpsOxcPsW65ZORUTsGWU81l0F+XJNc+y13XbybJNnQSa6+vHN2HbnfOxa5F/1bVyPNDn3oL6199BEniBwIZ0Pe+7yn9LWSbLW1L1nrrTzbBgwIxQm1jeWPqfukuZIjp5nsuXsX7Ww6XPs1jClCAAhSgAAUoQAEKUKAJCBh0zfYfv/+JyMijOHnytHplZWUjKioaSUm1H/1rAsY31cQrR/YhoGtfda1cR+3qH3RT9ZS+KO74fvh16aVGieX5Vj0GIlWsm9ZNW79yZC/kaLJMco24tcONNePqZBX/JJyOFI/QGqueJS6LeLbtUEXJiqcjZj6KhFOR+PXlB9UotgyqZbJxcIa56Pe1i6fV9HC3cv2PPbwbQX2G6SuUU8zl871LpwKxTv5mUlBQEObMmQMbmxtrqWtTT35B3ad2y5HucD9PsW9ByayEVu5O+lsdj0sWeR5wsC7ZVd3byR5z+nXU58sDuRTjlVdewZAhN0a/yxTgBwpQgAIUoAAFKEABClDAIAIGHdmOi7taptNdu3VGwtXEZj2tXAdyafdmtB8xGTM+34CMqzHQpCXrsm76PSvpqho5vnfJH6LOWMjdvde/9qi+vuO/fo/bxWhyZ7FDulyTnZedpc+r7uDY2u8w4c1huE/sji7Xc2fER5cpHiY2OmstdhbXJd1ztr1CwhE6ZAJ+eGicCvi3vPMchj39H/VZk56C89vX4673l0MjdnO/uGuTWJNupzZTk+u9z2xZLX4Y6K12Vi8UU+izEuPVpme6e8j3Y2u/xdQPV4t17dZIjbkoNm9bUDq7yuPu3btj2rRp2LRpE2JiYqosVz7jkliPnaMtKJn2LWLnradjseLQObXb+MBQP/i6OOK5UT2QW1CInefi8P3+M0gQm6QdFQH35/cOR3x6NtJycpGZW1JzWo4WS/ecxrvTBiE5WwMXOxv8b9vRMrf18fFBnz598Nlnn5U5zw8UoAAFKEABClCAAhSggGEFzMQonuk9b6sS0ynTJmH5sjWV5Bj3Kblzd25mhlifXXYd9K20Wo6Uy3rlI8kqS3JKeFV5lZXXnbNzcYdGTkmvx0e4yWntsu+F+Xm625R5V5vCicBWNzpfJvMWPshRba325kbGb+a29taWYgO1YuSJQLx8kqPXLmKXcrmLefk0cOBAjBs3Ds8880z5LH6mAAUoQAEKUIACFKAABRpZwNfXF3FxJXtNGXRku5H73SRvdzO7adfUURm8VhdMV5dXXd1yNLq+U4FWU22V+bkNs1FYYwbasoPysWBVJfmM9soCbVleBuLLli2r6lKepwAFKEABClCAAhSgAAUMJMBg20DwvC0F6kNg27Zt9VEN66AABShAAQpQgAIUoAAF6lnAoBuk1XNfWB0FKEABClCAAhSgAAUoQAEKUMAoBBhsG8XXwEZQgAIUoAAFKEABClCAAhSggCkJMNg2pW+TfaEABShAAQpQgAIUoAAFKEABoxBgsG0UXwMbQQEKUIACFKAABShAAQpQgAKmJMBg25S+TfaFAhSgAAUoQAEKUIACFKAABYxCgMF2A38Ntk6uCB44GuYWFugwakq1d+s45m5YWFpVW+ZWM+vSnrrea86cOXj++efVa9iwYXW9nOUpQAEKUIACFKAABShAAQqYjIDBH/01655psLa6EWBeTUjEul83mgywvZsnOk+4B1F7/0DErAU4uWF5lX3rNfsJnNv2KwoL8qssc6sZdWlPXe/Vo0cPPP7448jPb7j217VNLE8BClCAAhSgAAUoQAEKUMAQAgYPti0tLbF48VJD9J33pAAFKEABClCAAhSgAAUoQAEKNIiAwaeRFxcXN0jHjKVSOUqdk3oNsp/Z1xLKNKtlu66YtXgT7v9uJ9qPvKtMnpx2PvDhf2Duj/tw75I/EDpkfJl8304RmL5wHeb8sBtDn3pLTVPXFeh17+OYu2wv7lu6HWNe/hQOHi10WWrUvKr2yEIBAQFYunQp+vXrp7+GBxSgAAUoQAEKUIACFKAABShQNwGDjmybmZmhsLAQwcFtEBoWjLS0dOzfd8ikpiGnx13GhjceU9/KiifKrtnu/+ALOPnbChxd8zX8u/SCXE+tS10nz4Gjty9+eHCcCJa9MfqfH+PahVNIiT4Pa3tHjHj2HfzyzweQGnsR/ec/j7b9R6kp6C3bdxNrxMdg6dwR0Galo02/EfAO7YRLu0sC/eraI+8tv4/s7GyT+g50pnynAAUoQAEKUIACFKAABSjQWAIGHdm2traGra0NXFycce7cBfj6tsSo0cMaq+8GvY+FtQ2cRDB9+MfPUaDVIGrfVuTlZOnbFDp0Ao6sXoLslEQknjuOCzs2ImTIOJUf2HMwYiN349rFUyjM02LbRy+rQFtmWlhZq3qKiwpU2Ys7N4pAe7M6rs0/cXFxmD9/Pvbt21eb4ixDAQpQgAIUoAAFKEABClCAApUIGHRkW6vV4ovPv9Y3K+FqIu6fMwtWYsM0U99kyyu4I9Ljo8X08iJ9/4sKSwJkeUIG4tcunNTnyWP/bn3UZ5mnSU/R54lK9Mdxx/bj6qnDmC2mkMvp4nFH92LPV++I8qn6MjygAAUoQAEKUIACFKAABShAgYYVMOjIdvmuZWVlo6CgQATbBv0NoHyzGuRzoTYXcmfwqlJuRhocPG+stZbH8pxMuRmpsLS1q/RSGbxv//R1fH5nd6x9YS7yczXo/+CLlZblSQpQgAIUoAAFKEABClCAAhRoGAGDBtty+vjIkbfD3LykGW3bBiEnJ0e8NA3TWyOqVa61tnfzgldIuGqVo2dL2Ll46FsYc3gXggeMUZ/NxY7tbfoOhzwn0xUxWu3ftQ8sbWzV54BufdFu+GR1HBgxCAHd+0OOdmdcjRGj3JFqqrnKrMU/Dg4OmDt3Lvz9/WtRmkUoQAEKUIACFKAABShAAQpQoDIBgw4hZ2RkQpuXh9n3TRfTxgvU87Y3bNhcWTtN7lyBGNne/ulrmPLecrUmO+bQDjHVO1nfz71fv6c2RQseOFpsnOaCc1t/xWWxrlum9LhoHPt5Ke7+9BcxVTwJcv33+lcfVnmpMRcx9Mk30Xv2k2rttrmFJX5/93mVV5t//Pz8MG3aNMTHxyM2NrY2l7AMBShAAQpQgAIUoAAFKEABCpQTMAsKCrqx4LdcZmN9lM/atraxRk52ToPdcsq0SVi+bE2D1X+zFcsNzWSwnJedWWkVcofyfLGBmtwIrXySjweztndCbmbJ9PLS+TXVW7ps+WMbGxvI9fR1TZ988gleeukltd5eXq/RmP4MhboasTwFKEABClCAAhSgAAUoYLoCvr6+kJtOy2TQkW0dsVynLV/NMRXm50G+qkqVBdK6skXiMV1V5ddUr66Oyt5vJtCW9Rw4cADz5s1TVcrdzDdvbh6zFCoz5DkKUIACFKAABShAAQpQoHkLGEWw3by/AtPp/eLFi02nM+wJBShAAQpQgAIUoAAFKECBWxAw6AZpt9BuXkoBClCAAhSgAAUoQAEKUIACFDBaAQbbRvvVsGEUoAAFKEABClCAAhSgAAUo0FQFGGw34DcXEta6AWtn1RSgAAUoQAEKUIACFKAABShgrAIMto31m2G7KEABClCAAhSgAAUoQAEKUKDJCjDYbrJfHRtOAQpQgAIUoAAFKEABClCAAsYqwN3IjfWbucV2hYeHY+zYsbAQz+KWj+CSj+JiogAFKEABClCAAhSgAAUoQIHGETCKYNvLyxPDhw/Bzl17cTkqunF6buJ3ueOOO/Dll18iNjbWxHvK7lGAAhSgAAUoQAEKUIACFDA+AYNPI3dxccao0cPw229bGGjX499HRkYGfH1967FGVkUBClCAAhSgAAUoQAEKUIACtRUweLA9cGBfMcX5IJKTU2rbZparhcDKlSsxa9YsmJmZ1aI0i1CAAhSgAAUoQAEKUIACFKBAfQoYNNh2cnKEp5hCXpBfoEa3+/fvDRsb6/rsX7OtS04f12q18PT0bLYG7DgFKEABClCAAhSgAAUoQAFDCRh0zba3txeKi4vRoqU3zp45j06dOmLM2JFYvWqtoTya/H29vb0xcuRI+Pj4IDo6GklJSU2+T+wABShAAQpQgAIUoAAFKECBpiZg0GDbWazXzs7Oxq6de5VbfPxVzHvgPtja2iI3N7epWRpFe+VodlxcHMzNzREcHKymkcsfNJgoQAEKUIACFKAABShAAQpQoPEEDDqNXAbUaanp+t5qNLkqyLayttKf40HdBNLT07FlyxYsWbJETMm34TTyuvGxNAUoQAEKUIACFKAABShAgXoRMGiwHXclHq0C/WFtXbJOOyDAD4WFhcjMyKyXzjXnStq1a4eioiJOI2/OfwTsOwUoQAEKUIACFKAABShgMAGDTiNPT8/A/n2HcP+cmSLAzoKtnS02bNhiMAxTuvHYsWPx/fffm1KX2BcKUIACFKAABShAAQpQgAJNRsCgwbZUOnr0BI4dOwk7ezvkZOc0GThjb6idnR3y8/Ph6uoKjUajdiY39jazfRSgAAUoQAEKUIACFKAABUxFwODBtoSUG3gx0K7fPyn5nO0JEybAwsICmzdvFs8y31e/N2BtFKAABShAAQpQgAIUoAAFKFClgFEE21W2jhk3LXDq1CnIFxMFKEABClCAAhSgAAUoQAEKNL6AQTdIa/zu8o4UoAAFKEABClCAAhSgAAUoQIGGF2Cw3fDGvAMFKEABClCAAhSgAAUoQAEKNDMBBtsm9oWHhLU2sR6xOxSgAAUoQAEKUIACFKAABZqeAIPtpvedscUUoAAFKEABClCAAhSgAAUoYOQCDLaN/Ati8yhAAQpQgAIUoAAFKEABClCg6QlwN/Km950ZZYs927SDpY14VnpKElz9gxB9cHuDttOvS29o0pOREnWuQe9j6MptnVzh360PLu7ciHbDJ+PkhuX11qQ5c+agZcuWqj75aDj5iDgmClCAAhSgAAUoQAEKUKB+BAwabPeI6Ibu3btCq83T98bZ2QlfLl6KzMws/TkeGL+AT8fusHP1RMKZIwgZNKbegu0ud9wHawcn7F/6YRmEtv1H4tqFkyYfbNu7eaLzhHsQtfcPRMxaUK/Bdo8ePfD4448jPz+/jC0/UIACFKAABShAAQpQgAK3LmDQYFs2f++eA4iMPKZ64ubuikmTxjLQvvXv1WRqsLC0Mpm+sCMUoAAFKEABClCAAhSgQPMRMOia7ejLsYi9EqfX7hTeASeOn9Z/5kHTEcjLyUZediYKtLnIzUjTN1xOLR/+zNuYt/Ig7npvBdr0G6HPc2rhhzEvf6r/7BbQBiOff1997nbXXMxctBG9Zj+BLpNmq2P5OaBbX315F99AzPhsPe756ne0H3Gn/rw86DBqCmZ/sw1zlu1B37nPwMzcQuVHzHhEX1eLsM7oP/95TF+4Dh6tQ8tcX9mHsa8sRKcJszB32V5MfucHtOxwm76Yi28rdU72U/bJIyhMnzfhjcUY+MhLuP+7nQi7faJqb585f9Pnhwweh1mLN2H20j/Rb95z+rbKAoUF+chJvYbi4mJkX0vQX6M7CAgIwNKlS9GvXz/dKb5TgAIUoAAFKEABClCAAkYgYNBgOzExCdeSkhWDhaUFwtqF4sQJBttG8HdR5yac2bIGkasW48qRPdix8E399S3bd0WWCBIXT++LrR+8iIEP/1MfTMpRaxefVvqyFlY2cBYBuEzH1n6HVU9Nw+HlX4ip0z+qY/k57th+fXm3gLZY8cRd+O3Nx1WQamljq/K8Qzvhtqnz8etL8/Hjo5Pg2bY9Oo6ZpvIiV32p6srLyUKn8bOQk5aMbR+9jIyEWH29VR3ItlrbOeKrmf1xZtNq9C0dMA8ah6NrlmDR1J6I3v8nes56TF+Ni19rSJ9TG1cidPB4LHt4vFp/LQu4tw5BxMxHsepvM/DN7CFw9PIR08Zn6a9Nj7uMDW88hsI8rejrFP153UFhYSGys7M5FVwHwncKUIACFKAABShAAQoYiYBBg+3SBiHBbXE1/qoKHEqf53HTFoiN3I3di/+jgsVrF08jM+EKvEPDa+xUgVYjNkBLRX6uRr3ksXzJkV5durx/G+SIeuLZY0gQL99OPVVW2NCJOLd1LeT9spKu4tjPSxE6dILKy8/NUfUUFRQgOeoMDi1bKAL4fcjX5Oiqrfb9wo4Nqg0nf1sBD7EpnJWdvSp/4PtPcP7P9SgSwe8pkdeqx8Ay9SRfOoPUmAtIES/Z5gLRLytbe7QbdocK0uXGcvLayJWLIEe6a5vi4uIwf/58yA3OmChAAQpQgAIUoAAFKEAB4xEw+JptHUWnzh1wYP9h3Ue+m4iADEa7TLoP/mL3cFtXdzGSHYj6WoddXFSoV5LBqq2Ti/rs5O2L02IkWZeSxEZq8lz5dOXI3vKnavxcXFSkysh7a7MyRLDtoAJ1OaU9fOx0+HTsAUtbW7Eze8koe+kKddfKc0WFBWKE30yM5PuLDeXGInz8TFXUXEx3l3lMFKAABShAAQpQgAIUoEDTFjCKYNvDwx1OTk6Iiopu2ppsfQWBDiOnwLmlP9a99oha0z3xX0v0ZeQotVzTXd9Jk5EKR48W+modPVuWWUeuyyjWHdTDu1xrHbX3d+z58r9q5PuhX07UqlbZ1j1fvSOmmf9Uq/IsRAEKUIACFKAABShAAQo0DQGjmEYe3qkDToq12nITKCbTEpAjvonnTqhA29zSUo3k6noop5TLc3KdskzugcG6LP17gVirXNcUe3iX2ohNtyla8MDRiD20s67V1Km87Gf8iUMq0Jaj1eaW1rW6Xq7vDh44BmZmJf8pBvW+XW2iVquLRSEHBwfMnTsX/v7+tb2E5ShAAQpQgAIUoAAFKECBRhAw+Mi2pQi22rULwXffLm+E7vIWjS1w/Nfv1W7kbfoOU9Ouj4r100Ofegsrn5wm1k6n4MB3n+Cud39ExtUYXBPrmssnOVp8+1//heABo1TW9k9fh1wHXl2Sa6f9u/bBfUu3I0+ThWyxbnv96wvUJd3vfhChQ8ZDBsejXvhA7J6uUWut93/7UXVV1ph38IdPxU7q74k14vFIuXxebIa2AuPFLuRrX5hT7bWX9myBn5hiP/2zdcpHBt3rX3242mtKZ/r5+WHatGmIj49HbGxs6SweU4ACFKAABShAAQpQgAIGFDALCgpqFsPJU6ZNwvJlN9bxNoZ5SFhrnDsT1Ri30t/DEPfU37yaA1snV+Rm3ngkWOmicg23pdgsTJuVXvr0LR/LKeoWVtb1Xm9VDZMj6XKNunwEWl2TbKdc5y3Xgdc12djYQKut+wyATz75BC+99JLayVxer9Fo6nprlqcABShAAQpQgAIUoAAFSgn4+vpCbmIsk8FHtku1i4cmLFBVoC27LNduF9ZzoC3rlaPW8lXbdNuUeQgfV7JRWelr1r/+KJLOHS99qtJjuWnazQTasrLC/Dz1qrTiGk7eTKAtqzxw4ADmzZunape7mW/evLmGOzGbAhSgAAUoQAEKUIACFKitAIPt2kqxnMkLHF65GEfEs7LLp9KPGyuf15Q/L168uCk3n22nAAUoQAEKUIACFKCAUQsw2Dbqr4eNa0wBOTJdWOpxYo15b96LAhSgAAUoQAEKUIACFDAtAaPYjdy0SNkbClCAAhSgAAUoQAEKUIACFGjuAgy2m/tfwC32X27IxkQBClCAAhSgAAUoQAEKUIACZQUYbJf14CcKUIACFKAABShAAQpQgAIUoMAtCzDYvmVCVkABClCAAhSgAAUoQAEKUIACFCgrYDTBtrW1ddmW8RMFahCIaN0Cno526OjrgVbuThVKm5uZwd66cfYA7OzviUCPim2o0KibPDG+S5tK+3iT1RndZUGezmjX0h0tnO1xWytvo2sfG0QBClCAAhSgAAUoQIG6CjROJFJNq3r16oHgkDYoyC8AzIA9ew7gclR0NVcwiwIlAsPat8IvRy9BBt3RKZnqJXOsLMzxtxHdESAC8MKiYthYWuCjPyJxNPaanu6HB8bg7s/W6T/f6kHftr64mJSOy8mZt1pVhevFfxboLgLQq+nZ+j5WKFSHE/8Y2wteTnZ47Iet6qp5Azqhf7AvZn/5Wx1qqd+iHXw84GpvgzNXUzEg1A+HohPr9wasjQIUoAAFKEABClCAAo0sYNBg29XVBR3D22PJV9+hsLAQLX1aYPjwIfiGwXYj/xmY1u0Gh/kjr6AID3/7u+qYHPXuJoJVXbAtg1dLc6OZ1FEjfrEo8fLaPTWWq0sBD0dbtPF0UcF7t1ZedbmUZSlAAQpQgAIUoAAFKECBWggYNNi2sLCARqNRgbZsa1ZmFizFKCQTBWojkK7RIr+wCFnafGjkzIjrKdzPEzGpN0aYdaPelmLE++PpQ2BjZaGmly+cdbu6IiY1C6//ulcdy+nMjw3tBhmMnktIw/u/H0aGJk/lvTaxL9Yfv4R7+3SAg7UVvtx1Ar+fjrl+V8DHxQGfzBwKa3GfH/afxeZTN2ZoDBSjtTN7tRN5Fth+/gq+2nkSRcXF6kcAOTLvK64NbeGGjScv45s9p9SIvKz44xlDxQ8D8ucB4K31+xGVnKGO5T+ONlZ4/PZuCGvphpTsXDF6fwTnE9P0+dUdbD4Vg+EdW+GYGO3fH5WAwaH++uJVtXVEh0DYiWn5P0Ve0Jf9++gIfLnzBK5m5FTbnn+O6w0/Vwf1Pf3nt4OY3jNMTYvXja7L789Ka4488aNb5nVv/U14QAEKUIACFKAABShAgSYoYNBgOzk5BSnJqRg0uD8SE5MQEtIWu3ftb4KMbLIhBD7ZelTd9vTVlDK333sxXgXMhUVF2C2O49KyVX6BCMyfXrldHX99/0j9sZxqLpMMxp8f0xNvbzyopjPLddILhnbFG7/uU/m+IlhsKYLiR7//Az1FgPyYCHS3nY3VB8b+7o746/I/4e/qiFcm9sGf566IEfZCtZZ7ekQYnlu5Exm5WjXFfVznIPx85CLsrSxVXS+s2aWC7xfE/Q9eTsSxKyVT3v++aodaXvHPcb3UdHjVkOv/yLYdFeXeWLcPwd6ueF4Evg8u/V0FrKXLVXZ88HICHhrUBQFuTvh8+zF9sC3XnVfV1siYJLw2qY8+2G4p1lf7ir7KQFum6trz300H1fT+RbOHQ7oejknEumNR6jr5T+kfLXQzEPSZPKAABShAAQpQgAIUoEATFDD4XNqYmCto26Y1wsJC4OTkiJSU1CbIyCYbk8CuC/H48PdIdPb3wnvTBkOOYMtgVCY5Si1fMrzWHWeLkXGZuojy58TIsFw3LNMvIhjuFuCtgkR1QvyzXQTQMmiX95Aj33Iqti7JIFmTV6DqkHmd/DxU1tB2rVRgnZqTqwLz1YcvQI4e69JZUTZBBKxJmRrsOBeH7oE3NgjLyC1pb0FhyQ8CumvkOnS5znmtaKNMckRbjtB39HXXFan2vUj8wHAoOkGNtF9NLwmW5QXVtTUxMwep2Vo1Ai/LDg4L0I/e19QeaSy97cSPC3LEf4sYWT8ZnyyrYaIABShAAQpQgAIUoIBJChh0ZLtVK3906twRixcvVbiOjg6YOWsavvj8KzG1vMgkwdmpxhHYeSEO8iU3S7tbjCo/IUah5Yh0dUnuhN0twAsfianmuqQtKICbvS1koCmTbhRcHkenZKCdj7sKruVnGcDqkgysHW1Kdthv4WSPASF+GNspSGWbi2nhpeuR08l1KUVc11KMoNeUvEWdTrZWZdrqKD672NnUdKk+Xwa85Td0q6mtMlCWa+LPJqSif4gvXli9S9VX2/bI6eK1nequbygPKEABClCAAhSgAAUo0AQFDBps+wf4ldl5PCsrGxkZGfD29kJ8fEIT5GSTjU1Aruled+wSJnRtU2PTMsQa8D0Xr+L9LYdrLCsLyMBWrgevKcmp49/sPoU/ztxY313TNTXlp4s6r2Xl1vgDQnX1XLyWjmixtt1CPCJNl2pq687zceLHi1A17TtRjMbLdfMy1bo9N35X0N2S7xSgAAUoQAEKUIACFDBJAYNOI89Iz0QbMYXc/PrO0C4uzvDw8EBmZskaW5MUZ6caXODZUT3KTNPuFdQSu87Hl7mvXEtdPh2PS0a4mPotNz+TSY7WzunXsUyxtl4l08adba3RI7AFTl+fcl6mULkPcnr5ADEKbHY9qJXtGSKmYN9KklOys/Py9VO65e7qj4k13NZ13GBQTokvnWpqqxyZPhWfikcGd8GmUhvA1Vd7SreFxxSgAAUoQAEKUIACFGjKAgYd2T558jT8/Hww74H7kJaWDldXZ2z9YzuysrKasinbbmCBb/acxl+H36Z2/5Yj28liBHjxzuNlWvWrGO1+d9ogNc38iljrLHf6TsvRYqm4Vp5Pztaokev/bSvZhE13caCHMyZ1C0ZHMX1c1nG51O7gujLl3/deuirWj3vikxlD1M7p5iLolpua1SZ9cPdg8WOUmdrp/OmR3ZErfiRYuO2Y2kDt/c2H8ZToZ6Y2D65ilF0Gv5X9iFCb++jK1KatW05HQ/6gsf9S2dkn1bVHbvwmN1OzFTvBfyQcZPpS7MguN2pjogAFKEABClCAAhSggCkKmAUFBRl8Yqd8BJitrS1ycnJQXGr9an2CT5k2CcuXranPKmusKySsNc6diaqxXH0WaOx7Nvb96mIlR3nlU7Ny8yuOYldXjxyBdhEj12nXp0jrysqdtJ9eIX4Mys0XO5ebIUdshlaXJNePyzbpNmSry7XVlZXT2eVGavX53051bR3WvhXkCP/CP49V2qyGaE+lN+JJClCAAhSgAAUoQAEKGJmAr68v4uLiVKsMOrKtcykUz9bNzubUcZ0H3+tH4GZHeWXQWj7QLt0i+SzovLrF7+pyOcouX/WddOum67Peytoqnz3ep40PRnZsjf/8dqDK2zVEe6q8GTMoQAEKUIACFKAABShgpAIGXbNtpCZsFgUqFViy+2S9j0pXeiMjPSknncggXG4gV5uN4Yy0G2wWBShAAQpQgAIUoAAFGkXAKEa2G6WnvAkFblHgz7NXbrGGpn15SnYufjtxuWl3gq2nAAUoQAEKUIACFKBAIwlwZLuRoHkbClCAAhSgAAUoQAEKUIACFGg+Agy2m8933SA9bewN4BqkE6yUAhSgAAUoQAEKUIACFKBAPQsw2K5nUFZHAQpQgAIUoAAFKEABClCAAhRgsM2/AQpQgAIUoAAFKEABClCAAhSgQD0LGMUGaebm5rCxsYZGk1vP3WN1jSEQHh6OCRMm6G/15ptv6o95QAEKUIACFKAABShAAQpQoDkKGDzY7hHRDd27d0VGRiasra2xYf0mJCQkNcfvosn2+fjx45AvmT7//PMm2w82nAIUoAAFKEABClCAAhSgQH0JGDTY9vFpiS5dwrF40VLk5+fD17clRo4ahq+XfF9f/WM9FKAABShAAQpQgAIUoAAFKECBRhcw6JrtFi29ERUVowJt2fO4uKtiOrkN7O3tGh2CN6QABShAAQpQgAIUoAAFKEABCtSXgEGDbU2OBi1FwK1LTs5OKtC2tLTSneI7BShAAQpQgAIUoAAFKEABClCgyQkYdBr5xYtR6NevFyZMHIN4Mart6emBvLw8ZGZmNjlINpgCFKAABShAAQpQgAIUoAAFKKATMGiwLddpf//9SnToEIaCggKcO3cBdmIKeXFxsa59fKcABShAAQpQgAIUoAAFKEABCjQ5AYMG21JLo9Hg4MFIBTf5zgmIjDzW5BDZYApQgAIUoAAFKEABClCAAhSgQGkBg67ZLt2QHj26QavV4uKFS6VP89hEBAYPHoyXXnoJlpYG/33HRETZDQpQgAIUoAAFKEABClDbPsUkAABAAElEQVTAmAUMHvmYmZmhd58IeHl5qmdsGzMW23bzAr1791Y/psjlAkwUoAAFKEABClCAAhSgAAVMXcDgwbZcn7171z5Tdzbp/llbW4td5O1VHy0sLCrta9u2bfH+++9XmseTFKAABShAAQpQgAIUoAAFTE3A4MG2qYE2x/6EhoZiwoQJquvnz5+vQCBnL5w4cQLHjx+vkMcTFKAABShAAQpQgAIUoAAFTFGAwbYpfquN3CcZRFcXSMvZC++9914jt4q3owAFKEABClCAAhSgAAUoYDgBo9kgzXAEvDMFKEABClCAAhSgAAUoQAEKUKB+BRhs168na6MABShAAQpQgAIUoAAFKEABCoDBNv8IKEABClCAAhSgAAUoQAEKUIAC9SzAYLueQVkdBShAAQpQgAIUoAAFKEABClCAwTb/BihAAQpQgAIUoAAFKEABClCAAvUsYDTBto2NTT13jdU1poBnm3Zo2b4bnFv4o1X3AXW+deeJ98I9MKTW14UOGY+ud85RL1e/1rW+Tha81bZWdbOI1i3g6WiHjr4eaOXuVFWxmzo/vkubMnVamJvhjm5t9S9ry8qfb97awxljOwXV+p6+rg7oHuhd6/LlC44Jb61ODQ71h701H3ZQ3oefKUABClCAAhSgAAWaj0CjBNt+/r6YM/cezH9wTgXZdu1Dcf+cWbhj8njMnDUVbu6uFcrwhPEL+HTsjlY9BsItMBihQ8dXaPC8lQcrnNOfEM/hDhTXOrfw05/SHXS54z5EzFqg+6h/z05OREZ8DIJ63w7Ptu3152tzUFNba1NHZWWGtW8FHxcH9ApqidAWbqpIoAh2v7p/hHote2AMVj40Tv9ZBqS1SWaiUPdW3mjhbK8vLp6mhvj0HPWa2iMUtlaVB9s+InjuJq6tbQrycMGQsIBqi784thfCxQ8KlaVZfUq+i4nihwBHG+vKivAcBShAAQpQgAIUoAAFmoVAgw89tWkbhAED+mDD+k0YP2FMGVR7B3v07dMT33+/AhpNLlq18seI4UOxbNmqMuX4oYkLiGDa3NKq6k6IyHHtP/5Sab5FFdddObpXlW/bf2Sl1xnLycvJGbjvy42qOXLUN9jbFR/8Hlmn5om4Gi+v3VPmmiJhtudivDr30KDOZfJKf9h9IR7yVV3qF+yLQSLw/3z7seqK6fMsLWT4z0QBClCAAhSgAAUoQAEKVCfQ4MG2g70dVq9ai/z8/ArtaNOmNS5euqwCbZkZHR2LYcOHwMHBAdnZ2RXK84TxCuTlZMPCygYF2lzkZqSphspA+e6Fv8LKxg7W9o6Yuagk6EyNuYB1Lz+kykxfuE4E4iV/hhteX4DkS2fU+W53zUWH0dPUaHd+rgZy2rhMf370MmIO71LH1f0TMngcet37OCysbXB+2zrsWvQfFBcVqksqa2vpuoYOHYr7778fTz31FJKSkkpnVXucrtEiv7AIWdp8aPILqi0rMx1trPCgCJTf3nhQTfVu4+WCD0UgPvm2YJy5mooTccn4eMZQWIop4zK9tX4/okTwXps0WgT2k7q2VUWPi3pkvaWTnFp+Z/cQFBaJ9ubm453Nh5CWo1VFrCzM8fL43mp0fuPJy/hmzylRrhjPjuqhfizwFaP3cnq6Nr/E84kft0GTV9Lfa5kaVUdqdi4Ki4tK35LHFKAABShAAQpQgAIUaFYCDR5sHzt2UoHa2dlWgHUUQXVOdg5sxHRTH5+WiIqKVkG2o6M9g+0KWsZ94syWNfoGXjlSMgpbWJCPVU9NU+fv+3an/riosCRIkxmrn54JMfCNsa98BkubG38jx9Z+h9ObVqHLpPtgbmWFw8s/V/XkZWep9+r+cW8dgoiZj2LV32YgNz0Fw599B50nzMKRNUvUZZW1tXR9eXl5yMnJQZEIROuSPtl6VBU/fTWlVpfJoFwG2DJ18HWHq31J/4O9XLHv0lV1/u+rdgDC55/jesGminXZqmC5f7acjsHOC3Ho4OOOMeXWbPu6OuLuiDA8+O0W9ePAv+/sr9aax6Rkqlraija9sGYX5Oj5C2N64uDlRBy7cg0f/X4EFmJU+++jI7Dm8AWcut7P3OuBtrz4sR+2qjpe/aVk5oH6wH8oQAEKUIACFKAABSjQDAUaZc12Va7W1lYqoGndOhATJ41FyediWFlzrWdVZk3tvCY9FfIFFKt3eazNujE6m5tRkl+Yn1emawVajSovR7XlS1ePDOBrSu2G3YGjIrDOSUmCDOwjVy6CHOmubdqxYwfmz5+P5OTk2l5y0+XkSLiZ+LVBbnCWnKVRm4p5ONriakaOqjMjNw8ZmjwUFMrJ5LVPeQWF6joZ0JdPPi72uHAtDdkiT5aTQXOAm6O+2NmENCSI+yeJUeod5+L0G6Zl5+Vfb0uRula2S77q1jL9bXhAAQpQgAIUoAAFKEABkxZo8JHt6vRytVoxUmaBs2fPIy7+KvLE/5iXn7W5JdNZq7uWeRSoSkDuiB4yaCzCx89URczNLUTQXfO07qrqa8jziZk5aOFkJ4LpIkQnZ0JuqCaDb/m5oZIMpkPE2vEOPh7ILShARGBL/OvUfv3t5Ii2LqXk5KKl2GSNiQIUoAAFKEABClCAAhSom4BBg+3MzCz4+fmgWPyP+8yMkimsjo4OyMqqeapw3brJ0s1JQCNGy/d89Q7ObPnJ6Lsdn5aN28Ru4bGpWWo9dlsxhVyONjdkyhSj5csPnMNDgzuLkWktluw+ifOJJevsG/K+rJsCFKAABShAAQpQgALNScCg08gvXbyM1q1bwV5soiaT3Lk8LS1Nv2Fac/oiTL2vBXk3N1vhZq6L3v8nggeOESPEJX/e8vFgYbdPrDVxUFAQ5syZI/YSaPhnv8enZyNCPCos6loGLqdkqCnbcgp3QyYvMZJ+m3iW9oLv/1Brs7efu1Kn2+UV3Pyou9x4TtoyUYACFKAABShAAQpQwNQFGnxku0uXcHTv3lVs8mSmNkKbI56pLdPy5WsgR7Z37NiDu+++Ezni0V+WYt3qr7/+ZurmzbJ/x9Z+i6kfrha7g1sjNeYi5M7jMk375GeYi6UDLj6BGPHcu2I3cw3+/PhV6B7tFbX3d9z+138heMAoVX77p68jNnI3Rv79PciN0Jy8feHXuZfaEO3Yz0tx/NfvcWnPFvh16Y3pn61T68Nl0L3+1YfV9bX5p3v37pg2bRo2bdqEmJiY2lxy02VksN1dBL6fbz+u1ki3b+mOFYfO6ev74O7BMBe7kcvndz89sruY9l2IhduOqd3K35k2UJVzc7DB/00eoHb/fm/zYTVKPbJjIMZ3aQM7K0u42tngoxlDIDdA+78NB9Ru6a3cnfDdX0ajQGwCJ3ch/1ME3CsO3rivvgGVHGw5HY05/TuqdeYy++kV2/W7kVdSvMypESNG4Ouvvy5zjh8oQAEKUIACFKAABShgigJmYhTvxgJNA/VQrlG1tbUVI9oljw1qiGZMmTYJy5fd2DG7Ie5Rvs6QsNY4dyaq/OkG/WyIezZoh26hcgsra7XDeekN2WpbnRzV1oo9BUwxTRc7kWvFxnGrDp1X3bO3tsTbUwbiH2IH8mTxyK6GSi4uLliyZIn4ce1u5OY23H0aqv2slwIUoAAFKEABClCAAjUJ+Pr6Ii4uThVr8JHtmhoj8+Wa7YYMtGvTBpYxPQG5w3n5Xc5r20tTDbRl/+UO5z1at1BT1/NE0B3k6aKetZ3SgIG2vK+rqyu++eYbBtoSg4kCFKAABShAAQpQwOQFjCLYNnlldpACRiSw/ngU0sXGaO3FM7jlZmwXktLxyi97GvwRXpcvX4Z8MVGAAhSgAAUoQAEKUKA5CDDYbg7fMvtIgVIC8tFeO87HqVep0zykAAUoQAEKUIACFKAABepRwKC7kddjP1gVBShAAQpQgAIUoAAFKEABClDAaAQYbBvNV8GGUIACFKAABShAAQpQgAIUoICpCDDYNpVvkv2gAAUoQAEKUIACFKAABShAAaMRYLBtNF8FG0IBClCAAhSgAAUoQAEKUIACpiLAYNtUvkkD98OzTTu0bN8Nzi380ar7gHppTfuRd8HK1r7Gutr2G4mA7v1rLFcfBcLHzVDVhA4ZD2t7x/qoUtVx++234/nnn1evuXPn1lu9rIgCFKAABShAAQpQgAIUMIxAowTbfv6+mDP3Hsx/cE6FXjo6OmDmzKl45NF58PT0qJDPE01DwKdjd7TqMRBugcEIHTq+XhodMePRWgW0Ldt3hVdwx3q5p6xkzMufwrdTRKX19Z79pDrfdfIc2Di5VFrmZk4GBwdj48aNePPNN7Fo0aKbqYLXUIACFKAABShAAQpQgAJGJNDgwXabtkEYNmwwNqzfVKHbbm6umHznBOzZux/p6RkV8nmCArUR2PnF/+HQsoW1KVqrMhaW1rUqx0IUoAAFKEABClCAAhSgAAWqEmjw52w72Nth9aq1yM/Pr9AGBwd7bNu6A5cvx6BPn54V8nmi6Qjk5WTDwsoGBdpc5GaklWl4r3sfR/jYGSjMz0Pi+ePY9uHLyE5OgFMLPwx46EWse/khVd4toA163vM4fnvzcf31PuE9IK+3dnDCri/+jTNb1qi8vn95BkF9hunLHfz+U5zevFr/OWTwOHWdhbUNzm9bh12L/oPiokKVL0etBz36Cuxc3BC1byu2vv8iigoLMfL59+EdEg4Xv0B4tA5Fvlajyi9fcAdk/2TKTIpX79kpiSgW15ROZmZm+Pjjj3Hw4EGOTpeG4TEFKEABClCAAhSgAAWaoUCDB9vHjp1UrHZ2thV4Y2PjKpzjiaYpoAuCZeuvHNmj74Rcxx08cAyWzh0BbVY62vQbAe/QTri0OwEWllZw8WmlLyuDdWcRgJdOTt6++OHBcWjdayiGPvUmzm1dqwLj/d9+hMPLP1dFI2Y+KqZ0u+ovc28dAnlu1d9mIDc9BcOffQedJ8zCkTVL1LT0EeLzL/98AKmxF9F//vNo238Uzm37FX+IoNvC0hKjXvwIkSsX4+qpQ6rOPE2Ovu5lD09Qx7++NF9/rvRBdnY2cnNzS5/iMQUoQAEKUIACFKAABSjQDAUaPNhuhqbscikBCytrMSqcJUaVC9TZizs3lsqt+VAGwYUF+biw8zeEj5sOz7YdkHj2GPJFACxfMuWXC27bDbsDR0VgnZOSpPIjVy4SI+j/UMF2YM/BiI3cjWsXT6m8bR+9DBQXq+O87Ez1LkfgtdkZ0KSnqs+1/adY1PP000/XtjjLUYACFKAABShAAQpQgAImLMBg24S/XGPoWtyx/WKE+DBmL92OnNRriDu6F3u+eqfWgWzpqdrJUefUjucy2K4uyR3RQwaNRfj4maqYubmFGA0vCfblSLlGjHbr0/VAW/+ZBxSgAAUoQAEKUIACFKAABepBgMF2PSCyiqoFiouLsP3T17H9f2+ox4J1nngP+j/4Ijb931/ViLWljV3VF5fLsXfzQEr0uXJnK37UZKSqgP7Mlp8qZOaKPLlWnIkCFKAABShAAQpQgAIUoEBDCjT4buQN2XjWbfwCgRGDSp6BLUaQM67GiFHuSBTmaVXDMxOuwFyskXb08lGf3cVjw8onr+AO6pSts5t4tNggJIjra0rR+/9U68TNzEr+vIN6346w2yeqy66IkXX/rn1gaVOyh0BAt75oN3xymSp17StzspYfpk6dioiIyh8bVssqWIwCFKAABShAAQpQgAIUMAGBBh/Z7tIlHN27dwXETs02NtaYM2eWYlu+fA3s7OwwbtxI9dlBPG970h1jxXRfMRK6YzfOnb1gArzsQmrMRQx98k3I51PLtdvmFpb4/d3n9TAHvvsEd737owrEr106oz+vO3APCkPXO+dCPsf72NpvkRx1VpdV5fulPVvg16U3pn+2TmzKliH+9Myx/tWHVfn0uGgc+3kp7v70FzGtPQlyt3Jdnq7C05tWo9+85/QB+conp+p3I9eVqezd3Nwc06dPx759+7B///7KivAcBShAAQpQgAIUoAAFKNBMBMyCgoJKdocy8Q5PmTYJy5etadRehoS1xrkzUSZ/z9p0UG6UJgNb3SZkpa+Ru5Jb2tqr3cpLn9cdy+tkGRmsV5b6zHlarQc/svrLMtnynnIEWwbc5ZO5hYXYmdwJuZlp5bNu6bO1tbV6zJ3cLK0uaf78+Thz5gwiI8XIv3ikWGZmyWZtdamDZSlAAQpQgAIUoAAFKEABwwr4+voiLq7kqVsNPrJt2K7y7sYiIHf4lq/KktxtvFA8FqyqJKd1l5/aLR8p5hXSUV3iHRqOQz9+VuHy6u4pn6td34G2bEBeXuV9rNC4cifOnz+Pvn37qldCQgKf013Ohx8pQAEKUIACFKAABSjQ1AQYbDe1b4ztVQLFRYXQ7VS+75sPEH/iYJOW2bJlC+SLiQIUoAAFKEABClCAAhQwDQEG26bxPTa7XiScOQr5YqIABShAAQpQgAIUoAAFKGCMAtyN3Bi/FbaJAhSgAAUoQAEKUIACFKAABZq0AIPtJv31Gb7xchM4JgpQgAIUoAAFKEABClCAAhQoK8Bgu6wHP1GAAhSgAAUoQAEKUIACFKAABW5ZgMH2LROyAgpQgAIUoAAFKEABClCAAhSgQFkBo9ggzUI+89jaChpNbtnW8RMFqhGIaN0Cl65loIWzPTJz8xCdYnrPph7fpQ3WHrlYjcLNZznZWmNkx0CsO3YJOXkFN1/RLV4Z4OYED0dbRMYk3WJNDX95uK8HQlq4qhtdSErH0dhr+pvKv8O+bX3U53RNHn4/HaPPu9WDIE9n2FhaIjUnF36ujjgUnXirVfJ6ClCAAhSgAAUoQIEGFmiUkW0/f1/MmXsP5j84p0J3Bgzog7/Mm40pU+/AvbOnw93drUIZnqBAZQLD2reCj4sDegW1RGiLG383c/p3xNpHJ8LV3kZdFujhhLcm96usino51z3QG4tmD4elxY3/nAI9nPHdvNGwt76137Pm9Ct5lnhdGioD6K/uH6Feqx4ajx/mjdF/bikCQl1ytLGCbLuDeDdkksHrgBC/BmnCxC5tMb1nWL3VnanNQ3x6jviBxwH9g33L1KstKFR5ufmFmNI9tEzerX7o4OOhviv5w8SgMP9brY7XU4ACFKAABShAAQo0gsCtRQK1aGCbtkGQAfWG9ZswfsKYMlcEBPjDP8APX3y+BIWFhejVuwf69e+NtT+vL1OOHyhQV4G49CwMbReAVYfO1/XSOpc/eDkRSZkajOsUhDWRF9T1c0XAv/zAOYOMGP924jLkS6ZnR/XA3ktXsfVMrPpc+p/49Gz8fdXO0qdM7tjSwqxe+3Q5ORPy5WRrhRDvkhFu3Q3ScrTYczEe8geNCSLIZ6IABShAAQpQgAIUaN4CDR5sO9jbYfWqtcjPz68gHRMTix+XrVaBtsy8ciUewW3bVCjHExSoTCBdo0V+YRGytPnQ5JedBr3lVEypYLtswDUw1A8ze7WDtVi+sP38FXy18ySKiovxz3G98Ma6fQjydMFjQ7vi8R+2oqOaNuyG1YerD9q/3HUCr4wXPyqdiEKwCMIC3Z3x2i979c0e0SEQd4sRVmsx+r35VDS+3n1K3fPuiDAMuT5S+d9NhzBQjPB2a+WNf/92QAR1Gfrr5UFYSzfMEu3+1/oDyM6r+N9TmcLVfGjj5YJnR/ZQJfKE34Lv/9CXfnViH8SlZaNPGx98teukcArD9nNxWLL7/9k7E/ioqrP/P0D2hQRCQghrwr4GCKsCsiMILn21oqUq1GrfVq11b+2mrW31bf+tSl3rArgjShURQfZ9X8IeloQlrAGy7+H//E5yh0mYmUzCTBb4PZ/PzNy599xzz/3eifI7z3J2mzYIZ35kZB8T9p106oK8vGSrZGjINKxN01D55ag+0iI8WM5l55nwd0v0mwYu3ho2aGDOHaxh2PtPnZeXFmwyzxWnOHteOIawbXj//X195FRGtryzapfsOXFObuvTQW5UD3+UCt88/W0M71TqDX59+Q4Trh6o7R8d3Ud6tWpmrrPh8CnBMyxSHjBX1zQNqvGGSALwwXMEn+lLt8uB0xdMT7+fOEjDw4PN7/j/vttsvPHg+Yj+BmH4ffvmN5QCnZTMLONtDvCNBEiABEiABEiABEigzhLwuthOTCz9R3pgYIBDCPBoW9ayZQs5dbru521a4+Vn7RJ4bdkOM4C9J89dNhCImfPZ+Ub4QpBbhpDyu1TgPjNntWTk5csTYxNkYq9Y+Urzohs2bCBNgwOMxzJAxRiEWisVPPkVhLzVl/3nvpPnZWdqmozv0U76tYuWD9bvMRMBaAMP6O0JHVV8r9Pc8kIVXL2NEJy/M1k94Qdk/s7DRqjfpJ7xo+cz5fXl2+V0Ro599+Y+ntSxPvf1+isS2ugUIv7JOStN/zOmjit3nRgNy/9w3V5zjRt0UuJhFXtvTRltxDbC5H8zYYD8feFmwf0in/xhnZR44ZsNpo+fDu0pi3Qi4Tu9r9BAP7mtdwcTWm8J2HIXqvCla4um8sev1spHG/bKz4b1Mhxnb04SV8+rkT6vR0f3lac+XynJek9o269tcyO2kYe+eO8RQRg5xj1nS5K5opWbjrHnadj3Pe9+Z/bf0ru9NAsJlJPq7Xd1zQrDrtJXsNpx/KyZ0MGEzG/G95effbDECOh/LNosvjpOpCNgbFuPntZc+mRb//b53/Z54rYG3CABEiABEiABEiABEqhzBC4lmdby0Jo0DZdevXrI5k1ba3kkvPzVQmCxCr+x3dqUu52RXdoYYY1CU8UlF9VjfdB4MdHohHp0o0KDpJ3mW0Pc4DMyNFDzcLPL9eHsC7y/8FRHqGCHZ92y4Z1by/L9x0wxt7NZuTJvx2HBPhjye+EZLiopMYLxcxWYO4+nlfPUQ/w9qyL3b+rthRi/UsN945qWR7pif4dVuB47l6XXypJcLZyWV1QkAb6NJL5VpCSpJxZCGzZPJyj6tI4yIhHf/XwaSrZGGVzUbfQNHu4IbZyLCZOTOsGAcHyI7O4tI7BboxOcPy94w0v0XiCaYQjvnlOWNoD8aYwBXm28rPu1xgNhm6PRAWCByRhwh9CGubqmaVCNN3+fRoK8a6vYHTza4Ns9pqnpDdwwRnjcEfmA38/uE2nVuBJPIQESIAESIAESIAESqCsEvO7ZdudGQ0KCZdKk8bJ0yQo5f740rNKd89iGBFwRWKP5s/dc100W7j5ia9ZcxTSKccGLDIM3G4ILBlENsd1UK2MvVrHdp02kRIUESaqbYvuoVkPfo6Jxw6GTJkTcdKpvUSrYl+y7VLX60Nl0I+Kt49Znono9K1ojFZSPj0kQCEts15QhrN4y8Gmg10a17T6tI2X6XSOsQ5KvQrxJUICczsyRdzWE+yH13v5ieLwcTkuXb3RSYdWBVFtbVxvWM0CblHMZ0iW6VIS6el4Qye+s2ikv/mCI6Rrh559s3CeoEl6Zfb3jkOH66QMT5PiFLFmvz+yTTfvlot63q2tW1q+z4/hdIc/bnl2Ifg8LLC3iZ52HcHErtNzax08SIAESIAESIAESIIH6SaDWxXZwcJDc9oNJsnbNBjlwwDtLHNXPR8NRXymBAvVubtflpFCt3DKEjs/SfOml+y55nq1jyFVGPjPsiAq+WzW0uLGGQ8Pb6q7BE5xTIew8Q5cliwgOtHWBbSxV5papvkYOb1TjQHliXII89NFSFbiXUi/c6sNDjTI0R36ditKXFzuOPtmnYhf53/DOosI4JgkgfN2NDLCGGa4CFM8O5up54TjC1vHCOch1/53m3d/33kIccmnwIv9Bw9Z9GjaU1k1D5H4NgR+jqQcLd6dUek2XHTs5mK6/u7NZefKQXX68w6aX5jgcHuZOEiABEiABEiABEiCB+kOgVsPIg7R42q23TZQ1q9dLUtLB+kONI603BJC3i+JklqFy+NCOMcZTi30Q4iPKQrohCpE7nKaiCOHdyNuGp9Pey2v1U5VPrB+Nwl/wTsOwZJS7a0rD44vQcYwb5/x0aI+qXNqjbZGT3kPDu4P9SpcKg7fWWpoMYdnIhUe4NLyzibr+NCYUEB7vjsVpUTrLb48q8laouqvnBU/7zZrfDLugEwE7jp8xYe9WP9iPAnCODHnRqBqO8WGt9uMa0o3iYzBX13TUlzv7IO5R1M5aog4iH0X4/JSXJ2z48OHyhz/8QXx0LW4aCZAACZAACZAACZBA3SDg9X+Zxcf3kISE3qLqRvz9/WTatCnmzmfPnitt27aR8PAwueGG683LQvLf/86XtLTLi15Zx/lJAu4S2KX5z8V2IdFYBgsVqF+7e4SpQg0BjArksFMaCo3Q8TeWJ5rvENlOtJo57u4bQqnjNfwaa1/D84287b9+u9Gc/sN+nUzOeExYiDyjy3Qh/3i1Vv/+WMOhK9p/Vu6U6Tru/u2ay8bkUxUPu/0dwvaxsX1Ne4g99Al7/LMV5tPZG5a2+kCLp/3zzhskLTvXhEC/odW9YQjpRm73v/QY7g/VwdcdPuF2VADC0J/U++8QGW4E++/+u8b06+p5oRo9Kse/qmHtyMHH5MisdXtMzrg5Wd82Jp80FcCvL1sT+60ViYICY8c05B/F3qyCaahovzLpeKXXRLTDaK0DEKr/LfPXPPZuWq1+v+awv7Jkm6lc/7/De4mvCunmYUGGK356VrX3l7/fKo+N6StYqxueeHjkLQ8+cvJjwkNMbrz1PN7TKvmbU9x7zoMGDZL8/Hwp0mdAIwESIAESIAESIAESqBsEGsTGxl4TgYt33HmrzP50bo1S79i5nSTtS76qr1kb9+gJoPDEQmiiMFVNGby+uC6EXX025G+HBfgZb7Kj+0AeMkLOq/MfFmfnunpeGE9jHQ/Ed1UtWJfjguC1r1hv9eHqmlab6nyae1SvP6ImPGVvv/22vPzyy7Jz505Pdcl+SIAESIAESIAESIAEqkEgJiZGUlNL6xZ53bNdjfHxFBLwOgGIK0cCy5sXRq51beVbe/K+IBIRtu3MqiN6rb6cnevqeWE8zs6z+nX26WqyxdU1nfXnzv7qjtVZ35hs2LVrF4W2M0DcTwIkQAIkQAIkQAK1RKBWc7Zr6Z55WRIgARK4aghgsuFf//rXVXM/vBESIAESIAESIAESuFoIUGxfLU+S90ECJEACJEACJEACJEACJEACJFBnCFBs15lHwYGQAAmQAAmQAAmQAAmQAAmQAAlcLQQotq+WJ8n7IAESIAESIAESIAESIAESIAESqDMEKLbrzKPgQEiABEiABEiABEiABEiABEiABK4WAhTbV8uT5H2QAAmQAAmQAAmQAAmQAAmQAAnUGQJ1Qmz7+PhIUFBgnYHCgdQPAv3bNZdmIYHSPSZC2jQNrR+DruYoJ8XH1cg9tm4SKr1bR1ZzlM5P6xzdRDo1b+K8wRUcwXrYjQP9nPYQqmtwN3ByNNDPR3waOv7PYKOGDQRro1fVcK0QXb/bkeFaTYICBH3XhOHeh3SIMdcb261tTVyS1yABEiABEiABEiABEigjUCPrbLdsFSPjxo0SX19fefONd23wsT7siJHDJC6uneTn50tD/YfoN/O+k7Nn02xtuEECzgiM7tpG5u04LBDdR85lmpeztlXZ/9ubBsrcrQdkZ2rd+B1CliW0iZKT6dkeu0dnPDo2DzeTF9uOnnHWpFr7++r4i0suyv5T56t1vrOTfjKkh4zt1kbX2S4Q/c+JPD9vvRzV3wIsLjJMnh7XT3ILi1SM+8s7q3bK6gOp5hjE8LM3DZBQfz8J8PWR1QdT5b3Vu8wxHxXvT45NkFY68VBUUiJZ+YXy8vdb5XRmjjnu6m1kl9by40FdJSOvQDAJ8Nf5G+Xo+dLxjO/RTqYM6iLnsvMlUieJ3lixQ5btO+aqO9uxni2byRM6pgDfRnLnW/Nt+zHJMGvajXI+J8+277/bDsmX+vuFhQf5y8RecbIh+ZTcNaCzLNydYmvHDRIgARIgARIgARIgAe8S8LrYjmsfK0OHDpYF3y6SSTdPKHc3AQEBkp+XL+/8Z6ZgrdhBg/rL4OsGyNdffVuuHb+QQE0S8GlUM15Hd+/pojb849fr3G1+zbSDBz6+VTOZ8s4CKSwukR8N7CLTru8uz5WxgmD+1+KtsufEOWkaHCD/uvMGwSRCtopnCOKtR87IZ5v2G8/2C7ddJwlto2RzymkZ2bm1CvcG8ouPlhiWP+zXSe7o11H+vXS7S7bwWN8zuKs88skyyVDx30cnGH41po889tkK41lvERYsv/hwqVzIzZdeOu7fTRwoy/cfN//tc9XxoLgWcr9OKry4YJP8YdLAck2D/Xwl8fhZ+e3cNeX28wsJkAAJkAAJkAAJkEDtE/C62A7W8PAvv/haCgsLL7vb3NxcWb36kojIzs6WSGl2WTvuIAFHBNJVtEBkwfMI76VlEDnwdseouEHoMrx5s9btMZ7Vh0bEy+K9R40AQ3uEEf9eRc9vvlgtT93YTzpEhZvz2kU0lvzCYtPlo58tl9yC0v5bNQmRP91ynby1MlHWHjxhXVIC1Tv66Og+RkRhPBsOn5L31uySIh0fbFinlkYM+jVqJCsPHJf3V++WEp1gmty/s4zo3Mq0+ceiLTKsY0sj0l76bpOkpGXIv+8eqWKwVPz/9duNkqz7LIN39pej+ghCtM9l58l0FYMHTl8whysbj9WHo8+GKjTR7+D2LYwn+iUVebgnWGfl+Qtl2LxxkOxQkffK4m2SqV5cGLyoj+p53TSs//iFLHlVjx06m26O2b9ByD4ysrfs0siB7/ccMYcglCf0bGee54HT6fL6su2SpvfkyiCcH5+9wpyDdhCdGDOsZXiIvjewPWfw2X70rPldwJt8vYZW/7xMTMN7jXFc3z7GiG1/9R6fsfNiw6PdUp97ZTYoLlqf+0kjtNF265HThkeECn3cy7tlnnMcw3gaQILrb6Aya6pcn527utxv3DonWH8DFn9rn/1nsd7bhZx8vY7oGHLtD3GbBEiABEiABEiABEjAywS8LrYTE3ebWwgMDHB6K23btpbIqGbSqVMHWfz9cqfteIAE7Am8tmyH+br35Dn73RKkwneAiu1n1dsHQfvshAFGREGM7VYvJ8LP4e2EDVGBdfhsBrSITF+yXRqpV/vX4/trGPlB2VPWb16Z0EZ7hELn6PfColIRjX0w5FTnFRXLPe9+Z77f0ru9ySdH6HfbiFC5S0X1M3NWa3hxvgkHntgrVr7afkjmbjsg83celucmDZabesaakOPXl2+X0xmlIcu//mIVNKOZEKiYP/ywClYI3hfmbzCTBL/Rcf/sgyVSUFzscjxmgC7eurZoKn/8aq18tGGv/GxYL0H48+zNSSZ/+bc6MfGKeoshlOHx/fnwXsbjiu4w2bDv5Hl5UScK+raOkt+rF/b+Gd+bUGzrcpg2+JW2w+SFJbS7RDeVoTrJ8OCsxUbUQzAjnD3t0EnTZ4fIcOt085mvnCGyYZhssQyh1tZkQ0RIgJwrC60e0C5aOZ0x3yF8MZmAXGZ4n3GvZ7NyTWh3Uz0HtkK9zZh4wf3lFBRqznNLM7liXcfZJ7znCBGHtxn9bko5ZUQ19lsTBx11Mqe9vkZ3bW3C2iuX2qK/j2RzSUd56Zhwgaf+joSOZmIJExDzEw+b3zNOSr2QLX9bsNGc/8TsleaTbyRAAiRAAiRAAiRAAjVDwOti253b6Ny5oxHbOTm5kp1deV6kO32yzbVNYP+pC3KqTLCuSko1IcIQ22s0N/fewd0EebnwOg/XHNt3Vu40sLJVWMGwHwIGYqyinVDxbIUX2x9Dfi6EGcQ4BP7nKk4tG9mljRHWVl7tlyrkHxjWw+zLU+85XvCuwmtt5dpa5yL3F1ZUXF6WQXh3axEh8HbDIDKPns/SfOumslUFl6vxmBNcvGHy4mQZO4jsyQM6GbHdp02kircs2aj5vzDc44f3jzdh2BhP71aR8hfNUS5QMYwc6Dv7d1Ivd1PZceys7WrwikPsvrG8dKIEB2xjLfPy2kcMwBuM4/bmyBmMwm6YrHjy81JBGaQRCyXKFEL3jzcPMmH48PIikgF5zxfL5OhjY/rKehX1m1UYB2lNCRiiJJD3PVwjDvA7wO8CnmjLbujUykxu4PsFFfRztpTmRwepyMZ3RFU8qWL99jfmSfHF0mta58Yro/6xzbWAmp8tt9w6higHeKphe3UyCAwrM0RKoEAgJpHw3G/v20H8fBrq7+hgZafyOAmQAAmQAAmQAAmQgJcJ1AmxvXBhaW5kn77xMnrMcJn75Twv3za7v9oJQPBaBg9ndHiw+Qphu+3YGenXtrkJkQ5VceMo1Nk6193Pr3ccksfHJMinD0wwIdQQcJ9oPjBqETQPDTKeW4hBWEMNC4cor2iYDHDXorTP0ABfmX7XCNspIfo9TAuBwVyNx3aCkw37saWcyxB4nmGRes1DZy6FhSO0PE29whC0ELHHVIhDaFsGrhinZbh/hP6fzcqzeV5xDIXo9qpH/P37xpqQZ3CYqWH/mOxAqLUJt7Y6wWeD8uzgxUb+M3KqEb4Oy8orVJHeyIjkqe8v1OJmuQLPN8YLr7rV61OfrzKTJBDBWfmlExuTdZIA0QE//7D0v0tIAXhcRfnv/rvW9O2n4j9QBTssT6MoLMP5uOaKpONG/OI6+G6F4KPd51uSzKu9Fm/7y23Xm0gIeOphmASw+q04wWAaOHjbkHxSi5+dtB0p1L5u0qgJim0bEm6QAAmQAAmQAAmQQK0RuPQvxVobwqULpyQfkQED+l7awS0S8AKBxZqfC+GHvOMlmr/tCYMw/IOGXmNpp9ZNQ+T+oT1ljHpDkS+O0PFZa/fI0n2euRbGm659QrQ+9PFSh8N3NR6HJzjZGa7i3RLQmXqPESpYLcO9QtwjZxieeYhuhIlbUjgiONBU5bbaI/T87ws3y0u3D5Fx3dvKd7tSzCFMSLy1IlHe1heeCapnP6D80Pa+67rZvMhWPxiPFUaOa75w6/UmJ9/eEwxxHRlaupygFeEQpd/hMcb44KmO0IrgCCGHoS3OgUF4z1hbmv6C7/DkwwNu3dsi/f3gVdHO6PnwMmOix6pcjrB16xr27Q/qpEWxtovWugLIzYe9v+bSNe3bVmUbEx6Y+KCRAAmQAAmQAAmQAAnUPoHy8Zk1PJ6uXTtL7949bVdtr5XL09LK59/aDnKDBDxEIFHDmlEAbZSGkC91sPRSQYV8bPvLIh8XArC0ANelI8jZjlahCNGJHPDjGtIN7ygMFa6HdowxFa7xfWBstBZFa43NahvENMKbrbWrIXxRdMyvbF1oV+Op7KJxzcKMsEQ7LGWFPGwYPNA9W0YIQrRhfbV69xFd1gph1+dVvGJMPcrEOPKLkXdtn0+PMHkI0b8v3GKqdqM6NyxBowxQ1A4iGOHr+3R5MEvgv6z54Q/rhIL9yxLaKMiGYnUQxivVm2xvELvIrYdwhkFM99Cxb9GiZbA1WtwOuegwpBQgjx8pBjCI8+s0l98yFE47nZFrm0Sw9lf8RHG0fhpCjnHBUEUcOdPg0lZ/b8hpRwg9DDndKGJ3KiPbfK/uGwq9IV8bhsJzCHFHlIC7hnOee+45GTFihLunsB0JkAAJkAAJkAAJkICbBLzuAomP7yEJCb3xL0Hx1zzFadOmmKHNnj1Xjhw5JjeOHy09emoOrY+PqVj+7fxFbg6dzUigegQg6lapsIpVAYSw5oq2eO8RmTaku024Ig/YqkYeo+HoEDcQhVbIMs4/pjm+v9FCbBB4MIQOWwJwvYowLPX02t0jzH4ILhQ1g6EIF8KUY8JC5BnN80WRtdWaY/7xxn3m+CuTh5uwcwjTJ8clmONvLk80lbex9jM8rpkavgwPNLytlkh1NR7TsYs3CFXkHKMwGXKxf/ff0mWl4KGF9/U/944xghTFubCONAxM/6nV1J/WIm3pWv0aHuo3tIAdhGZFQ9G4Wev2mkJxYHtcBfvDWsX8x7oGNfhh4uCVJVsrnnbZd4jZlvo8HhzW07ysBogwSEnLlH9+r+PR+8CzgwceBfWsqvUfa/E3rLM9XZ8JRO8qXX/byi1HFflnbuwvM6aOMyHmCAX/x6LNVvdOP5Ffj7W6scQY1v1GuDly2GGYfEF4/n/uGW3usUmwv/z9u80mX99ph2UH4Om/PaGDCX0H8/enjjVHwG7n8TSt4h5rJkWQM45nZ+XxV9Yvjrdo0UIGDx4sb731ljvN2YYESIAESIAESIAESKAKBBrExsbi38m1agEB/sYrk5t7qQiRpwd0x523yuxP53q6W5f9dezcTpL2Jbts4+mDNX3Nmr6ep3j9SkXqukMnyi3f5W7fEKBWnm3Fc1DgCoLXvkq21QZ5uPA8o+iWJw1CEkIP4dgVzdV4Krat+N30q5MRFXvFZAE812ZJqYon6Xd4diE2HY3HQXPbLsNHha1VqM524Ao3MBGBSZWK94FuXfGBBx9C29GEjKshwVvcWKudOzoPvx0IZoSxOxqPq35dHUN1dfC2zw931d46NmzYMJk4caI89dRT1i5+kgAJkAAJkAAJkAAJXAGBmJgYSU0tjZj0umfbnXHmaf4pjQRqggDCrvHqomtTYx3o6pgzoY2+XAlpCHBHIrw6Y7A/x5Gos447Gg888CjQZW8If8fSW/bmrF+EgjsT2jjf1TH7/itue4vPBQfRC9a1HfGxjpVGKZRGKlj73PmE6HXGDr8dV78fd/p31MbVWtuO2lv7MDHw6aefWl/5SQIkQAIkQAIkQAIk4EECdUJse/B+2BUJuCQAoZhfVCS/1TW4ITCvRXtpwSZkdZQzT3pZy3XML3WawPLly+v0+Dg4EiABEiABEiABEqjPBCi26/PT49irTADrUeN1Ldu1OslwLT9z3jsJkAAJkAAJkAAJkEDNE6jVauQ1f7u8IgmQAAmQAAmQAAmQAAmQAAmQAAl4nwDFtvcZ8wokQAIkQAIkQAIkQAIkQAIkQALXGAGK7WvsgfN2SYAESIAESIAESIAESIAESIAEvE+AYtv7jHkFEiABEiABEiABEiABEiABEiCBa4wAxfY19sCvptvt3665NAsJlO4xEdKmaehlt4b1oLFWsrvmp2sqj+ve1t3mbrfroeO7rU978+rVqpnb51kNA/UeqnIf1nnufraLaCw9W1Z9XO727247rBV9e0JHj97rhB7tzOWHd2rl0X7dvSe2IwESIAESIAESIAESuHYJuK9EroBRy1YxMm7cKPH19ZU333jXYU+DBveXfv36ypdffi3Hj5UuAu6wIXeSQBmB0V3byLwdhwWi+8i5TPPCId9GDeWJsQnSWgV4cclF8fdpJNOXbpMdx866ZOfv20juHtBFvtuV4rJdVQ9m5hfIifQc6d06UlqEBVc6Dvv+77uumwyKa2GW6lqx/7h8uH6v/WGn21hLu2fLiHJrOn+x5YB8tf3QZed0bdHUsEo87prPZSdWcUdss8bywLCe8usvVjs8M8TfVxLaRsny/cekdI1rh82qtHPK4K4yf2ey3KKTHbtPnPNYv1UaBBuTAAmQAAmQAAmQAAlckwS8Lrbj2sfK0KGDZcG3i2TSzRMcQg4NDZG2bVqryD4uwgV/HTLiTvcJDO/cSgqKSuTnHy4xJ8Hr3adNVJVErvtXq7xlSlqm4BUa4Csdo8IrP6GsRdPgABnRubXc9/5C8WnYQAa0i3b7XDR8bdkOWZmkf1N1xHwaug6kOZGe7VSI15Fb4DBIgARIgARIgARIgARIwG0CXhfbwUGB8uUXX0thYaHTQQ1RMb56zXpJSOjttA0PkEBFAum5+VJYXCJZ+YWSW1hkO9xDQ6KPns+0fbf3emMnwrr/d3i8NA70k03Jp4zXGx5wy340sIvc0ru9bEw+Ke+u3iVpWXnmUHiQvzw6qo900/OPX8iSVxdvk0Nn082xRiqG7x/SQ27QcGV4ZT9Yt0eWqYf2SizP7p5wn6sPeibiA+H1Px/eS4bpWPefOi/bjp6xDXNIhxiJCQ+RzzbtN/tGdmktjTW8e+62g+Z7REiA/Gp0X2kfGSZJul75q0u2yZnMXHOsX9vm8tNhPTRc21fWHzoh763ZLdn6bBDm/8jI3hIW6C+IHnhzyijTfvHeo+Y6cdrX0+P6mX0Fep8Pf7zUbFtvY7u1lckDOoufRix8v+eIzFy7R0ouXpRgvc7vJg4UeOQdPS+cf7ZsbOez86T4YonVJT9JgARIgARIgARIgARIwOsEXLuaPHD5xMTdkpFxSfhU7LJlyxbSqGEjOXa07njgKo6R3+smAXhu9548ZwTb6gOXhCiE3g/6dJD/6dtBhWNwucEj9/mJcQnyj4Wb5SfvL1KxXizXtY+xtQkL8pOdx9Pk3ne/k/zCYrmxezvbsUdH95F9Kk7vfe87+XxTkvx+0kD1OJf+Cd2q4jwyNEgeUqH4twUb5R4N/0YY+5UYRPvuE2kysVesrRuI+ga2b643mujkAMLWrVegb+ncWrzmjXfR0PFn5qySv3270Yhhq6cQFdY4zzLkUWOSwTKE5y/bd0x+9J8F5vOOhE7WIYEw/8v8DfKTGYs0lL+R8crj4L6T5+XJOSvl/xZukgMq0LGN11fbSwV8SlqGbV+rJiG2/rCBSADkcf9p3jp59NPlRuTfWJZX31BZdGnRxOnzwvmPfLIMH/L8vPW2SROzg28kQAIkQAIkQAIkQAIk4GUCXhfbrsbfQD1sQ4YMlpUr17hqxmMkUCUCaw6eMB7XXq0i5V93Djee1A5l4dv9NL97+9GzxiNdoEL79Qqh1pl5hbL92BnjKV+gudvIIYbBi9pb+5ujec+5KoLhZc7ILVAvd1NzfLiGe0M8nlMPKgTlWj1+Q6eW5lh13yA8Y5uFmUkDhMIjt/qzB2+SSfFxbnX5w36d5PlbBtteVhG07prLvWBnimGAqIDNKafc6g+iu3njYONdhmd5iXqmX1+23XbuS99tMuHyBUXF5tiA2ObmWFFJiWGFa1nbYJenkxkwRBXgO14VDVyRw334bIaczco1OfrYZ5mz52Ud5ycJkAAJkAAJkAAJkAAJ1BYBr4eRu7qx7t27yPHUE5KenuGqGY+RQJUJQAzjhWJpk/t3NuHf8DpHhQRJel6+rb9LweOlu0rswsnP5+RJiL+fOdAsNFCOaeg4hKRlCCGPUm82LFKPHzxTGlKO79iO14JoV2IoJoaCaAjFfkrDrD9Yv0e+3Oq4yJmj67y5ItFhznaXaBXtZWHiOM8+hN5RP9Y+3GuGhu7bmz0/VFpHjjlCzBFBcLoshNu+fVW3o5Trkn2XCreBOVhb5ux5Wcf5SQIkQAIkQAIkQAIkQAK1RaBWPdvxvXtKRNOmMn78GPOKjGwmAwf1kw4d3PPc1RY0Xrf+EECu8/zEw9I8rFQUZ+QVSIBWJ6+qZep5KFhmH8IdERwo6A+G4800n9kyLEmW6cBTax1357NTVBNJ1ArqW46clk3qfX5gaE9JVg/vlRomDOxDw+37K1JeqN7uyHCv/j6O5+cQTo989nk7DskvNXT7H4u2OOqiyvtwTXC2DNtgTSMBEiABEiABEiABEiCBuk6gVsX20iUrZNu2HbJ7917zysrKluTkI3LmzCVPVl0HyPHVPQJP39hPi39dCuEeGBstaw6cMANFMa14DQf3KxOUWI5rVNdLYcnO7gYFthDmjOJrMBRX69g83OSM4zuKjA3pUHpNCM9BcdHlCo+hTVXtdGaO9Gpder2vVcQGaM51ExX8V2p7NYd6aMeWWiuhdOoABcosAx/co3XMfv3y0xk5Zr+VVw3BPu367ubUYF22CznUCPeGt7ulFlmraIVaIb6qBq6D27cQFHWDoYCbfUG3qvZXsf3UqVNl2rRpFXfzOwmQAAmQAAmQAAmQAAlcMQHHbqor7vZSB/HxPUqrjOs/lv01JHfatCnm4OzZcyU19eSlhrrVu08vOXXyNMPKy1Hhl6oSmLVurzw+pq+gqjg826gm/u7qnaYbLC81Tz3d0+8aIQgT99NCXi9oUa/KDALyn+qtfXp8f0nPydfc5SB5Q/O9rTzjD/WaWNsaYhBFxrAmNrzRMBRPG92tjYTq7x/VuFHNfL8K3le0krcrQyX0Z/R6t2mxt3N6D6jS/ZcfXC8HT6ebwmmuzsUxVBz/yZBSMYzv1jrb8PQ/HzdYZkwdZyqKn1Qmlp1SQb1DBffb94zRtcGz5YIyyiwtxm4qgL+yZKv89qaBhh2qi7+zqpQrKsOvSkqVf9wxTI/lyzotUheg9zplUBetzF66NvhhLYSWk19k2CNEYNneY/L5liSJ07z0x8b2NUPAJMj0u0eY7cc/WyGrtPAdwvHfnzrW5Mojb/uvWtTNUzZ27FiZOXOmp7pjPyRAAiRAAiRAAiRAAiRgI9AgNjbWPu3SduBq27jjzltl9qdza/S2OnZuJ0n7kq/qa9bGPboLFMINzlurEJf9efDcYomq6oQkw6Obrl7ui1okrKKhejeqmKP4micM40RxNitc3RN9Wn1ALCMH+/K7EJNzXaT56/Y56tZ5+AzXcy9UyN/GfoSgo3gaJjk8aegX+fcosuYpCwsLkxkzZsjkyZMlL69sRsFTnbMfEiABEiABEiABEiCBa5JATEyMOpVTzb173bN9TRLmTdcJAs6EIgaHomDVEdo494J6bp1Zdft01p+p1O2lHGV4o50Zlh1zZY6ENtrn2xWQc3V+VY+hX0/3HR4eLrNmzaLQrurDYHsSIAESIAESIAESIAG3CFBsu4WJjUiABK42AikpKYIXjQRIgARIgARIgARIgAS8QaBWC6R544bYJwmQAAmQAAmQAAmQAAmQAAmQAAnUNgGK7dp+Arw+CZAACZAACZAACZAACZAACZDAVUeAYvuqe6S8IRIgARIgARIgARIgARIgARIggdomQLFd20+A1ycBEiABEiABEiABEiABEiABErjqCFBsX3WPlDdEAiRAAiRAAiRAAiRAAiRAAiRQ2wQotmv7CfD61SbQv11zaRYSKN1jIqRN09Bq9+PJE9tFNJabesZ6skuXfU3o0c4cH96plVkb22VjHiQBEiABEiABEiABEiABEqgxAjUitlu2ipFpP/mxPPizaZfd2JQf3ynTpk2xvSbcNPayNtxBAo4IjO7aRlqEBcvA2Gjp1LyJadKgQQP55KcTJFr329usn9wo0Y2D7Hd5ZbtFeLD0aRPllb4ddTplcFez+5Y+7SXE389RE+4jARIgARIgARIgARIgARKoBQJeX2c7rn2sDB06WBZ8u0gm3Tzhslv08fGRd9/94LL93EEC1SFw8eJF2Xr0tPRtHSnz07NNF/B65xcWycmMnOp0WaVz1h48IXjRSIAESIAESIAESIAESIAErm0CXhfbwUGB8uUXX0thYaFD0hBHNBKoDoH03HwpLC6RrPxCyVUxbdmWlNMyQL3d83cmm13wNG/WfTB/n0by0Ije0j+2uRw/nyWfb0myieMpg7pIWKC/DGgXLZ9s3CejuraWvMJiee7rdeY6f7rlOvl252G5Z3A3CfbzlffW7JIle4+afsdrOPetvdub7Z2pafLqkm1mG2+T+3eWEZ1bme//WLRFhnVsabzfL323SVLSMmRYp5byo4FdxK9RI1l54Li8v3q3lJT9XVzXvoVMu767+Pv6yKmMbHln1S7Zc+Kcre+zmblm+3x2nhRfLLHt5wYJkAAJkAAJkAAJkAAJkEDtEvB6GHli4m7JyMh0eJcI+S0uLpYOHeIE4ePXXT9QfH19HbblThKoSOC1ZTtk78lz8tmm/bL6QKrt8JYjp6VXq2aC3xesT5tIwT5Yl+imkpadK/e8851MX7pNfjaslzQsa9c0KEAFbY788/stcq8K6t/OXSO+jRpKqyYh5twYDRFHePpDHy+V15dvlweG9ZRGDUuvsVhF95NzVhoBHhkaaNpbb3O3HTDHcgqKTD73BZ0kwPmn9VptI0LlLhXjz8xZSjpY1AAAQABJREFULffPXCSRmoM+sVdpzjf6fnR0X/nzNxvkx+8sMAK+W4umVrfm85FPlpnP5+etl7SsvHLH+IUESIAESIAESIAESIAESKD2CHhdbLu6NT8/PwkI8JewsMaSlHRQYmKi5cbxo12dwmMkUCmBNPXyntNXx6hw8WnYULqqwN5x7Kw5b/uxM/L+mt1SoJM8h89myKnMHNPO6jRZ9x09n2n2w6t9TL3fkSGXcr1XJh2XIvWmr9FQ8aRTFySuWZg5taCoWDJyC4yX3erL+kQ/OFZUUiLJ6sn+fHOS7DyeZrzxI7u0ka+2H5LzOeqZLrkoX249aDzdOBeTACW6L0/7hqWkZcqcLQfMNt9IgARIgARIgARIgARIgATqNgGvh5G7uv38/Hz5z9szbU1OnTwtU7VYGrzbzsLObY25QQIuCCBsHN5teIchcK0w80ANx765d5z0atnMhIyjwJqPeq/tTTWxzSCAyxzfZh++W3bkXIZ0UU9z0ukL1q5KPxOPl4p+q2Hz0CAZqmHlVgXzhjpe6xoIkX9n1U558QdDTPP9p86b8PaDZ9Kt0/lJAiRAAiRAAiRAAiRAAiRQRwnUqtiuyCQrK1uKiopUbPtQbFeEw+9VIoCw8Vu1QjfEtpWvjQ7GdGsjELh/mb9RsgsK5c+3Xlelfu0bI7/7yDnHKRL27VxtZ+Tly6y1e2TpvtLc74ptF+05IniF67WQe/67iQPlvvcWVmzG7yRAAiRAAiRAAiRAAiRAAnWMQHmXXg0PDuHj48aNkoYa6gtr3z5WcnJy9FVa9KmGh8PLXUUEEKaNMPI+raNs+dq4PSzNdUA9wxDaCDFvXsXlwNpHloaNNw7wk35tm2vO+PkrooaJgKEdY2z55VjGbETn1qZPjO3m+DizjTzvHcfPSK7mfZdmibt32alTp+qyetPca8xWJEACJEACJEACJEACJEACHiPgdc92fHwPSUjoLYjF9dd1gLGmNmz27LmmcFp+QYHce99d6skuEj8NH1+w4HuP3Rw7unYJICf7wOl06RAVJgftwry/TUyWx8cmyOC4aJNfPW/HYXlkVG956vNVbsFqG9FYPeYdpLuGj3+TeNhUE8eJ47q3lUkqjBGmDi/09LtHyFH1er+4YJP8sF8nk4cdExYiz9zYz+Rgr05KlY+14vn6wydNuPtr2h5V1ZGn/cL8DWYsqLYeqznhr941wuR0B2jfs9btkUuB7JUPeezYsTJz5szKG7IFCZAACZAACZAACZAACZCARwk0iI2Nrcq/3T16caszrLXtp0I8J9t76yDfceetMvvTudYla+SzY+d2krQvuUauZV2kpq9Z09ez7vNKP0PVM52ZV1Clbt65d4w8+flKycpTr3ijBoLq4p4yVD3302XJslVwVzRUVYcnHeK7KhYWFiYzZsyQyZMnS14eK5VXhR3bkgAJkAAJkAAJkAAJkEB1CMTExEhqaulKSV73bLszQORp40UjgZoiUFWhbT8ueM0LSguE2+++om0UQ8PLkWEt+qoKbfQTHh4us2bNotB2BJX7SIAESIAESIAESIAESMDLBOqE2PbyPbJ7EvAIgRlrdzv0PHukcy90kpKSInjRSIAESIAESIAESIAESIAEap4AxXbNM+cV6ymBFfuP19ORc9gkQAIkQAIkQAIkQAIkQAI1TaC0DHhNX5XXIwESIAESIAESIAESIAESIAESIIGrmADF9lX8cHlrJEACJEACJEACJEACJEACJEACtUOAYrt2uPOqJEACJEACJEACJEACJEACJEACVzEBiu2r+OHy1kiABEiABEiABEiABEiABEiABGqHAMV27XDnVT1AoH+75tIsJFC6x0RIm6ahHujRu11gbe/bEzpKkN+luoQ9dOy39WlvXr1aNfPuACr07mg8FZpU6+vA2Gjp17Z5tc51dFJss8bSJbqpNG8cJH3bRDlqwn0kQAIkQAIkQAIkQAIkUOcIXPpXvxeH1rJVjIwbN0p8fX3lzTfevexKkZHNZMyYEbJ6zXpJST5y2XHuIAFHBEZ3bSPzdhwWiO4j5zLNy2r37E0DpGNUuPkaHuQvf/jvOtl+7Ix1uFY+Q/x9JaFtlCzff0xyCkrXlc/ML5AT6TnSu3WktAgLlh3HznpkbL+ZMEB6toyQ/KJLC4Iv12rq763eZevf0XhsB11s/PamgTJ36wHZmZrmsFWn6CZSVFQim1JOOTxe1Z3dWkQInuG+k+dlaKeWsuXI6ap2wfYkQAIkQAIkQAIkQAIkUOMEvC6249rHytChg2XBt4tk0s0TLrvBsLDGcuP40TL/m4WSlnbusuPcQQLVIfDCNxtsp/3tB0Ns27W5cSI9W379xepyQ0hJyxS8QgN8bZMD5RpcwZfXlu2QlUnOlytzNB53LufTqIHLZrPW7nF5nAdJgARIgARIgARIgARI4Fog4HWxHRwUKF9+8bUUFhY65Dls2HWyYcNmCm2HdLjTFYH03HwpLC6RrPxCyS0s9RS7ao9jQzrESEx4iHy2ab9pOrJLa2ms4d1ztx00HvKuLZrKTDux+Jfbrpc/fbNectUTDU/wL0f1kc7quT2XnSfTl26XA6cvmH4m9+8sRTqWkV1bi1+jhvLJxv3y/Z7SKI24yDB5elw/065A2zz88VKz7c4bQqgfGdlHIkICJOnUBXl5yVbJyC1w51SnbSobD0Lb/3d4vDQO9JNNyaf0PrdJcclFefrGftJBowVi1APfLqKx5BeWes0f/Wy54QM23ZQf7Av1fH+3K8U2hkYNG8j9Q3rIDZ1aGa/+B+v2yDL18MP6aGg4ohPQb6fmTWTh7hSZpcdxTRierW9+QykoLpbMK7x30yHfSIAESIAESIAESIAESKAGCHhdbCcm7ja3ERgYcNnthIaGSDMNId+9e5/xbmdlZsnGjVskX0NraSRQGQF4bmF7T7ofERGiwrqJhiRbhrxlhCjD9pw4Jz9XkQnPLGReWxWUDRs0MEISxx8e2Vt2HD8rL8zfYETnb8b3l599sMSIQPQBQfz47BXSSsX8c7cMlhXqVS7QMO6UtAx5cs5KdCEzpo4zn+68+ahoRzj43xduNiHUk+LjzBjsvfau+sF9IjTdsrSsPDNWV+NBPvkT4xLk+a/Xy7HzWXL/0O5yXfsY4yGfvmS7NFKv9q/1vuduPSh7yrjnlYXEv70yUTDm2/t2VE+9n3VZ83lr7/YSGRokD+lEQ9PgAHNfB8+my1EN/w/y9ZEBKrafnbtGSi5elGf1njennJZEZQ1bsveo+cSbp8LsbR1ygwRIgARIgARIgARIgAS8RKBWC6RFRUXKRf3HdfPoKNm/74BERETIhJvcFyNeYsJur1EC8JAfv5Al7ctyvQfFRcvqg6mGhr9PI/XaRsjX2w+Z7/BoH1Ux2j2m1JOLnRCI8IAn6TF4oZEzDYOHFt7oqnqk41tFmr6Qqwybp9fu0zpKfFXQumM/7NdJnlfRb73gJYe5Gk8/Fb3bj56VQyqE4Ul+3S4UPbug0NwDPPjZysq6p1L/sxiPNfbllXm87cc4vHNr+Wr7QRMRAHZrlesNmn9t2X7ldSojR85k5sqqpFST224d4ycJkAAJkAAJkAAJkAAJ1EcCXvdsu4LSWPO1s7OzZc3q9abZiRMn5acP3CcBAQGSl5fn6lQeIwGvEFh1IFUGx7Uw4eGoqm15kaPUK4u86ul3jbBdN0S/hwVe8pKXlIU9o8H5nDwNOy/v3bWd6OYGqm/30cJp9tfMLypSz3yAnM7MqbSXN1ckuszZdtRBVEiQpOfl2w5ZQtq2o5obkaGBcvBMuu1sbMfrvVkGj7Zl55RddPglj7y1n58kQAIkQAIkQAIkQAIkUJ8I1KrYhqC+cP7SP8Bzc/OMyPb186XYrk+/ojo4VoR/WwIOXumLJjBcTF41vjuzdQdPGE/wN4mHzflpmpsNgwA9q2HYCIOuKcvQnPR1h07Ky4u31tQlJSOvQKIaB3r8epnabzMNs4dHHIYl25h/7XHM7JAESIAESIAESIAESKAOEXAvHtVLA049fkLatG0lfn6lHsDWrVtKMYogZWR66Yrs9loggKJnDw7raW4Vxc/aa4EyVN6GIQ+4R8tmgoJdsIrrc19QgYtluW7W/Og1KrwtQ3g0wqhRwAvm07ChFi7rLX4uhLt1bnU/sbRWDw1FD9bJJxi869Ou717d7tw6D3wQvm7dF5YkG6VF3+ytQJf1qqptO3pGi9OVho2DHUL0sc8T1rZtW3nhhRekXbt2nuiOfZAACZAACZAACZAACZCARwh43bMdH99DEhJ6i6in0V/DaqdNm2IGPnv2XElPz5CNG7bI1Gk/UoGdJQFaRG3BgsUeuTF2cu0SWKHrSQ/TfOCXJw83Fa4/2rDP5AKDCPKCUeTs7XvGGAF+QUOWMytkLCBP+6daOfuns74vB/Hl77fKY2P6CtbGDtfw8UVabRwF0CqzuGZh8tjYvqYZROz0u0tD0R//bIWM79FORndrI6H6t+Hvq3nhWgl8v+Zov7Jkm1zIyZcP1u2Vf955g6Rl55qQ9TeWlxaFq+yaro67Gg8mJeapVx+h6wiF92vUyBSEs+9v8d4jMm1Id5sgf/LzlSZX/SGdfOiildqbapg7ogqGd25lipt9seWAfKj3gWJvqAaPInV4Rh5bh7tbNyO0U1JS7IfJbRIgARIgARIgARIgARKoVQINYmNjLyVL1tJQGqgQD9QlwnKyK89Dre4Q77jzVpn96dzqnl6t8zp2bidJ+5KrdW51T6rpa9b09arCBR7hwpISh4IYVbeLNMfaHbFc8ZrI00a4NYr71YTh7yNMBSq87jVl8PwHKT+Ef3vSUKUcS4ah+Jqn7OGHH5Zz587Jhx9+6Kku2Q8JkAAJkAAJkAAJkAAJVItATEyMpKaWFln2umfbnRFCtHhTaLszBra5+ggg7NuZIVS8uob1vWvS8PdRk0Ib94aK5Z4W2ujXG31mZGTIt99+i+5pJEACJEACJEACJEACJFBnCNQJsV1naHAgJEAC9Y7AjBkz6t2YOWASIAESIAESIAESIIGrn0CtFki7+vHyDkmABEiABEiABEiABEiABEiABK5FAhTb1+JT5z2TAAmQAAmQAAmQAAmQAAmQAAl4lQDFtlfxsnMSIAESIAESIAESIAESIAESIIFrkQDF9rX41HnPJEACJEACJEACJEACJEACJEACXiVAse1VvOycBEiABEiABEiABEiABEiABEjgWiRAsX0tPvWr5J77t2suzUICpXtMhLRpGlqlu8J6z7cndNS1pD1bkL9dRGO5qWdslcbiqjHGOaRDjGDd67Hd2rpqymMkQAIkQAIkQAIkQAIkQAJ1iIBnlYaTG2vZKkbGjRslvr6+8uYb79pa9evfRxISekt+foFtX+PGofLeux9IZmaWbR83SMARgdFd28i8HYcFovvIuUzzQruJveJk6nXdJNPud3UqI0eenrPK1k2Iv68ktI2S5fuPSVXW3L4lvr0E+fvIxxv22fqy32gRHix92kTJN4mH7XdXezs8yN/cz4bkU3LXgM6ycHdKtfviiSRAAiRAAiRAAiRAAiRAAjVHwOtiO659rAwdOlgWfLtIJt084bI7W79uk2zblmj2N2kaLrfeehOF9mWUuKOqBJbsOyr/Xrrd6Wkn0rPl11+sdnrc2QGfRg2cHTL71x48IXjRSIAESIAESIAESIAESIAErm0CXhfbwUGB8uUXX0thYeFlpI+kHJOSiyW2/T17dJNdO/favnODBFwRSM/Nl8LiEsnKL5TcwiJXTW3H4iLD5Olx/cz3Aj334Y+X2o5hIyIkQH41uq+013ZJpy/Iq0u2yZnMXLmtTwe5sXtbiWocJHl6reGdWpnzXl++Q7YdPSPje7STW3u3N/t2pqaZ88yXsjeEgE9Wz7Rfo4by/Z4jMnPtHv3tXzRecHjmY8KCpVPzJsZzPWvdHikuuWjOLC4pkQs5+SL6NS07175LbpMACZAACZAACZAACZAACdRhAl4X24mJu83tBwYGXIbh9Okztn2NfBpJ5y6d5KMPZ9v2cYMEXBF4bdkOc3jvyXOXNUMudgsVsJZl5hUYUZ6SliFPzllpds+YOs46bPt8YmyCLN5zVH7/37UyvHMruSOhk7y2bLvM17DwxXuPCMLIfVQwz9mSZM6xQtAX7z0qqw+mSrcWTWVChZztjlHhJj/8T/PWSWZeofxyVG8j3OfvTJYgXx8ZoGL72blrjPh+dsIA2ZxyWhKPnzX9p17Ilr8t2Gi2n5hdOm7bYLlBAiRAAiRAAiRAAiRAAiRQZwl4XWy7e+cdO7SXkydOSnZ2trunsB0JOCUwoF208RRbDb7afki+1hc8xhm5l2oEWMfxifzo5o2DjecZ35eogF6qL1h+UbF5wavtU9Lwsj4K9Dhe8LJXtOGdW5vc8MNnM8wh5Jn/T9+OArEN23/qgiCnHLYqKdXkklti2+zkGwmQAAmQAAmQAAmQAAmQQL0jUGfEds9e3WTTxq31DiAHXDcJLNPCZ65yth2NOio0SEW0hmzbWWkwt92OamxGhQbKkn2lnmqcfuhsukTqPssQTm7ZuZw8idYiazQSIAESIAESIAESIAESIIH6TaBOLP0VEdFUQkNDJTn5SP2mydHXawIZGmru7+P5+Sf0GxF8SVxjG2HtNBIgARIgARIgARIgARIggauXQJ0Q2z16dpPdu/bKRTsP39WLnHdWVwmc1lBurGfdqkmIGSLCyqdd373ccFFUraqGAmqD27eQhg1KK5lj3Wzs84Q10D6fe+45GTFihCe6Yx8kQAIkQAIkQAIkQAIkQAIeIuB5N16FgcXH9zBraYuKAn9/P5k2bYppMXv2XLPEl496Ert06cjCaBW48at3CMQ1C5PHxvY1nftpUb7pd5eK1Mc/W2Fysl9ZslV+e9NAOa/h3GGB/vLOqp3lBrIx+aQWOOsj16tghr21IlF2HDsr47RS+aT4OAnUgmfheh76Paprf7+4YJOsOpAq8a0j5f2pYyW3oEjOZuXKX78tLXpWrvNqfGnRooUMHjxY3nrrrWqczVNIgARIgARIgARIgARIgAS8RaBBbGzspYRRb12lDvR7x523yuxP59boSDp2bidJ+5Kv6mvWxj3WBFAI5gsV8rev9Lr+Ku59tZK5oyJq1e172LBhMnHiRHnqqaeq2wXPIwESIAESIAESIAESIAES8BCBmJgYSU1NNb153bPtoTGzGxKoUQKeFtoYvFXR3JM3gjDyTz/91JNdsi8SIAESIAESIAESIAESIAEPEKDY9gBEdkECtUVg+fLltXVpXpcESIAESIAESIAESIAESMAFgTpRIM3F+HiIBEiABEiABEiABEiABEiABEiABOodAYrtevfIOGASIAESIAESIAESIAESIAESIIG6ToBiu64/IY6PBEiABEiABEiABEiABEiABEig3hGg2K53j4wDJgESIAESIAESIAESIAESIAESqOsEKLbr+hPi+EiABEiABEiABEiABEiABEiABOodgTojtv38/OodPA64dgn0b9dcmoUESveYCGnTNPSywTTQPWG6XjY+LYsJD5aEtlHWV6efk+LjyvXZqGEDua1Pe9vLT9fMdmX92jaXFmHBrpp47NiYrm3ER9fvrsvWObqJdGrepC4P8aoYW7uIxtKzZbNK76Wqv+dKO6xig4p/X1U83WHz0AA/uT2howT5eW6RjQk92plrDe/UyqP9OrwB7iQBEiABEiABErjqCNTIv9BbtoqRaT/5sTz4s2mXARw4sJ/8aMoP5bbbJsqdk38gbdu1uawNd5CAIwKjVWRC0A6Mjb5MyI3t1lY+e/Am+dMtg+Wte0ZL+8gw00VsRJiM6NzaUXe2fRDnCW2ipHnjINu+ixdFTqTnmNcP+3WSAF/XYntk19bSVoVPTdid/TuLn4fENiYU5vxsorw/day8d99Y+dXovgIRc6XWV3n2bh15pd145HxMtrxz75hyExR4Vh/9dHydFlR/vHmQfHT/+HKTRxWBdG3RVAa3b1Fx92Xf3fk9xzZrLH/9wfWXnetqx8RecbbfD35DeL34P0PKneLo76tcAydfKhtPiL+vmUgL1k9P2ZTBXU1Xt+jfRYj/lf8deGpc7IcESIAESIAESKB+EPCcC8DJ/ca1j5WhQwfLgm8XyaSbJ5RrFR4eJt17dJUZ738kxcXFEt2iuYwZM0JmJR8p145fSKAqBKJVJN+j/0h+4vOVkpKWIT3U8/3jQV3lj1+vc6sb1dWXtS1RdbLu0Alz/v/e0Mutfupro4W7U+TNFYnSoEED+cXwXjKmWxv5YsuB+no7l417c8ppOZOZKxN7xsrcbQfN8Z8M6S6zNyVJTkHRZe29sQOTNQ8O6yVHz2e6xdZXJ1PgtT5yLlPaR4XLgdMXrmhY7vyefRpWby52yb6j8u+l252Oz9Hfl9PGdgcqG8+J9Gz59Rer7c7gJgmQAAmQAAmQAAnULgGvi+3goED58ouvpbCw8LI7bdSokeTm5hqhjYNZmVniU0l47mWdcMc1SyA9N18Ki0skK79QcgsviaQhHVvKrtQ0I7QBZ6du42UZhMsfJw0y3nAIy1nr9khxCSSAyL/vHik+GjIO++u3GyVZxbo7Fq7h6k+P7yfwnC/ff6yc93Gyep5HdG5luvnHoi0yTMfXRz29L323yYxxWKeW8qOBXdQ73UhWHjgu76/eLRBDwX6+8ruJAyXx+Fm5pXd72Zh8Ut5dvUvSsvLKDSktO1fgqbS3QF8feXR0H+nVqpnhs+HwKXlvzS4pUl7u2kXt9MCZdOmg4s6yzhoK/osR8cbrv0PH9cribZKZV2AOhwf5y6Oj+kg3ndw4fiFLXtVjh86mW6faPiHiHxnZ2zyj7/eUTqzh/if0bGee54HT6fL6su2Sll3+Pm0deGADLJ6bpJOAu5LN/bVt2lj+NG+9rWdERkweUBoxgDHOXLvHPJMhHWIkJjxEPtu037Qd2aW1NFbPP0R7Zc8rIiRAHhuTIDEajYHf7fzEw+Z52y7qYgOh4XtOnJND+jz6a4qCJbYbKsuf64TIMA1z3n/qvGw7esbWS1RokDwwrKf8+ZvS+2rVJETuVs4vLdhka+NoA2kZeD5IwfDXSYE3p4wyzRbvPWq7b0fnubPP1d8X/i4f1PHCM39aJ0NmrtktW/V+KhtPnEatPD2un7l8gXJ9+OOl5Ybi7FlW9rzQyVkdB+y8/haLL7r/t2NO4hsJkAAJkAAJkMA1T6B6rosqYEtM3C0ZGZkOz0hLOyfn0s7LDcOHSNdunWXkqBtk7ZqNDttyJwlUJPDash2y9+Q5IwBWH0i1HY7UPG4ID2eGkPLXl++QX366zIQ2d2sRYWv66y9WyZNzVkpmfoH4V2Hi5+becXIhJ19+/tES+XrHoXJh7XO3HTB9wmt6k3pTL+gkwevLt8vpjBwNNQ+Vu1SMPzNntdw/c5Fg7BN7xZrxNFTR36VFE9l5PE3uffc7yS8slhu7t7ON1dp4es6qcpMN2I+c2LyiYrlHz/v5h0vkfE6eyW+3znH1CdHcUQV2goo6TBIs2XPUNAeP36r4x+TE1PcXyvHzWUboWX1B3O9T7ve+9518rl7i308aqBMX5f8Tg2mMX2m7Ah2bJbS7RDeVoToB8eCsxXLfewtl8d4j0rH5JYFv9e/Jz30nz5sJmPGak3vXgC7ywfo9RgDjGrh35P7+ad46efTT5SYF4cbubc3lQ1RYN1E+liHEHrxglT2vqdd1l61HTht2M9buNvdcceLE6rfiZz+tTwAhDfGJbcvidTKli4aOP6O/gb/p5BCEqWXI448Ou5QKgcmc5irAKzOwwd/A/y3cZEQ9tvH6antpFEBl5yNnGukd1gvh3Za5+vsCc0we3Ku/gZe/32omBjAxU9l4EL1ijRETCvbm6llW9rzQzyOfLDPdPa8TMe4+K3MC30iABEiABEiABEhACZT/l3AtIDl69Li0j2snnTt3lNDQEDl3zrlIqoXh8ZL1kAByNnNVmDqz/acuyCkVugglXpWUWq5gWoZ6aTNyC9QDXMFV7Kyzsv09YprJJxv3yTn1gB1TEWp5HnE4T8di+iwpMZ7yzzcnGQENb/zILm1UxBwyYhje9S+3HlQvZUvb1TLzCmX7sTNGTC/YlVJurLZGDjbgJcwpKDQee3hRcc2TGmbrjmHy4b7rusnd6tmFWMbkAKxPm0hJVY/1xuRTJtwafV7XPsa0gZewd6tImaPh5rk6qbD6YKq5524xTctdEl5xCKo3dLLDMttYy9zzaw+e0JD9k9Zhl5/wtP9kSA/bCx59dw2CF1EHEcEBsrhsQgHnDtecfkQnHD6bIWezcmXejsNmnzv9unpeKM63vczzjM+KwtBV/8gz36JC/aB6tltoP5aA7d4yQhbsTDERBIjw2JxyylU3bh0r0t8pfq/oz9rGd/yO3bEB7aLlea2VYL1GqPffMld/X8N1Yudj/RtC9AUiSp7SNBBEV1hjcDYe/N1gfHhVtMqepavnVbEvficBEiABEiABEiCBqhJw/1+mVe3ZjfZt2rSSnr26y7vvfmBah4QEa7G0O+U/b7+voeUM2XMDIZs4IICw5tCAS960ik0Qom3ZOfX4Rqt4uRKDt7ZTdLiGhF+K4Ci2u4Z93wgJtzd4GuHVhccbBm+bFdKO7yVl4e3Yhnfa3SJN8K4/riHLnz4wwYR0r1fx+omGPkO8VGZrVCgjZxuG4nMPj4w3ubCROlaEMVsG8ZOmYrSpitVA9WYeUyEOj7VlCCFHKLNluEeE/p/VMHj7USDEf696U9/XgmyIDgCjmeo9dySerL6sT/AKtC9Wh4fhph3V/Oc9GhmxQdnY/yaiQgNlyb5Lzwn3Ean73DFXz2vHsbMaKh8rH2/YZ/LgkergjqEGAYr13Rzf3jQvLCqRviq+V+w/LogKsELacdD+t+NO395os0wnKlzlbDu7Jn4r9s/c/jfi7JzK9lf2LF09r8r65nESIAESIAESIAESqIxArYrtVq1bSopdMbSsrGwNOc+QqKhIOXHiyj00ld08j1+dBOC1Rq6yvSG01VvFryAK4D1GODHEYlUsIy9fZmk+8FItKuVJg2j5w1drjde5ddMQuX9oTxmjXnfkqFfFdmue8K/H9zenZGqfEXbLSsHrjbxeTG7A+wjRDa1riaSI4ECBJ9MyiMu/L9wsL90+RMZpWPZ36qmHYQLgLRX3b+sLohIVrR/Q8aJtZYY8Zryqa/DC59jl+6MfjBljtwzbVl46vK5VSS+w+sDnbI0E+POt18kzmtuPSYt/Ld5qf9jpNsLG9544byY20Ghn6lnB0nIQ25jcsMLYK3aAsQZUIRWi4vk1/R2/WeSI59tN2FzpGFw9yyvtm+eTAAmQAAmQAAmQQGUEajWMPCM9U+I0hLxhWV5nWFhjiYiIkMxM98JdK7s5Hr82CazS/G0sgQTxB0Pu8XM3D/YqDOSVWkuKIUwalaPdMVTGHtoxxlT+Rnt4kq1+3DnfWRvkbMMjChGMcGjkVxdoxf+qGgqCHS4rEgcPdE8NW7bWMYZ39YhW00Y4PApIQSz1KBPjjQP9TN41cuotQ2gwPMh/X7jFVIu31iHH80HBOIj0kzpRgrxvew+5dX5NfSI3GkW68BxhYGAVHoPXHfeIdaphjtZ3NwccvN2v4e5vLk+Uxz5bIdO1Wre9F9dBc9suCOt5GqmAImx4fbh+r0knwAgQEYDICGs8KBZm2enMHN3f0OaVr8pY0Qc86DVpSJcYHFe6bBlytX8+PF7s17OvznhcPUtP3NvUqVNl2rRpnuiKfZAACZAACZAACVyFBLzu2Y6P7yEJCb1F1YT46zql06ZNMRhnz54ru3fvlZYtW8hPH7hPLlxIl/DwxrJs6UrJysq6ClHzlmqKAPJs39dKxv+68waTc4tq0ags7o69Mnm4CeWGEHxyXIIpMgaBBDH9/+4cZrpoEuwvL/5gqKlO/C8t5IT87Pe0SjhyVFH5+OCZ0pxw63pYlxt52DFhIfLMjf1Mn6s1Vxz5qesPnzRe+NfuHmFyZCHwXpi/wTq12p/HNET6NxMG2Lz5CPlemXTcrf5wDxCbEDrIQf9/WkEdZnH9j65RjegB5A3/dX4pVwjlf2q7p9ULnq7efXio39ACdo4EJXLHZ63bK0+MTZAnNS/3uAr2h7WK+Y8HdTHjhcf8lSXueX3NwDz8hsmaeF0THGtEw/ON+7Z+P7hvVGF/+54xuuZ6tkYy5KnX270BoJDXC7ddJ9n6LBDufUB/JzP0d4ocf2eGfHaIe3svf+qFbFMsD0uAoaL583GDZcbUcZKkv8OKefmfaurA/90+VPfnlKusj2Jprn7PGA8mWXLyi2T6XSP0v98iy/Yek8+3JDkbqlv7nf19YRIDOfSIokCFd9RdwO/VftLF2XjimoXJY2P7muvjNztd/5Zgj+ukhqtnaRpd4dvYsWNl5syZV9gLTycBEiABEiABErhaCTSIjY21oj5r7R6xBFhAQIDk5OS4lVNanYHeceetMvvTudU5tdrndOzcTpL2JVf7/OqcWNPXrOnrVYUJvGOoHA2va038yHE95Io7EpiVjRuiCkIBQsyTBtECwYIwd08ZJgTguXYWMo+w5nT1cruTH24/JsNA/1uQrYXd6oIhXBxjwkRFRYN3v0gFs70YrNjG/jva/+OOYfLE7JXm/uCVHq3rl3fWnOvpS7bZN63WNsL5MzQf3tHvHFXJEU7u6D6qdTEvn4TJMfwGPJl/7upZVvd2wsLCZMaMGTJ58mTJy3NzxqW6F+N5JEACJEACJEAC9YZATEyMpKaWrpTkdc+2O1SKNbw1O5uh4+6wYhv3CUDswTNbU4brVUdoY3wQw54UxNY9e1q8o1+EgjsT2jju6hiOOzNvMXB2vcr2I3fYWf5wVfP/Ud0exdyGaoQDPNwQx1hv/b/bDlU2DLeOo/CcM0PudpYHJ1ucXcdT++3z/D3Vp6tnWd1rhIeHy6xZsyi0qwuQ55EACZAACZDANUCgTojta4Azb5EESOAaJoB8+T98tU5zkqPNOtknNBT8nVW7yoV2X8N46uWtp6SkCF40EiABEiABEiABEnBGgGLbGRnuJwESIAEPEkA+NdZRp5EACZAACZAACZAACVwbBGq1Gvm1gZh3SQIkQAIkQAIkQAIkQAIkQAIkcK0RoNi+1p4475cESIAESIAESIAESIAESIAESMDrBCi2vY6YFyABEiABEiABEiABEiABEiABErjWCFBsX2tPnPdLAiRAAiRAAiRAAiRAAiRAAiTgdQJ1Qmw3bNhQAgMDvH6zvMDVRaB/u+bSLCRQusdESJumoZfdHNaDxvrG1bFJ8XEO+6xOX7V5TruIxnJTz1iPD+Fq4eNxMLXUIdY9x5rgdcVCda3s2xM6Vvnvb0KPduYWhndqVeVz68q9cxwkQAIkQAIkQAIkYBGonhKxznbzs2WrGBk3bpT4+vrKm2+8W+6sfv37SEJCb8nIyBQ/Pz9Z8O0iOXXqTLk2/EICjgiM7tpG5u04LBDdR85lmhfaQXQ8MTZBWqsALy65KP4+jWT60m2y49hZR91ctq+B7kloEyWoHo1+66p98tMJZh3oi3LRNsQ3VyTK2oMnbN9bhAdLH72XbxIP2/a5s/HJAxNk8lvzHTatK3zaRoTKq3eNuGwt9V99ukLO51z5+uquGDgEUws7/Ro1kj/ePEgCfBtJuK7d/cbyRNmQfLLSkcQ1C5Ppd4+Q575eJ+sPnxSI9Q+m3ah/J9tl4e4rX84qxN9XEtpGyfL9x6Qqa5JPGdxV5u9Mllv6tJfdJ85V6dxKb5oNSIAESIAESIAESKCGCXhdbMe1j5WhQwcbET3p5gnlbq9Fi2iJj+8h777zgRQWFkpMTLSMu3G0zJzxcbl2/EICVSEwvHMrKSgqkZ9/uMScBq83BKe7YhvS9Y8qQuqD/fKTZXIhN9/pUCG87cW304Z2ByCmfTTaxJnVJT5Yr/rBDxY7G2q191fGoNode/jE69q3kAs5+fLSd5skOizYCG53L4HzxnZra8T2iM6tJSu/0N1Ty7W7vkOM3KCe6LdXJsqZzFxz7IROVP36i9Xl2vELCZAACZAACZAACVxrBLwutoODAuXLL742Yroi3ObRUZKcfNR2LDX1pPj7+0uQnpOTU/qPtorn8DsJWATSVWQWFpcYkZBbWGTtlh4tm8nR85c80vZebzTqoWHn/zs83njzNiWfMl5veMBh/757pApNSC2Rv367UZLTMsw23uCt++WoPtI5uonxpsILeOD0BXN8cv/OUqRjGdm1tfipZ/2Tjfvl+z1HbOe6uuawTi3lRwO76HmNZOWB4/L+6t1ScrF0PLYOqrgxXsNxb+3d3py1MzVNXl2yrVwPjsbTQMPu/62eYn/1kiL8/s0po8w5R89nyZ+/WW+2XfEJD/KXR5VPN+V7/EKWvLp4mxw6m27Oq4xPucF56Eu/ts3lp8N66L34yvpDJ+S9Nbslu0xQOhuPjz47VwwQJfHQiN7SP7a5HFcun29JKjeZAfE77fruytBHTmVkyzurdske9dC21XD+O/t1MqLYur3b+3aU01k5smL/cWtXlT9z8Lsv/bmaSAxEY7hrKecyBM8MHvFhHVvKqgOptlNbqHD/1ei+0kajB3YeT5MP1u0p97eA1IT/0TDx4hL9+8srlP/3/RYj+uMiw+Tpcf1MPwX69/Dwx0ttfWIjIiTA9Nte2yXp3w5+l5ZAx/GzZWL9fHaeFF8swS4aCZAACZAACZAACdRbAl4X24mJuw0cRznZuSqoo7tH2eCFNg41QtvHx1f3UWzbwHDDIYHXlu0w+/eePFfuOITVIyP7GCGwVrdT1ftpGUTkE+MS5Pmv18sxFUv3D+0u17WPkZVJpYLn11+sMuLl9xMHmvBz6zx8Pjyyt+w4flZemL9BOkSFy2/G95effbBECoqLjWiBkHh89gppFR4iz90yWFZonwVFxUa4OrsmQqHvUqH+zJzVkpGXb8LfJ/aKla+2H7K/tNPt5o2DJNAuLx0eRdjivUdl9cFU6daiqUyokLPtisGTc1aa82dOHSfWtjURgQOu+Dw6uo/sO3leXlQva9/WUfL7SQPl/hnfS5EKMog6Z3zMBav5BnEMYWgZeKepUION7NJa/qLP6kR6jvxCJ1fgvZ23o5Srq/FY9+2IQZfoptp/rtzzznfSskmw/HHSYBXyJ83kSCOdpHlUBepTn680whTPFoIfYjtFJ206NQ83DNKy8ow+HtejrTwxu5S3Nf6qfm49cloeGNpTIHIPnUk3/TbUcdg/M1d9LtMw7wdv6CnHdHIkr+jShBUmgL7aflDw9wPv9906GQSWsBj9fWOy4mcfLjaTXS/9zxBTO+GoplzgPi1+M/Q3VNGQ3rF4z1H5/X/XCiJQ7kjoJK8t225r9ohGasCen1c6uWO+8I0ESIAESIAESIAE6ikB57GiNXBDhw4li7/mad98ywTp37+vDLl+kBQUFEhm5iWvZA0Mg5e4ygis0dBpeMx6tYqUf9053HhoIY5h/TS/e/vRs8bjCpH8ugp2S2jjeEZegWTkFqiXurxnGR7Nbi0i5OsyEQyPNjy+3WOa4jRjm1NOS25BkfHYJZ26ID1bRpj9rq45sksbI6yRYwyB9OXWgwKh4649dWM/eV6FvfWyzoPoxH04Cg12NR6cgxfu3tq2vMHo2xmfYPUe91bec7YcMAwg9HF+Nzf4WGOuzmekFsiz7h2fU9WrbBlCq1PSMs2ExxKdfBig3mh7c/a8rPt2xGD7sTPyvnrI8ds5fDZDTmXmSMey3xYK8pXoM8xT9jBcGzwsW7L3mIzo1Np87aq/pSN6HNEZV2IDYqPNZMaTY/uJn/5Gf9i/k3x4/3jbmCrre/m+Y4Iw8MV2URg451ONzICnG7/JRXoMNQwsaxEWJAfPXjBRAvid7dHJrtZNQsxhtLf4We2tT0xwNG8cbCI+ELmBZ/K6ndC22vGTBEiABEiABEiABK4WAl73bLsChTztjz+eI926aQiuelWSkg5KoIaQX7zCEFpX1+Sxa4MAxB5eKJYGLxzCmx/SkNaokCBJVw+yZeUltbX38s+o0CAJDfCV6RpmbVmIfg/TEFzLILQsg3gO8fczX11ds7n2O1RDeK2K4VXxSqLzxz9b4TJn2xqP/aer8di3q8p2s9BA4x2F+LIMIeTgZpkzPtbx6nzCk+8sZ7tXq2bGm42QZXjzT5eFKFvXqc54AjU8/ObecdJLUxXw7OFVh3cdhpSGd1btlBd/MMR833/qvKYT7JOD6nGGLdl7RJ69aaAJPR/RpZURseZANd/w235oRLz5XeP388CwnhrSXWA80AjRdscweYIig4laPBCTMJbFaGG9GzUVobtOCmCiCULesv06kYQJBkw+wRvev220/G3PRuuw00/8FjIqTC5c+otxehoPkAAJkAAJkAAJkEC9JVCrYhvUcnNzZfPm0nzSH/zPzbJtW2K9hcmB1z0CEEDztRI3BBIM4iKqcWCVBwqBflbDfyHYq2quronQ8Vlr98jSfUer2m2127saT3U7zVSuTYMDTBizJaAiggMN7+r2eSXnocAbJlgQ8o/w6i4aTv/jQV2vpEtz7phubQQTJH+Zv1GyCwrlz7deV65PeIHxQh40ivL9TtMR7ntvoWlzMiNHq2sXCpZj66li/U2tHH4lBkEMLzLC0j9Yt1de1HBuPANER1TF3l29y66efemZiBDYePiUzNTfJmoRfPnzSbYu8axnb0rSuge9jHiesXa3rXaBrZGDDfzu/H1q/X85DkbGXSRAAiRAAiRAAiTgHQK1GkZuf0v9+vWR/Px8OXTwsP1ubpNAlQk8raHV9qHYAzXUds2B0uWwEjXnOl7DnS1PXe/WkTJKi5pVZhA1EFedmjcxTSHmHtEcbqsfV+e7uiZCmYd2jBEUJ4NhrMgt9qa5Go91XXsPtbXP1ScKWoERitPBsJRUR81RrphP76oPPLNnbxrgshK6q/PtjwVrMTtECSDUG+K/peYZV9UcMcBSagdUvOO3gN8AcuYtw/bNuj47DBXidxw/Y0Lqy+qXmf0omocie8i1Ri57RbtHl766d3C3irsdfofIRgVy5MIjLPu/2w4aD34z/V4Vg5iuaDFhISbXHMdwX/bV6SM1iqGvLuuF4mfPzl1TLg2jYj/230/rZAPy2luVhZwjrBzF5KpiU6dOlWnTplXlFLYlARIgARIgARIggVoj4HU3A5b2wjraqia00rif/kNpirnZ2bPnam52lhEZgwb3l8jIZmZ5sFojwQtfNQRmqZfv8TF9TYVveLYhSt5dvdPcH8KO56mnG+HgCPVGBXB4Py17ZfJwI9IQHvykFlJD/i08kBCoL3+/VR7TfjPzC4znEh5MR4LM6sv6dHVNrHGMcOfXdM1j5Fcj79d+PFYfVf0c172tTFLhh7BneFmxpjIKWL24YJMWDHPNANfCutz/vPMGE4aPqtuozA5zxeefi7bI01o0Ll2XlIJAe0Pz4SHA3TVMNICnIxHqbh9WO+RCr0pKlX/cMUyfc76s00JfWIt6yqAuxgtstXP16YjBt4nJ8rgW+RocF22eF0KwHxnVW4uirTL517G6fjXW/sZvK0DZz9Iq3panH9dCHjSKtb2q6747sjFd28oH6/c4OnTZPvxe0P9bU0abUPXdJ9J03ez18ow+AxReu5J88Nmb9gvqAaBS+BGtWo5JguduHix/+GqtuW8sp/eR5objWWEJMRQD/HxzkmD97sfG9jVjxUQUfncwpDvk67N9ZclW+a2G0oMPwvARdl8VGzt2rMycObMqp7AtCZAACZAACZAACdQagQaxsbH2/xastYF4+8J33HmrzP50rrcvU67/jp3bSdK+5HL7vP2lpq9Z09erCj/8Y18daZJXeCmP2DofHjYsCYWQ2KoaRAJCYqtaW8DVNZF/i/HaFyOr6riq2t7VeKral317eCzTVWRXlc/rPxpllmHbpUuVecqQbwyvLyZdPGmhAX5OfzuIUmisxx2J3WidhPjNhAFiVd22HxOiAd65d4z8+J0FDn+z9m3tt3GPmKSxX/7O/nh1t9EnJmvgxbc3VM/P1wJxX5QVf0M+/N91UuN36uW2KsHbt3e0jQkgV+vDOzonLCxMZsyYIZMnT5a8vNKK847acR8JkAAJkAAJkAAJ1CaBmJgYSU0tXVLV657t2rxRXvvaJuDK64yqydUR2iDqSES5Q9rVNSEGPS0IKxuTq/FUdq6r4/B0VtUQag3PrCeFNsYAb6o3zNVvB5MMjn4jWNItXtMWvt2Z7HBIEKAfrd9bJaGNjrx1j5ikqCi0cT1MNKGYWrKG6KMqO7z5WGv7XNmSa2hTmVVVaKO/8PBwmTVrFoV2ZXB5nARIgARIgARIoM4QoNiuM4+CAyGBa5cAwmuwXNvVbJjcWLgrRTYmn3J4m0c0zB+vum6YLMBkQlctOocJLVRbf27eunLh8t64h5SUFMGLRgIkQAIkQAIkQAL1hQDFdn15UhwnCZBAvSbgzKNd324KHm/knuNFIwESIAESIAESIAEScE6gzlQjdz5EHiEBEiABEiABEiABEiABEiABEiCB+kWAYrt+PS+OlgRIgARIgARIgARIgARIgARIoB4QoNiuBw+JQyQBEiABEiABEiABEiABEiABEqhfBCi269fz4mhJgARIgARIgARIgARIgARIgATqAYEaE9t+fn7/n73zgK+qPv//AwnZgSxCBiGsECAhBMKWDYIKOGhdXY5au7T1/3N1/Fqr/dlfbX9ttdraYusCq9QBliGiIMjeeyWsAIEA2Xvzfz7fcC43Ibm5Se6NCX4eX+eec893nO95n3Mxz/cZX8HWmHh7ezdWxPMk0CCBkbr8UFiAryREhUqvkMCr6mA5KayJjb0lUUH+khIbbn1tdD9naN86fWJN6tuG9bNtWBPbkYyI7SGR3fwdVWGZiwn4e3eRKfExTvU6eUBP27OMCgpwqk1zK92s71C/7t2uaoY1uj11XfX2IhiP/W/EFePC2tvY6suMwbHm91r/vPX9psTe5hDPp6H2Vj3uSYAESIAESIAESKAjELj6ryEXjxoK9qxZMyQ4JFg6d+4sWVnZsnTJCqmqqjJXGjhogIwdO0pKS8vEQ/8AXb58peTm5Ll4FOzuWiQwfVAvWbr3hEDprr9sEv6o/86ERDmXXyy++kf/bz/aZpYo6hPaTcb2i5Qd6RcaRQLFI6VXuGRqW2spJk3ArH2VmDY/npYsqw6fNsseNdbJ1EEx8nlqhrl+Y3W+iPOYfJj3zWny6Lufy5ncIjMELw8PmfetafK7FTvMWtdfxLiauuavbh4jA8KD5ev/+KjRJaawTvVXhveXz46cbqo7ydY1oct02apbk/vJxcJSOZtXy8K+4TsP3iR3zVtuf8rpY/Trqf/eYVksS2JDu8p/zxplFNsuyvz9nWnynz3HrWK37EMDfOTpm8dKtE4o/L+Fa+VkdoHtOn11IuDJmSOktLJKuiq7f67fLxuczDA+JDpMHpuRIj5dPOROO0ZQkH920yiJCQ4UTFCd0LW4/2fZFtta4KsOn5Kn5ozRax2QdLuxWIP6xthBslyXFrtFJ7YOnsuRkora/09Y5dyTAAmQAAmQAAmQQEci4HbzSsqIZMnNy5dX/zlf/vmPN1Xh7iRJSQmGkZ+/n4xTRfudt98z27rPN8qM66d2JH4cazskENHVT76lf7Q/9t46+dE7a+SFT3fJN8cMcnqkWPP5V0s211kPGcsdbT5+zmwVVTVO99XeKmJ9ZCh4919X+xvE+G5O7muUooPnsttsuHePipdHpg9z6npddBKutyqqmPjoFx7kVJumKu3LyDLPEop2Q4IJFyjLLRFMaIzrH2WUafv2j14/XD7YeVS+8+an8v23Vsn1OiGEuu4SKNi/nTte/rXlsE4c1U4U2V/rcVWWn1+1Sx5RJfwxnXz57sQhAu+ApmRM30j58bRh8tyK7VdV/UpKnJm4uPe1j+Wbr35sFO6bhvSx1cNa4y+t3iMP6kQYhQRIgARIgARIgASudQJut2xv2rjVWKwB8pIqLGfPZkpgYK3bZt++veX4iXRj1Ub5qVNnZPr1U8Tf31+Ki4txikICjRKA4lhZXSNF5ZXGOmdVHB8XLQfOZtssZ/v1GJslUN5+pda1AT2CZeXBdJm/+ZBACYD85WtTVcmqdar9X7WG21sCrfYN7WFVffLGEQLL+drUM3Xccu8aGa/uzT1Nsz98slMm6viGqeX8dx9vN2OcOCBavj56oMDCvO5ohry+4aBAuff36iK/mD1aoBjeopbSbScz5dUNByS7qMw2hJ7BAfLrW8bJvHX7ZNOxc7bzjg6g8P3z3uslPiJYzuQUye2qID3x/npbE3gF3KXKsJdy+vTQKXlz0yEznvBAP3lQFTJYKiG49td03L+7rHT9Use689QFgSKdkVssr208IIfUOgmBlfOHk4ea+y5TSyosvm9vPWLKmvqAFRX9HNc2I9U9/+iFK54vN6rb8TfGDJS8kgp5d3tqna6e+8p4M2lSetk6+qc7JsnjOgFTVdP4ZAncu/9y9xTxVostrLR//8Y00+dp9QKw7rvORRr4Ml4V7c/U86H2jaqtgAmgXqGB8snBU+Y8LLYPv/2ZrfUvZ49R67O/eY9///EOwxChEZgsaqnAqv23tXuNF8c3xwyu0w0UcdG31Ho+OWrp33M6y3iJrDlypk7d+l9C/Lzl54s31PnNWXUW6LsCDyVz7/oOYwInPNDXKjb7C4UlUqG/2+56vv5kR9blyY9cHU/1pcafU50O+YUESIAESIAESIAE2imBlplumnkz1fqHlSXR0VFy/sJF8zVAleqS4hLx9vaS3r17mXNQsgMC/Kzq3JNAowT+umavHM7MkX+rkmXv/tpd47hTz+c22g5xtC+rEvLjhWskOaa7DI4MtdX96Qfr5fH310lheYV4NxGXbWukB7AO55WUyw/+tVqW7D1uFHmrfPHuo6ZPKFiz1MqXp5MEL6/dIxcKSiRWFbC7VRn/yfsb5IE3PxGMfXZSrSUQXiADI4Nlf0a23KNWwvLKarkhobfVrdljkgD9VjbD2g634YVbU+XOEfGC2PStJ87bJibi1HL8VVW+f710s7F4gtUNCbHmWlBEI7pd+W1icqCHKuCWRGiMum8XT7nntZXqZn9K7hk72CoSuPwH+fkYq+4vPtwko/pEGF62Cg4ORmiYwO7TF2WXbji2BM/n3nGD1XNht3mW9WOv8b1zp9qJE7TB5ECdWRCrI7t9lf5bhecPJbdC3cxxjO1Pn+60q+X4cHBUiJkYsK+F3AJwqW5M0f/DJzvkSX33YlTBxjPZdfqCKsr77Lto9vHeM1mNhktAEc8pqZ20GdU7wriD43uov0+T14Gb93l9dxsSKNlgaEliVJik2U2OWOePZ+XLoMgQ66ttb00uPLN0S51JJVsFHpAACZAACZAACZBAByLQJsq2xSN+YJz4+flKWuoxc8pLLXc1amXq3TtWbrl1liZQw/dL0sVBIjWrL+5JoDECcIUtVcW0MUk9n2eUBVjV1qedrZMwraCsQgpKK1RhMLa5xrq46jyUine2HRFYCBELbW99LdOxmD71XYel/L0daUaBhtI7dWAv49adq4oOFOdFu44JLN2WFJZVyp4zF40VccWB9DpjRR3EpP9QFfzt6eetJk7tl+0/Ib3DupqY5QVbDtnaTNYEY7DMQzHMKio1MfE456xsUOs6lC1YcPto/1C+IUgWd+BsllE20S/Yw7LpjCChHSzmsIZHqvU34LKrMyzze1Sh3KoWf1xzvXoFuELwrLDhDbCOi9V7wlkJ9fe1KbJWmwCfLgKLPgSTO5gkwGYl0UP/uBZ4wZtg1aHTbo2fh9Ue/30XLg8AAEAASURBVPaGqHKNePiknt31/asx+Q2sMcMj49vjE812Xb8o67TT+8nqzRGkVvB1aVc/F1iunVHsnb4YK5IACZAACZAACZBAOyTgdjdy6557xkTLuHGjZfGipVJdXasIlZWXq8uhh6SmHpWz5zKloqLSfC8vK7eacU8CzSZQqApzoCo3jQlctC2BNS9CFbjWCGynAyKC1DpcaOum2u4atpN6AJdwe4FleIK6lcPiDYE123Jpx3dMPlkChTxAvUBcIVBOl6kFvr9asu2tlHD5XX3kyhhhgXRWKca4LLbYQ4H0UeURkwq4729o3PyWE5kS1S1AE3J5aWxv06EicL/uodvNQ/uZ24YFf7gq30g+NzAixGaRR6E9N1P5C/rAs+9Uz4SOUAeEL0DgNYEJGViwYbHHhIklYGU/UWOdd/W+SCdxkKQNk0P3vb5SLujkB9z1s3UixBIkP/PVDWKN3Sprap/UM8x4Nvz34o0m1KN+/U7qcaC6PYUESIAESIAESIAErmkCbaJsw3V82rRJ8uHiZZKbeyXesrCwSKKjI00sd2FBraISEOAvRUVXZwa+pp8Cb86lBKA84o99e4Elz12ZjaEOI3YcVjy4kjdHCnRiab7GuTqTQbs5/TpTF7HMVjyzVR+WfVhmLcExJi8gUNB9muFab/WB/c5TF2WaupI/qkm5EJf7lLqSV1yedLOvV/8YbuOHz+XalMD9ah3HsmpQtuHmXT8e2L69Nd7mWKXt27f0GJZ7uI0jNtkSxNl3vxwec1oTvWGbphnrr5IrcytXFbnyBJRraxLFmmwBy8OXY+xxrdc3HmzRJROjQ+VHU4fJL/+zSTIayPKOTsEnNbPxUI8WXZiNSIAESIAESIAESKCdEXC7G3lUVIRN0c7JqfvH1Ynj6epC3su4loNL334az5qXZ0uY1s5YcTgdhMB6Xb4I8aBwkYWkqHKG5Y/cKUdUcbDWeEacMLJnOyNYgmxCXJTA0gcZrbHMVj/OtEcSNbgj1ya8cqaF4zqwtGJpNCvWGcm+cA4C5dFDM3RbSlpDa5s31jvWTT6prulYfurZ5VsFFnNnBIr1UrXAL959zGxvaWZtuJWD1hGNyx+p8cZWBm0sZWUvsKYP1Zh8CGKUMeHSHIEy3xLZq27/8erpYC+wXpfpcodIjAcBw4Zilu3b1D9GFvBbLlv465c19zueJSafhqr7OATjgZIMd/3WCFzkH56abBRtTCg0JvCosE9a2Fi9+ufvu+8+uf/+++uf5ncSIAESIAESIAESaJcEmvfXZwtuISkpUfzUOjZ37hxb64rKSlkwf6GUlZXJ+vWb5a67viIlus62p1rNli372FaPByTQEgKwLMIq9/ydk0zccVcfL0FmcWfkz3dNNq7ciKV9fGaKWYv575qoCsr0H++caLoI9veW5+ZOMNmSn9dlxeD2+5pmCX/mlrGCTN7HLtbGhFvXu2PEABOHDffpn9wwwvS5QWPF39YYb7hVwwr/169NMVnVoeRCGXVWotQFHtnEM9Wa35gV0dm+UA8TFVBQX79vhrF6g6U9u4WajO73X51glpJyNlM7+j2dW6jLRSUb12m4xp/NL5LFGp+O+29M4LqcqK7N/7dyh60KXM+RKA5LgCGTNmLV599/g4lvru+i/5Em8sISVXDRR5Iue8+GJ3R9aWQHR4b1IT1DTfb1ZbpmO9pYsmzfCfmTvkMYR4a6fdtzsOo0tN98LNO8C1hizd61/cVVu+UJff6wciPTNrJ/W/JzXZsaCd3guv2SvguQ1zQr/Q67WPyZmqgOSuqHe45ZzRzuURfrekMw8fTrW8eZuGyscY04aiR9e1LHA+8GLEGGhINwY29KZif11SR6/Y2rPOLn8a5AkOkdyf2CNRHeb24bZ+sG/X//rdW275ikKdfrYDWB5sqMGTPkzTffbG4z1icBEiABEiABEiCBL4RApz59+rSR42Lj9werno+Pj1q0r8QLNl67ZSW333mrvLtwccsat7BVXHxvSTtysoWtW9asra/Z1tdrDhW8V8Hq2o1kTG3xkuN6iBVHoqvmChQ6L51saonLM7Jyl7fQCtvYONEnxoRY4/qCrORwJ2+orH5d6/uzt12nS5odsGWmhmKJpcK+t2CVVaXFe1i2cf9wG29IWuLe31A/zTl3vbrMR2v28/qu2LDIB6vi25J3Eu8XlqVDyIIrBcvWQfFti98I3vFn1MsE63tn2sWqO3M/3bp1kzfeeEMnZ+8yE7XOtGEdEiABEiABEiABEmhrAlFRUbrc9VlzWbdbtp25Oay/7U5F25kxsM61RwDvFRJAtZXgei1RtDE+KFAtVaJcrWhjPOizsX6h1BY1U+Er0rhvJILD+tVIzDVKY7G3OrBqYwzOSlMTFM2No3f2uo7qfaIZxWFRj9e13OHubgkU2pa+k3i/KpuZJd+6rqM9lqJrK8EkBNZfb66ijfEFBQXJ/PnzqWi31cPidUiABEiABEiABFpNoF0o262+C3ZAAiTQrgn8efVuo2wjZjm3uFw+VzfmhtZfbtc30czBwQ2dUpdAa5ikp6cLNgoJkAAJkAAJkAAJdBQCVLY7ypPiOEmgAxOA9XmFXTx0B74VDp0ESIAESIAESIAESIAEnCLg9mzkTo2ClUiABEiABEiABEiABEiABEiABEjgGiJAZfsaepi8FRIgARIgARIgARIgARIgARIggfZBgMp2+3gOHAUJkAAJkAAJkAAJkAAJkAAJkMA1RIDK9jX0MHkrJEACJEACJEACJEACJEACJEAC7YNAmynbXl5ego1CAq4iMFKXjwoL8JWEqFDpFRJ4VbeddV1iPy/ncwB66ZJUMxNir+qntScSdXy3DetntqSeYc3qLtDHS8b3jxIPXV95xmDXj61Zg2FlEiABEiABEiABEiABEiABpwk4r4k43WXdilCwZ82aIcEhwdK5c2fJysqWpUtWSFVVlakYEOAvt9wyS4KCu8nCdz4w5XV74DcSaJjAdF2zd+neEwKl+1ROodlQs4tHZ3lsRorEqAJeXXNJvD095KXPdsveM1kNd3T5LNaA/tqogfLxAdcuL1RYXiHn8kskOaa7RHbzb3Ic9oMM8vOW2Ul9ZevJ83L3qHhZedC1Y7O/Fo9JgARIgARIgARIgARIgARcR8DtynbKiGTJzcuXRYuWSie1NN42d7YkJSXIzp17JDg4SObcfKNs2LBZxo4d5bq7Yk9fagKT43tKRVWN/OCt1YYDrN5Y37kpZdtd0NKzCwVboE8XiQsPctdl2C8JkAAJkAAJkAAJkAAJkEA7IuB2ZXvTxq3ioZZGyKVLl+Ts2UwJDAww3/39/WTtmvWSnn6ayrYhwo/mEMgvLZfK6hop0jWcSytrPSXQPjE6TE7nFtq6srd6m3J16/7+5KHS1ddLtqvFGFZvWMAt+frogXJLcj/ZdjJTXt1wQLKLykwRrMyPTBsmg7V9Rl6RvLhqtxzPyjdlcPN+YHyiTBrQU0oqqmTB5kOyJvWM1aXDPa5305De5l6OXsiXl9fskezi2mtW19RIXkm5/nhEz5U67IeFJEACJEACJEACJEACJEAC7YeA25Vt3Gq1KkSWREdHyYEDh8zXM2fOWqe5J4FmE/jrmr2mzeHMnDpttxw/Jz+aOkwV6BrZpMdn84pt5YjhfmxmijyzZIucyS2SByYkyLh+UbIuLcPU6ebnJfszsuWDnUflOxMS5YaE3vLWlsOm7JHpw+RIZq489/F2GR4TLr+cM1oeeONTqdLr3KrKefdAP3no7c8kxN9HfnbTKDmmivhpdW93JAMjQmRCXLR8d/4qM2kwtl+kxPUIkuzjmaYZxv7bFdvM8WPvrnPUFctIgARIgARIgARIgARIgATaEYE2S5CGe44fGCd+fr6SlnqsHSHgUK41AhuPnZMXV++WpJ7d5fk7J8vfvzFN+l923x6h8d17TmcZi3RFdbVakffaFG1wKCyrlD1nLhpL+QqN3U6JDTd4/L26SLL2974q4aVqud5w7KwUlFaolTvElE+Oj5H/7DkmOWqRPnohTzZp+aQB0abM0Qfiy0sqKqVavT4gm3Tsmy8r2o7asYwESIAESIAESIAESIAESKB9E2gTyzYQ9IyJlnHjRstijd2uViWHQgLuJABlGBuU2btGxhv3b1idwwP8JL9M3bIvyxXn8doTNXbu5LklZRLgXZtBPyzQV86o63hF1ZV3Fy7k4WrNhnTX8mMXa13K8R3HQzUhWlOy/2y2HFZr+ev3zjDu4vsysuRNdUGHIk8hARIgARIgARIgARIgARLouATaxLIN1/Fp0ybJh4uXSW5uXselxZF3OAKI6V6+74T06FarFBeUVYiPZidvrhRqO7iHd7JrGOrvK+gPgvKwAB9bKZYkK3RCYUYeg3mf75O75i2Xp/6zScoqq+XBCUNs/fCABEiABEiABEiABEiABEigYxJwu7IdFRVhU7RzcnI7JiWOukMRePKGETLRzoV7dJ8I2Xj0nLkHWI6Hqju412WFG8txTRsU0+T95ap7OKzNSL4GQXI1xFZb8eK7T1/U9bBr3cY9dYm7MX0jBOeakpTYHiZTOizsmQUlcuR8bh3reVPtkeH/6aeflilTpjRVleUkQAIkQAIkQAIkQAIkQAJtSMDtbuRJSYnipxbAuXPn2G6rorJSFsxfKOHh3WX27JnmvL+ut33rbbOkRi2R69ZvYly3jRYPmktg/ubD8uj1wwVZvmHZRjbxVzfsN92cyy+WpWrpfunuKQI3cS8PD3l2+dYmLwFl+E+f7JQnbxwp+ZodvEdXP/mbxntb7t5v6TWRFG18/ygJ8PGSz1MzZHv6edMvkqdNH9xLAtUlHWt5I5t5qrqO/1njyjM0a/rDmuH8m2MGmizmUNT/vHpXk+OxKkRGRmom/7Eyb9486xT3JEACJEACJEACJEACJEAC7YBApz59+tQPW20Hw3L9EG6/81Z5d+Fi13fsoMe4+N6SduSkgxquL2rra7b19ZpDDNZrXZHLuGbXb4eluvw06Rncv5srWAIsX63ccAGvL4GqaJerKziSrzVHEFsOxb9Yk6U1RyZOnKgTVrPliSeeaE4z1iUBEiABEiABEiABEiABEnADgaioKF3uunbVLbdbtt0wfnZJAk4RsE9mVr8B1tVuiaKNfsy61/U7vPy9pX3CAo+tuQI38oULFza3GeuTAAmQAAmQAAmQAAmQAAm4mQCVbTcDZvck4E4Ca9eudWf37JsESIAESIAESIAESIAESKCFBNyeIK2F42IzEiABEiABEiABEiABEiABEiABEuiwBKhsd9hHx4GTAAmQAAmQAAmQAAmQAAmQAAm0VwJUttvrk+G4SIAESIAESIAESIAESIAESIAEOiwBKtsd9tFx4CRAAiRAAiRAAiRAAiRAAiRAAu2VAJXt9vpkOC4SIAESIAESIAESIAESIAESIIEOS6DNlG0vLy/B1pB46PrCvr4+DRXxHAk0SmBk7x4SFuArCVGh0isksNF67aWgq6+XYD3tL6t0tOf1ZX1OvG8SIAESIAESIAESIAHXEHD70l9QsGfNmiHBIcHSuXNnycrKlqVLVkhVVZW5gwkTxsrghEFSWlpqvqMsJyfXNXfHXq5pAtMH9ZKle08IlLhTOYVmww37e3WRN++fKV/529J2cf9eOpn0q5vHiE8XDwny9Za/rd0nW09mNjm22NBAefHuKZJTXGbqZhWVyoe7j8u6tIwm27bHCo09r/Y4Vo6JBEiABEiABEiABEiABFpLwO3KdsqIZMnNy5dFi5ZKp06d5La5syUpKUF27twjMTE9pWdMtPzjlTekurpaRo8ZIdeNHyNL/vNRa++L7Umg3RAY1y9S8krK5Xcfb5eIbv5G4XZ2cOfyiuW7C1aZ6t0DfeWPt0+STcfOSVVNjbNdsB4JkAAJkAAJkAAJkAAJkMAXQMDtyvamjVvF47Lr7KVLl+Ts2UwJDAwwt3r69Bn598JFRtHGiYyMc9K/X98vAAMv2REJ5JeWS2V1jRSVV0ppZa2nhDP3MWNwrNw1Kl689L389NApeXPTIanRdxMW8kGRIea71c9vbrtOfr1si5RWVEmAdxf58bRhEh8RbKzNL322R45eyLOqNrovwdg61RZn5hcLtpbIxcJSwT3DZf54Vr4E+XnLIzqewepGn5FXJC+u2m3Od1Pr+Y+nJYufWvi91Zr+ycFT8pXh/eWf6/fLRlXUvT095KEpyTKyTw/JyC2S93amGQUeYxrWK9xwiNJJgQE9gmXlwXSZv/mQVNdcMkMODfCR/zd9uPTr3k3S9N5fXL1bMC5IU3xa+rxM5/wgARIgARIgARIgARIggQ5GoE0CSKtVIbIkOjpKzl+4aH21Kdo4ER0dWafMVokHJNAAgb+u2SuHM3Pk39tTZcPRsw3UuPpUXHiQfDUlTn69dLM8snCtURpvSIg1FQ+dy5Ep8TGWXiyxoV2ls3pjQNGGPDw1WfZmZMm3Xv1YoGj/7MaRqrB7mDJHH7tOXZAB4cHSVxVUCPRuj86XtW9zxrmPiK5+AmU3PafANHhk+jA5cj5X7nntY3lve5r8cs5o8dRQDU/tGwr4r5ZsksqqGvHr4ikvrNolUwf2Mu0GRoRIdnGpfOufuI/d8r2JSeY+UYi6o3TS4eW1e+XHC9dIckx3GRwZatrh47EZKbLmyBn5+j9WmP3tKQNsZU3xacnzsnXOAxIgARIgARIgARIgARLoYATaRNm2mMQPjBM/P19JSz1mnbLtg0OC1L08UXZs32U7xwMScDWByapMr009IyeyCgQx0Ij5xjkILOSwEPdThRwypm+EbDhWq8TDGgylc8me46YMFu3TahVOiAox3x19jOoTYdy+H58xQry0nztGDpC3HrhRoPg3JZFqYf7Ht6brdr08q1Z2KKywMiMuPblnd3l/51EzGYBxFpRWqJJdO55zaj0vq6w294N49jM6VrihQ/acuSivbzwoFRq6AQ7nC0vqjCX1fJ6cLygxFuv1aWclJTbctIMlvUdXf+MNAE+A1YdPy8tr9piy1vAxHfCDBEiABEiABEiABEiABK4xAm53I7d4ITZ73LjRslhjtxGfbS8BAf4yZ86N8tnqzyU3t2m3XPu2PCaB5hAIV4Vz9ZEsWxO4Y1tKKE6uVwv52L6Rxj18tCrJzy7bauqGB/pJoE8XeUkTllkSoN/hsu1IkH38oSlD5aG3P5NZQ/rIgxOHSFFZhfxm+Vbjhu2oLcouqCL85Pvr5b7rEuTYxXxbcrQwvY8zOjFQUXXlt4R7wTjhGm5JtSrFECjoli3dV63XNyf3laToMDN+KPSedlnSoUhbklNSJhFB/uYr+i5QN3Z7sWq2lI99XzwmARIgARIgARIgARIggWuJQJso23AdnzZtkny4eNlVyrS/v58mTZsjiO0+erTWangtAea9tC8CBarohvrXWngxMhwX6jlLNmtM8zO3jJVl+06YOO7sy5nA88vK1RJeZpRmq64z+yhVVGFxzta2CzYflue+Ml5C/H1k0a6rvTsa6g9KMsaAuPI/3jFRVh5Il+KKSjNm9AMF2lJ4cS+4v6bk+sG9pIcqzr9Zvs309T+3jmuqiSlH396eDf+T0VI+Tl2YlUiABEiABEiABEiABEigAxJwuxt5VFSETdGuv6QXXMpvvW22bNywRdLSnFM+OiBjDrkdEdh9+qKM1ezgiMWGjO8fJThnSZ5abks0RvvmoX1NMjHrPBRmKLlIGgZBbPSPNIYbbuGOBEo2MpAj1hoW4w93H9PEZZ66Pnjz1pWHhRtx6bePiDOXy1UFHGNKVOs0BGt4x/UIMjHs5oSDj0idADiqVnLcD+6jh8aCOyMX1LUcseY9g2sTHMKt/H61uENaysf+upMnT5annnpKPBtR6O3r8pgESIAESIAESIAESIAE2juBhs1ULhw14rD91OI2V63XllRUVsqC+Qulb98+EhTUTSZNus5sVvmHHy6X7Owc6yv3JNBsAj6q0L5+3wxbu8KySnlYXbnhJj5Uk36hDInPELf9vx9ts9XDAeKfvzM+Ub4z/9M651/4dJf81/XDpbC8wizf9YlmMrd3465T+fIXxIEjm/e8b0w3buAHz2XL00u2yE80udpj764z2cUbatfQuXe2pcrLX58qS/YeN5byP32yU57UfvJ1WTEozH/TeG4ovaFq8XYkH+07KY9qorOxGpOO8SFu/UeavfyJ99Y7amYmC/68epf896zRkqvu5XChR4ZzS1rCx2qL/ZgxY6S8vFyqqpzPLG/fnsckQAIkQAIkQAIkQAIk0J4IdOrTp4/lhdqexuXysdx+563y7sLFLu/XUYdx8b0l7chJR1VcXtbW12zr67kKGBJ6IZ4aymZzBUomXKqxlJ2zguuZzObNWKLM2b5hYc5XJbs540HfgT5edVzonb0e6gUpA3gBNCQt4YN+XnnlFXnhhRdk//4rCnxD/fMcCZAACZAACZAACZAACbRXAlFRUbrcdW2SZbdbttsrBI7ry02gXBOLYWuJYL3o5kpLr+XMdfLUst0SsY9Vb277xhRt9NMSPp3Urf/AgQNUtJv7IFifBEiABEiABEiABEig3RJwe8x2u71zDowESKDdEIBV/vnnn2834+FASIAESIAESIAESIAESKC1BKhst5Yg25MACZAACZAACZAACZAACZAACZBAPQJUtusB4VcSIAESIAESIAESIAESIAESIAESaC0BKtutJcj2JEACJEACJEACJEACJEACJEACJFCPAJXtekD4lQRIgARIgARIgARIgARIgARIgARaS4DKdmsJsj0JkAAJkAAJkAAJkAAJkAAJkAAJ1CPQZsq2l5eXYGtIPD09xc/Pt6EiniOBRgmM7N1DwgJ8JSEqVHqFBDZar6MX+Hrp70O3lohvF0/BZi9RQf6SEhtuf6pdHGMd8pbeZ0tvoHdoV5k1pE9Lm1/VDmuXj+8fJR6dO8mMwbFXlfMECZAACZAACZAACZDAl4dA3b/C3XDfULBnzZohwSHB0rlzZ8nKypalS1ZIVVWVYG3dKVMnSt++vaW8vNyUL1v6sanjhqGwy2uMwPRBvWTp3hMCpftUTqHZcIv3j0+QwtIKeXdHmrnjYTHd5Y6RA+SnH2zocATuHTdYxvSN1N+KyOepGfLWlsNO3YO/dxf5yQ0jpG/3blJaUSWHzuXKnz7dKTW6xFaf0G4ytl+k7Ei/4FRfzal0y9B+4uftKW9vPeJ0sy4eneWxGSkSoxMm1TWXxNvTQ176bLfsPZNl6+OdB2+Su+Ytt3131UGkTjwM6xUuy/adcEmXQX7eMjupr2w9eV7uHhUvKw+mu6RfdkICJEACJEACJEACJNDxCLhd2U4ZkSy5efmyaNFSo1zfNne2JCUlyM6de8THx0fKy8rln/94U7DO7pgxI2XsuFGy5D8fdTySHDEJuJhAiL+PTImPkXtfXymeaikd1TvC6SvcPTJesovL5H+WbZWKqmp5QhVvKJU70s873UdLKnp66KxAM2VyfE8dY4384K3VpiW8FDBWS9lGj546UecO2XTsnGCjkAAJkAAJkAAJkAAJkICrCbhd2d60cat4qOUKAoX67NlMCQwMMN9LS0tlw4bN5hgfxcXF0l3CbN95QAKOCOSXlktldY0UlVdKaWWVo6p1yuDee5daHb30vfz00Cl5c9MhY/GFgve9iUNMXVjF4b49RRXBFfvTZcOxs/LH2yeasj1qcd1y4pzcmtxPzheUqBV2j3EbfmB8okwa0FNK1JK8YPMhWZN6xtS/SxVf9AP5wyc7ZWJctFEmf/fxdknPLjDnG/oos7sn3CfG4KxM0Gv8XvsvV0Ub8tyK7XWawpr8qzljZECPYGN9na/jhVUZ0hgflI1Ti/j91yWIt7qmny8oln+uP6BW8xy5bVh/uSEhVsK7+gnGPVk5QF5eu1d2n75ojhv7SIwOk9O5hbZiy0vBU8f4l7un6LU8jHv5378xzdQ5nVukkwhbzHG8jv+HU4ZKD73u3ows+fOq3VJYViGw7Dt6Xjcm9jbPD53sP5stL67ebfqzPiYOiJavjx6o74iHrDuaIa9vOGjeEZTj/E1Dept37+iFfHl5zR4zsYGy6poaySsp13/sRM+V4hSFBEiABEiABEiABEjgS0rAIzg4+Ffuvnco2ZaMVuv1iZPpdVzFY2NjJG5APxk8eKCsX7fJKN1WfVftExIHysEDzrnguuqaoWFBkpOd56runOqnra/Z1tezh7BNXXWzikrlgCpLp9WN3BIozVDQMvNLBDG0vUIDjTv1qkOnJS48SL4zYYg8u3yL/GfPcYHS5aNuy2kX8kxfUJBhUR4cGWI8MZbtPSmp53OlQBX7tWkZps/rNCYXddDfzlMXJF9d1ueqshmr7tlPL90sO/TcQ1OTTVmBlh29mCerj5zWWN5ooxReKCyRFQdOypmcIqlS5awxgYIdHxEswXotjAGCWGAoco4EluD7VfH/myq6lgJtXx+W46kDY+Q5VcY/2n9S7hgxQM6oAotxOeKDa/+fTjj84sNN8tqGA3JExzS0Z3ejbJ/Iyjf3iJ/6CZ1AeGH1LvlEJzIy8optSqr9GOyPcUv3jkvQ27qkLMtVWa40xXB5/1yZY4w3D+0rP/jXatPnRrVEgw3czf/vjonyyrp9uu03cfuY1Nhw9KxUabmj5wWF/jN9Jhl5RZKsYQafHamdGMGFY/V9+f6kJA072KihCKlyvYYr4HnjfgdGhMidGpLwo7fXyL+3p0mlPj+UgR8EY1+v16/Wsa88eMqc4wcJkAAJkAAJkAAJkMCXh0BgYKAUFtbqJm63bNtjjR8YZxKhpaUesz8t8fFx0j08TEpKSlXRLqlTxi8k0BICMwbFyliNdYZAKYNSBZmsbtlrVaE+kVVrUUbM91eGx8lyVeigoEE5LlNrMPIJzPt8n2ljfaCsuKJSooMD5Mn319dRlNEvlL4cdd3Gtkmt0JPUOrpg82G19FabDYr1SVVEF+06anXpcN9Tr9MnrJsMUsV/j1qHYa39n1vHyRsbD5qJgsYawyIPBRZWbSiCUFQhsMjv0okASOr5PGOVx/H6tLMmYdo+tQw74oMEZjVq/QYfSHp2odlwjGthg1Xbs6az4YjzzgiU50763wy1jN+pXgC5yu/3K3fIUZ0AAXMI5hesY3NCP4b16i5n9bli0gXynnojvPXAjcblHKwdPS+41mODV0R9mTqwl+GbW1JmihbtOiYPTkw05+ARUKLvAJRpCF3QDQZ+kAAJkAAJkAAJkAAJNECgzZTtnjHRMm7caFmssdvV1bV/rFvjWbmyNlZz2PChMv36yaaOVcY9CbSEwPs7065KkIZ+wgN91QJ7JfHWcbXIdtdz9QWKZ2NyWN2m61uk0cexi/m2JjgeqhbT+uKo3/p1H1SXdiREK1aF8ImZI2TBlkNGUYdF3pGUqnIPVRBxzlAoYXWF9TYxOtSmbMNqbEmOKpURmigM4ogPrMn/XL9fnps73tSFtf2dbUfq3LcpaMEHXOSxQZmF2/0j04bJQ29/5rCn7oF+ctyOORTnbPV0wAQDrPSWNPS8rLKG9j20X7jhW1nKO+vMheUhAJfzw5m58vq9M4y7OJ7nm+qCX38ioKF+eY4ESIAESIAESIAESODLRaBNlO3o6CiZNm2SfLh4meTmNu5WnX7ylIwaNfzL9QR4t21KoEDjeUP9ryjXOEaMb32x00XrFxlFtv5J9BEW4GMUY5RhSTJkRG+NDAgPlj+u3Cl56lqd1DNMHlT391fVfbspQdgGrOthOgGQmV9s4tIxGYAY6KakKT5wDccW5Ott4s5/MXu03Pvayqa6dbocCv1yzQx+c3KtNd5RQ/AN1XhvSzC50E3HVf95XplWsGo63hdo0sb5GscPN/P6ArbweHhFN8SJI/M4nsv/qSWeQgIkQAIkQAIkQAIkQAL2BJr+69u+dguOo6IibIp2Tk5t3KnVzaBB8ZKcXJuQCuf69esj2dk5VjH3JOByAkjWhWWv4BINwZrITSXwcmYQ6AMx2RAofWP6RrS6X1hnk2Jqlckle4+LjyYlQ/y2M7L1RKbMvLzOs5e60WP5MGfEER8ol5ZLOiYA9mZcNMuK1ZKs7b1CleXmypOaKR0JySwZ3SdCNh6tmyEcFvr6AivzELXWW2tzD9e1w09porXmJMur3ye+Y0m0CXFRJpQA3zEeZIWHpMT2MJMMUOAzNTke4rgbGpup3MAHwhOefvppmTJlSgOlPEUCJEACJEACJEACJHAtEXC7ZTspKVH81Ho4d+4cG7eKykpZMH+hnDp1Rm64cbokDhksnp6eUqnnP1r+ia0eD0jA1QSQvAru3a/fN8Moikiw9r8fbTOXwXrc356QaNyQ4TY8bVCMXFCF6pmlW8Tfq4s899Xx4qcKb1e1nr70tVpl6WeLNhgX4rc0NvtnN40yynuAJmXDmtjbLy+zhQRkUCajugWYta8R87xB46TfVhdsRwIr9k9uHGkyfecUlcnD6lb9m7nXyTHNgH3wXLajpvIvXef6mZvHmlhsKOl7zjjOCG515ogPkpchhvxFzRCOeGb0iyzm9pbjbScz5cfqAo4kchBYga0lvKxr1N/PV3aPXj/cZPmGZTtb7/XVDfvrVMM62H+6c5JxM89Qt3g8Mzy71zV+/R/3XG/izwM0pv1/l9c+y6ae10yND5+jsey+eg+w0uN5IskesrZv0YkKeBL8Vc/BNR0TM88u32rGk6HK/MN6f98cM9BkncfEyp81GZyzEhkZKWPHjpV58+Y524T1SIAESIAESIAESIAEOiiBTn369LH/W/kLuQ0fH29jRSotrU1I5I5B3H7nrfLuwsXu6LrRPuPie0vakZONlrujoK2v2dbXcxUzJE1DfHBDCbJacw1kPy/XmOmKenkJWtonMoBDcYR7d0sEimSRJvRC8rfmiCM+sM521fuE8u1KgQUeid2QUK45AmW4q69X7ZJbzWnYRF28HxgTYubriynTZcGQMK85MnHiRJk9e7Y88cQTzWnGuiRAAiRAAiRAAiRAAh2EQFRUlC53Xbtkr9st284wKdMYSQoJtCUBK3u2q69ZP164tf3Dwt5SRRvXhrt3S8QRH8Qtu1rRxhib445tf09I9mbWtrY/6YJjWNmxNSSOyhqqb53DRMXChQutr9yTAAmQAAmQAAmQAAlcwwTahbJ9DfPlrZEACZCAjcDatWttxzwgARIgARIgARIgARK4tgm4PUHatY2Pd0cCJEACJEACJEACJEACJEACJEACVxOgsn01E54hARIgARIgARIgARIgARIgARIggVYRoLLdKnxsTAIkQAIkQAIkQAIkQAIkQAIkQAJXE6CyfTUTniEBEiABEiABEiABEiABEiABEiCBVhGgst0qfGxMAiRAAiRAAiRAAiRAAiRAAiRAAlcTaDNl28vLS7BRSMBVBEb27iFhAb6SEBUqvUICXdWt2/rBGtxfTYkTP68riwAk6thvG9bPbEk9w9x27YY6bmg8DdVr7rnRfSJkRGyP5jZrdX2s/X33yPhW99MRO8A641j7uyWC98CzXlu8i7Gh7e83Za3/3pL7bGkbV7/PfcK6ysCIEOnR1U+G9wpv6bDYjgRIgARIgARIoAMQuPJXv5sGCwV71qwZEhwSLJ07d5asrGxZumSFVFVV1bnimLEjZcSI4bJo0RLJOFO7CHidCvxCAvUITB/US5buPSFQuk/lFJrNqvLzWaMkLjzIfA3y85anPtwse85ctIq/kH2AdxdJiQ2XtalnpKSi9v0vLK+Qc/klkhzTXSK7+cveM1kuGdvPbholQ6JDBetlW7I2NUNe23DA+ioNjcdW6ODgv2eNlsW7jsr+s9kN1hoQEay/7xrZnn6+wXJ3nZw4oKeU1ft3pbFrPX/nJHl57V45kplrqnxr7CCzpvbbW4801qRdnvfy8JBf3TxGfLp4SJCvt/xt7T7ZejLTqbHGhnaV/9bfSSet3UX7eX9nmvxnz3HTdly/KDl+MV/Sswud6qs5lZp6fxrqC5Np35+cJP5eXfRePc368b//eLtcLCy1VX/nwZvkrnnLbd9ddeDq93lwZKjg3yS8exMGRMvOUxdcNVT2QwIkQAIkQAIk0M4IuF3ZThmRLLl5+apEL5VOnTrJbXNnS1JSguzcuceGIjAwQGJ7xaiSnSFyyXaaByTQYgLPLttqa/vbueNtx1/kwbn8YvnpBxvqDAHKDLZAny62yYE6FVrx5a9r9sq6NP1NNSINjaeRqnVOe3pAPWtc5m861HihG0umxPeUXy/b4sYrtL+ux/WLlLyScvmdKp4ROlkDhdtZefT64fLBzqOyYv9J8VVvi+e+MkEngjIkv7Tc2S5aVK+p96ehTm9PGSCrD5+WTw6eMsXX9Y+SmOBAm7KNN9JTJ3PdIV/U++yOe2GfJEACJEACJEACbUvA7cr2po1bxeOyi+KlS5fk7NlMgXJtL+MnjJUNG7dISkqy/Wkek4BDAlAKKqtrpKi8Ukor63pKNNZwvP6RHhUUIP/enmqqTB0YI3A/Xrz7mLGQD4oMkTftlMXf3HadUeBK1RINS/CPpw2TeLXc5hSXyUuf7ZGjF/JMP3ep+3KVjmXqoBjx0vf9nW2p8umhWsWgb/du8uTMEaZehdZ5+O3PGhveVefhcvqjqcMkNMBH0s7nyQurd0lBacVV9ZpzoqnxwLX9+5OHClyTt588r/e5W6prLsmTN4yQ/uotEKVKXW+1ipZX1lrNH/n3WgEfsBms/CAfqOX74wPptmF5dO4kD4xPlElqfYZVf8HmQ7JGLfyQYepKC+8E9DugR7CsPJgu87Uc13RWYtTyCS8BKJ6ukBmDY+WuUfHmWeI54p2o0X+/8Jyh1EP+8MlOmRgXbcYPZTfE30e+N3GIKXt3R5pRYFF3xf50c0+wZj4CRso3I69IXly1W45n5Zv6v5w9RqKD/M17/PuPd8jdem1Yc3/0zhpT3thHCd77y3MfmTqZg80ZiVAX5l7qJg7lFZTxTOq/l/C0+OvXp171PqP/xvig7OujB8pNQ3qb3+bRC/ny8po9kq2/l6beH7RtTBLVS2P5/hO24g1Ha72f4P7+l7uniLda9hGe8fdvTDN1TucWyf9cnnhpbKx47xw9L0fvMyaO71FvCLzP+DfonW1HzGSANcDGGKAc/1Z1Ke8sFdXVUtjK37J1Pe5JgARIgARIgATaJwG3K9u47Wr9Y8SS6OgoOXDgiuUrOjpSPDp7yJnTGVS2LUjcO0UAllvI4cwcp+qjUoAq1sGq9FiCeFUoQZBD53LkB6pkwpIFBQRutp31j2ookpCHpybL3owseXb5VqN0/uzGkfK9BavNH83oAwrxo+9+Lj1VmX/6lrHyuVqVK9SNOz27QB5/f53p4437Zpq9Mx9QJOAO/n8rdxiX0zlD+5ox2FvtHfWD+4TCZEl2UZkZq6PxQGF5bGaKPLNki5xRheWBCQkCl2JYyF9avUcnzjrJT/W+F+86Jocucy+7zOeVdftM7O9Xh8eppb5ufoZbk/tJ90A/eUgnGqCU4r6OqaJ5Wt3//dQteJQq2z9fvNEotD/Xsh3pF2SfsnZWpumkyapDp52tbuoh3r+gW+3ERYC3l+SWlJnzCD9AbP2vl26WwrJKnURIlhsSYlXZO6mTMkeN0vf0nLEya0gfOZ1bqO7oe+RCQYlRoPGc7xwxQJlFSqaee2PjIXMeHT8yfZh5js+pYj48Jlx+OWe0PPDGp1JVU6OK+w4Tc/3Pe64XPOddpy/I8n0nzXgcfexSF+QHJwwRTKDA7Rt6d2ed2GhqogL3fiKrwFy7sf57hgQ0+D474oNY5Ak6AfHd+avMJNhY5RDXI0iyj2c2+f40Ng6c33zinJl0Wrj9iOw+ddG4keM8Jris39ab+tuyjq37dzRWvF+Onpej9/mmxN4m5vo78z81ru3PfWW88sw3TB0xwJhhobfEVWEjVn/ckwAJkAAJkAAJtC8C7vG7a+Qe4wdqcig/X0lLPWZqwDowfvxYWbduYyMteJoE2o4ALOSwOPa7HOs9pm+EbDhWa0FDYibEWi65HNMKizasZwlRtZZcjBIKIhTzNC2DFRox0xD84Q9rdHMt0kN7djd9WXHFS/Xaw1RJczYR1h2q9D2jSr+1wUre1HhGqNK753SWsbjC8vaynSt6cUWluQcoOMXKyrony/4M6yjOlV22eJuLXf6YHB+j8cDHjEcA2G1SrpM0XtWSVOV1XpVTxOCuTztrYtutsqb2+HdklCZl26IKXXMESqrFxn4sGCvi6qGMZhWVmrwAOAfBveEeoSCf1EmU99SCvT8j21grwcXcv06wYEzzPt9n8gSgD8QaJ+vzfF/dtvGO4L1C3cGX3x+Lp69OPMCSjomDg+cajom3v0fcN8by+IwR4qXv6B0jB8hbD9zYZEhCgIYtlF32BsF7fe+4wWazn5xp7H12xAfvZom+J9XqBQDZdOycbL78XJp6f+zvq/7xP9btl08OpcucpL7y+n0z5Nf6XsMjBQKO2HBF6xg8IY7G6uh5oa2j93maerAs2HzYKPvwsPlUPQQwyQBxxMBU4AcJkAAJkAAJkMCXhkCbWLZBs2dMtIwbp4mVNHa7Wv+IhyQkDJSMs+ckP7/AfOcHCXzRBNare+rYvpHGPRxZiC0rcrhaZRFX/ZK6rFoChaWbXYxsjZ3bM6yksJa2RpCteJgmTrO/ZrkmAAv285ELhSVNdv13VfYcxWw31EF4gJ/kl11xxbYU6YbqNudc90BfOaaWV0twPFTvzRK4aFuSo+wi1KXaWUnWzNnwSsDkQHPkNx9trZMgzWobrmNdfeSKVR2u3hh/fXFkea9fFqbtz+hEDjwdLEG/eK/sBS7GVmiC/fmGjqHUPTRlqPEWgJX9QXVhLyqrkN+o5wUmfBwJJpasSRu438OLARb13acvasK+Wlf0xt5nR3yQNO+wJv56/d4ZxqUfHN7UkAAowa0RTFghvhwbfnP/7/phxtUe77gjcTRW+3b1n5d9WUPHEV39BUkYLUZwY4eXAcRdDBoaB8+RAAmQAAmQAAm0bwJtomzDdXzatEny4eJlkpt75Y/Aocn6x2Fhsdx44/WGUvfuYTJ6zAjZu2e/HD1amxW3fePj6NorAbh/WwocrNKXjN2r1u0U3xuTzWqJg7Vz2b4Tpj1iTSFQQLPUDRtu0G0lBWoxg1XwhVW72uqSUqDKWnjXqxXL1g6gUPsNUzd7y+IIN2ZXxatO06z0eF6uEjAI9b/CAMcYf3PEbu7ANEN7uM/DzduaVkC/uFYdsQrrnGz4S5ROSECJRXgArKxwZcY1FqmLf1OCNt11YgUCV35ssNY6I474IC8HLPqv6IbJotlqiYYHAUIhXCWwJK85csbEyzfVp6Ox2ret/7zsyxo6zlfuv/hwo2Ffv7wtGNS/Jr+TAAmQAAmQAAm0TwJudyOPioqwKdo5ObXL7FgoPlv9uezevVcOHjxstqKiYjl58pRcvHjFqmTV5Z4EnCWApGffvZyoCq6m/TSe1bLWwYKVGB2meQJqs0rVX587T/+Qh/vozWrl26iKtyVQauAGiwReEGQ+/pHGcMN1110CCxkSQ8EFGQIr6P3XJbjrcqZf8IH7unVfWJKsvhJWoct6NVdgMR3fv9bNFuzgoo9zrRW4XSNZGyzbrhKMC7HGmLCBIKlea8eaq5M2eIfw7kGQfA6xzM3JN2Aa2n1AYUYGcuQKwMTSh5rkDzH3mNRoSvB7wDJpSBIGgeUeyQGdEUd8UnR9dfSJOQPErB85n1vHmo/+m/v+YHLsT7pUm/VbNWEDva+EeFhjtvcasM45GqtVpyX7nafOm+RoVlsktLPWJXeGgdWuoX1sbKw8++yz0rt374aKeY4ESIAESIAESKADEXC7ZTspKVH81IIzd+4cG5aKykpZMH+hyUxuO6kHycOS5HzmBbqV20PhcbMJfK7LF03UeOAX7ppsMlz/S9dOttbjRVwwkpy98q3rjQKepy7LhbXGa9t1EE/7Hc2cjeRH9vLCp7vkv3S5JLjdYomlTzS2tqE/8O3b4LhvWDf5rxnDzWkosS99bYo5fvTfn8uNmmhp+uBeEqgu53BFRabqVHXD/fPq3cYNFxZLKBrZxaXGffZvujZ0a8XReKCELVUrMVzX4QqPdZyREM5eVh0+JfePT7Ap5I+/t87EIT+kkw8DNVN7iLq5Q/mbrJm4kQwKrr9v6X0gKRoUVySpwzNyxTrcWALKiqu3H2NrjhFKABd3xAYjvhox1//70TbTJeLg8W5FdQuQn2h29jJ1C9+gMeZvazZquPx/e0KisS7D7RmTFEic9szSLUb5/JNmL39Sk8vla8Z0WH3/pvHwlns1ksIhSz7Wy7bej9c2HNQ8AOcbvRW4giNr+7xvTDcu+ojxfloT2/1Er/HYu+uaXMIL2dCf0HuA0l59qcbE6jd6MbsCR3wyNGHcw5px/ZtjBppJK0ys/Fkz6NtLY++PfR37Y6wV/47+hvH+IPM33N/hao/YfnuBdwN+KyjPULd4PDNHY3X0vNCvo/cZ67EjuzoS4eE3Ajd8bBBnGJiKjXwMHjzYKNrp6emN1OBpEiABEiABEiCBjkKgU58+fZrhuNhRbuvqcd5+563y7sLFVxe48UxcfG9JO3LSjVe4uuu2vmZbX+/qO278DCzClZo8qiGFGBbAKlWIGiprvMfaEsSMwj0V7qJtIbDkdVMFFVb3thJY/v2UX3Pdp5saH7KUY8mw5sZXN9YvlmaDmz0mUVwtsKhCcYNS60pB5nq4Ibvq/cE4Tdb8ywnPmjNW2O6D1fUclvfmvs2O+IAblFB4g7hSsPwePE+sEBFn+3Y0Vmf7aKie+TdGJwAaep9byuDhhx+WnJwceeuttxq6JM+RAAmQAAmQAAm0cwJRUVFqVK41Crjdst3OWXB41zABR3/o4w/2lgpiRttSoJS1paKNe4Nl1tWKNvp1ZZ9QoFLVTdkdijbGCosqNleLq9YCt8bVmjFCwcaa8S0RR3xggcbmamnpxIejsbZmjI7+jWkpg4KCAvnoo49aMyy2JQESIAESIAESaCcEqGy3kwfBYZAACTSPABSo1zcebF4j1iaBdk7gjTfeaOcj5PBIgARIgARIgAScJeD2BGnODoT1SIAESIAESIAESIAESIAESIAESOBaIUBl+1p5krwPEiABEiABEiABEiABEiABEiCBdkOAyna7eRQcCAmQAAmQAAmQAAmQAAmQAAmQwLVCgMr2tfIkeR8kQAIkQAIkQAIkQAIkQAIkQALthgCV7XbzKDgQEiABEiABEiABEiABEiABEiCBa4VAmynbXl5ego1CAq4iMLJ3DwkL8JWEqFDpFRLYrG6x3vNXU+J0LWnnE/JPHRgjWFe3rQTrFM9MiHX55RKV123D+pktqWdYs/oHt/H9owTrcM8Y7PqxNWswrEwCJEACJEACJEACJEAC7ZiA85pGC28CCvasWTMkOCRYOnfuLFlZ2bJ0yQqpqqpd5/gb37xTvLpcUWAyz1+Q5ctWtvBqbPZlIjB9UC9ZuveEQOk+lVNoNtz//eMTpLC0Qt7dkWZwDIvpLneMHCA//WCDDU+AdxdJiQ2XtalnxNk1t6GcHzyXI47W1rVdwAUH3l085GujBsrHB9Jd0NuVLgrLK+RcfokkK5fIbv6y90zWlcImjoL8vGV2Ul/ZevK83D0qXlYedO3Ymrg8i0mABEiABEiABEiABEigwxBwu7KdMiJZcvPyZdGipdKpUye5be5sSUpKkJ079xhInp6e8uqrCzoMMA702iBwLr+4jvLd0F3FhnaVu1RJ//TQadmRfr6hKh3yXHp2oWAL9OkiceFBHfIeOGgSIAESIAESIAESIAESaO8E3K5sb9q4VTw8ar3VL126JGfPZkpgYICNC85RSKAlBPJLy6WyukaKyiultLLWU6Kpfvp27yZPzhxhqlVo24ff/qxOE7hY/3DKUPH29FBPjE7yuxU71GJeYKszuk+E3DEiTjJyi+W1jQfkkFq6nZGvjx4oNw3pbcZ79EK+vLxmj2QXl5mmuOb3Jw+Vrr5esl0txi99tluqa678LtD2luR+su1kpry64YBkF9W2g5X5kWnDZLC2z8grkhdX7ZbjWfmmT7h5PzA+USYN6Gks9ws2H5I1asV3RhyNtbqmRvJKykV0eNnFpc50xzokQAIkQAIkQAIkQAIk8KUk4HZlG1SrVamxJDo6Sg4cOGS+wtJdXV0t/fv3lQHx/SVPLeDbtu6UyspKqzr3JNAogb+u2WvKDmderfAGquIKF2lISICP2eMjPbtAHn9/nfn+xn0zbeetg8dVEf/N8q2SeiFPHpyYaFzUD57LtorFSyeO7nltpUzT+O17xg6Wn3yw3lbW2MHAiBCZEBct352/ykwMjO0XKXE9giT7eKaJGX9sZoo8s2SLnMktkgcmJMi4flGyLi3DdNfNz0v2Z2TLBzuPyncmJMoNCb3lrS2HTdkj04fJkcxcee7j7TI8Jlx+OWe0PPDGp1KlCvGtqpx3D/STh3QyIcTfR3520yg5por4aXW3dySOxop2Z/OK5bcrtpkuHnu3lqOj/lhGAiRAAiRAAiRAAiRAAl9WAm2WIA2A4wdqQio/X0lLPWZ4I57bx8dbunXrKmlpxyQqKkJuuHH6l/VZ8L5dSGDGoFh55paxZoNSbAksxgUaz42tvnipNdtfY7lTz+cKPC72aSxzz5ArXhiov+HYOanSyaNPDp6SPmFdxbdL0/NVXVRBL6molOrLXhybtI/NqmhDRmi8+Z7TWcYiXaETTy/rBIKlaKO8sKxS9py5aCz3KzR2G3HmECRqS+7ZXd5XJby0okrHddbc0+CoEFM+OT5G/rPnmOSo9fyoThxs0vJJA6JNmaMPR2N11I5lJEACJEACJEACJEACJEACdQk0rSnUrd/ibz1jomXcuNGyWGO3Yc2GlJeXyz9eedPW5/nMC3Lf/d+QLpowjdZtGxYetIDA+zvTrkqQ1lQ3FVXVxmX8xsTesvPUBZmuCvteVXTtpeaywox9sbqv+6iy3ZQL+/6z2XJYLdCv3zvDuGDvy8iSN9WtGwp/eICf5JepW/ZlueI8Xnuixs6dPLekTAK8azP6hwX6yhl1HceYLYELebhasyHdtfzYxVqXcnzH8VBNiNaUOBprU21ZTgIkQAIkQAIkQAIkQAIkcIVAm1i24To+bdok+XDxMsnNzbty9XpHRUXFJkt5FyeshfWa8isJuITA39fuk5vVBfu/ZqQYC/eSvcdb3S+s5PM+3yd3zVsuT/1nk5RVVsuDE4aYfgvKKsRHLerNlUJtB/fwTnYNQ/19Bf1BUB5m5z6PJdKQob0pcTTWptqynARIgARIgARIgARIgARI4AoBtyvbcA23FO2cnNwrV9YjuI/PnDnNLAmGgn79+khJSYluTLxUBxS/tBkBJEdD0rQn3lsn72w7UidRWUsHkRLbQ4b1CkdOMcksKJEj6qZuWaRh5R6q7uBwYYdgOa5pg2LMsaOPXHUPh2U8Mbp2nWwkV0McuBW/vvv0RV0Pu9Zt3FOX3BvTN0JwrilxNNam2qIceRiefvppmTJlijPVWYcESIAESIAESIAESIAErlkCbncjT0pKFD+1uM2dO8cGsUIToC2Yv1AKCgqlvKJC7rn3bnUbrzLrba9Y8amtHg9IwNUE+oZ1U6v1cNMtFNyXvlarFD7678+lXF2ys4pKZf63bzDKMNzDD57Nkb9q5nBkPW+pZOQWysOaNfybYwaazOBQfv+8epfpDkuQLd13Ql66e4rATdzLw0Oe1QRtTQkU9z99slOevHGk5Gt28B5d/eRvGu9txaK/tfmwSYo2vn+UBPh4yeepGbL98vJlSJ42fXAvCVSXdKzljWzmqerm/ufVuzXLeuO2vB70AAAvAElEQVRjbWpMKI+MjJSxY8fKvHnznKnOOiRAAiRAAiRAAiRAAiRwzRLo1KdPn/phom1+s1hr20v/8C8pLnHbtW+/81Z5d+Fit/XfUMdx8b0l7cjJhorcdq6tr9nW13MbOO04qWeY3DK0n/x62RZzGU9NbPZDXZILFuG1Ti6b5Wh8SD4GZbpYk6XVFyzV5adJz+D+3VzBEmD5auVuaBm9QFW0y9VtHcnXmiOOxuqon4kTJ8rs2bPliSeecFSNZSRAAiRAAiRAAiRAAiRwTRKIiorS5a7Pmntzu2XbGYJVVVUmVtuZuqxDAu4iAKtwVJC/XKfWYGTxxtJh/XRd7jc2HnTJJWEdb8xCjizpLVG0MTCz7nUjI2xpn47G2silzGm4kS9cuNBRFZaRAAmQAAmQAAmQAAmQwJeCQLtQtr8UpHmT7Z7ASV2D+8XVe2RIz1DpHdpV8B1W7rzSK9nC2/1NfMEDXLt27Rc8Al6eBEiABEiABEiABEiABNoHASrb7eM5cBTthMDBc9mCjUICJEACJEACJEACJEACJEACrSHg9mzkrRkc25IACZAACZAACZAACZAACZAACZBARyRAZbsjPjWOmQRIgARIgARIgARIgARIgARIoF0ToLLdrh8PB0cCJEACJEACJEACJEACJEACJNARCVDZ7ohPjWMmARIgARIgARIgARIgARIgARJo1wTaTNn28vISbBQScBWBkb17SFiAryREhUqvkMCruu2kZ7r5egv2lmBpr5TYcOtro/s5Q/vW6RPrYN82rJ9t8/L0aLQtCkbE9jBLhzms5KLC6wf1EqwJ3laCNbi7+l77v2WsUf7VlDhd/9y1eSRH94kw70dbPa8vw3X6hHWVgREh0qOrnwzv1fTv+8vAhPdIAiRAAiRAAiTwxRNw7V+RDdwPFOxZs2ZIcEiwdO7cWbKysmXpkhV11tXu3j1Mrr9+imzYuEXST55qoBeeIoGrCUxXJXPp3hMCpftUTqHZrFozBsfKdyYkyrn8YvFVZem3H22TYxfzpU9oNxnbL1J2pF+wql61h3Keon+wZ2pb9Au5dEm0rxJz/ONpybLq8GmpqKo23xv6mDooRj5PzTDXb6jclefuHBkvG46dlSpdx9sVMiQ6TB6bkSI+XTzkznnL63T57fGJMmNwL8nXNcl1SW15ZukWOX2ZUZ2K9b48f+ckeXntXjmSmWtKvjV2kFlz/O2tR+rVbJuvP7tplAyJDpVyu2e4Vp/XaxsO2AYQ4N3FTMysTT0jJRVVtvNNHfz3rNGyeNdR2X+24az2AyKC9d+/Gtmefr6prr6w8vb2vJoCMTgyVIL8vM37NWFAtOw81fjvu6m+WE4CJEACJEACJEACriLgdmU7ZUSy5Obly6JFS/WPc7UOzp0tSUkJsnPnHnMP3bp1lRtunC7Ll62U7OwcV90X+/kSE4hQ6xaUucfeWyfpulZ2olq+vzlmkPxqyWanqKhefVXdGtW2Nx8/Z9p/f1KSU/10xEpj+kbKA6pQP7diuzw1Z3SdW0iO6S5De4bJN/65wijKXx89UO6/LkGedpJrnc7awZe/rtkr69IyGh0JJmp++sGGRssbK/D0sPeluLrW/E2Hrj7JMyRAAiRAAiRAAiRAAtccAbcr25s2bhWPyy6ul1RhOXs2UwIDA2wgJ04cJ1u37qCibSPCA2cJ5JeWG6WvqLxSSiuvWB7Hx0XLAbUqQtGGwMJob2WEG/Sv5oyRAT2CZeXBdJm/+ZBU10DFFvnL16aKp7qMQ/5XreEnL/dhTjj4CFJ39SdvHGEs57CE2qtbd6nleUp8T9P6D5/slIk6vmFqOf/dx9vNGCeqJQ6Kq5eHh6w7miGvbzgoUO79vbrIL2aPln0ZWXJLcj/ZdjJTXlXLa3ZRWZ2RZBeXGsu7/UnfLp7yyPRhkqTKMfhsPXFeXtt4oEnrd4haB3++eEMdnla/u09flEff/dwwxzmMC14CrRW4VeNZhPj7mP5Sz+fK71TZx7i/COnbvZs8OXOEuXSFegs8/PZndYaByZvvTx5qXOm3nzwvL32227w/T94wQvqHB0lUN3/pHdpVyitrPR8e+fdaKVXL+I+nDZPBkSGmrw/U8v3xgXRbvwhTwCTHpAE9jRV9gb6Ta/Q9guBdgfcG+m3onbV10oYH8By5a1S8vrOd5dNDp+RNnUDAO+voXcfz/d7EIWaU7+5IMx4n+F2s2J9ufoewTD8CRso3I69IXly1W45n5Zv6v5w9RqI1BAS/899/vEPu1msjdORH76wx5TjfpbyzVFRXS6F6XVBIgARIgARIgARIoD0QaJNAz2o799bo6Cg5f+GiuXco3WHqQl6lfyjBuj1+/Bjx9r72Y0Hbw4O/FsYAy+ThzBz59/ZU2XD0rO2WumscNxS2xqSfKlNwaf7xwjUCay1cUC356Qfr5fH310lheYV4NxGXbbXB/ubkvpJXUi4/+NdqWbL3uFGKrPLFu4+aPuGKPGtIH8nTSYKX1+6RCwUlEhsaKHerMv6T9zfIA29+Ihj77KQ+pmlnVcAGRgbL/oxsuefVj43ydkNCb6tb2/7J99dfpRwj5rxMXaS/pe1+8NZqyS0pM/HttkaNHCzff1LO67gak0q73zLczY9eyGusqtPn/dVd+7r+UbJw2xGj2Faqi/WNib2dbt/SisGq3EWqAmttmOyAYJIG7wC2nsFXJgZRhvjtx2amyB9W7pBvv/6JTjxUy7h+USiSl1bvMZMRe3US4mV9N60+yi67oL+ybp85t+WETjhqPLi93KqTKd0D/eQhVex/u2KbfGvcYIm5nIfATydORqmy3dg7a9+PK4+RD8FiE2D373KcTigglv3XSzfLIwvXCn5PNyTEmks7etcxOQMmcJ8fp5M06PuNjYdsLt+YHDqiv9t7XvtY3tueJr9UzwpPDT2C/OGTHfKk/jbBBO/2rtMX5G9r95kyfKzWsI7Fu4/J3jNZ8o/1+23neUACJEACJEACJEACXyQBt1u27W8ufqAmG/LzlbTUY+Z0eHh3tchdkh4R4ZJ65KgMGZIgN82aKYs+WGLfjMck0CwCUN5KcxqPp049n2dTKNennTVxuVAEIAVltVaxqupaS7ezF06MCpO/rNktOcVlukkdJbRMLZzYqmpqjKV8kVo1LZk6sJf8Z89xowzj3KJdx+TBiYnmHL4XllXKnjO1k1Mr1BL6vUlD5K0th1HkUGC9L6moNBZXWBzfU0uiKyUmONBMHDyurvqWdFUF8vYRA6yv8pkqQJZl0naykQNMmmReVvJh9bxr1ADBvimJV4s4PBks+ZeysfdysM43tL9DxwrFzZL/U4splD14ORQ0Yh0doUrvntNZtvuCUm29KcXKG4LY+WK1ytfvw4r7xrtQXybHxwiU8dr3p0w2aQz+JPV4WLC59lk7emfr92X/vTV8HpwwxFiK0R+eLZRZCMYK740TWbWeI8ib8JXhcYKJGkfvOtqCCSaBEFI07/MryjK8OJJ7dpffLN9mciEgB8GdIweolTvEKNDg2VnbwGMDlnRXTPJgPBQSIAESIAESIAEScCeBNlO2e8ZEy7hxmjhIY7er1RoE6arx2sXFxbJxwxbz/dy5TPnOg/eKj4+PlJXVdZU1FfhBAk4QKFSFOdCnS6M1oXxakqMW3wh1T22NwGV8QESQWkQLbd1U213DdlIPLKXeOtdDrZkTVFmExRsCa7bl0o7vNZfd23EM67S9hRHnGhNY1x+9PkUWPniTccndcjxT3lEPAExutVZCA3yMe/tfPttj+rb6gwLlq0nVLMG9WIKJBihLluDY/j7tj9NzCkxmaauuoz2uYX/NOv77jhpq2d9V2XMUs91Q8/AAP8kvK7cVtZ5mbVfdA31NAj+rYyTzG6peF5a09J1tDZ/ffLS1TkI7ayzhOtbVR2onp3AOEyoYf32p/67bl9cvC9P2Z9R13D7pIPoN19+HvWAihYq2PREekwAJkAAJkAAJtGcCbaJsw3V82rRJ8uHiZZKbe8XtFAp1Xm5tTB4glZaWGSW7i1o5qGy359emfY8NbtCIVbYXuP9alkX78644hsIF92rEnMKVvDlSoIobEmZ9duR0c5o1WRcWxKf+s8m44caEBMgDaqW8Xq3uiFFvjSDu9tlbrzNx7rA+2gti6F9SBbwhKa2oFh87t3xvVcqz6sWeW+0Q/26vdFnnG9ofOpcj2NpK4PkQ3vVqxbK118cEUZhOYsCCC4ELtytij93BBwxC/a8wwDHG3xypP+eD9ni3MB1jTWCgX8vTxNa3VWg7wQMSIAESIAESIAESaL8E3B6zHRUVYVO0c3LqxtGezTgnvWJ72tbfjlHrN6zehQVXLITtFx1H1l4JrNf47UGaiAp/vENSdM3rp28e69bhYkmrKepeC4HVFgmynBEsQTYhLsq41aI+koVZ/TjTvrE6cI9GVnZYlOHum5GrVsPLHiWNtWnqPCYTfn3LOHlj08FmW4RhpRxyeQIEfBI0Tv64Wm8t6RvWzWaUnjowxmZRtcrbyx4W2aHq7myts46Y/2m6zJu9VGjMeXMFyefG9691h0ec8pi+EYJz7VEwLiTGszwVxmu8fWvHmqsTQZggStQ8ABCs4x7XI8jkZHAFg8mTJ8tTTz0lnp5tMr/siiGzDxIgARIgARIggWuAgNv/8khKShQ/tVDMnTvHhquislIWzF8o+fkFsm3rTrnv/q+rgl0kPr4+smLFKls9HpBASwhkFZXK6xsPCtYKxjHiTZFZ3Bn5812TjSs3kjc9romwEF/6d03EBGX6j3dONF0E+3vLc3MnSPWlGnn+013GrRXrMz9zy1hdgzpW3YGvxISjAWKDkXE8qluA/EQzVqPPDRor/rYmBEOyLFjh//q1KSb7NhSYZ5dvdWaoDuuc0bWvsZa0Zc1HZm9nXKZnJ/XV5Ff9VfHtpC7rXeT1+2aY6yA2G5MWyAj9Xc0ojc0SWNDtXeit8/b7ZRrX+/TNYzSrdoRmWfeUwxobjThtSy4UlsjjyObdPcgkpvvFhxutojbfQ/H/rxnDzXWhVL+kzwby6L8/N+umL913Ql66e4px60dStfrPa9XhU3L/+ASbQg52yEb+0NRkdY/XrOt+PiZz92TNxI3EXh/sPCpvaWw2nhcU1wB9X7FGe3tdhxuTWXBxx7uB+8JvzPp9OXrXh2mbb09INJNgCBvAJAWSBGKtdhis/6SZ+p+8caTkq3dID50o+pvGw1tx7z9XNlFBAWbtd+t5vKZZ+3c4uVb5mDFjpLy8XNc3v7JqgXmo/CABEiABEiABEiABNxLo1KdPny/cMc/EemritJLixrMgt5bB7XfeKu8uXNzabprVPi6+t6QdOdmsNq2t3NbXbOvrNYcP3itknIbVrC1eclwPseKWgtCcsSKhGRQ7y424OW0d1UWyOLhk22cRd1Tf3WWwWGJJrHIdkyWwZCfock8vrt4t3dSFvEDd0dvieVnXb8keS3X5abhLc92nm7oWspSDT2u9EJq6jivKka0f762rl2iDB0W+WrldkV/Aus9XXnlFXnjhBdm/n5nKLSbckwAJkAAJkAAJuIdAVFSULnddG27pdsu2M7eAP6rcqWg7MwbWufYI4L1Cdue2ElyvJYo2xgdl2B0KsauV99aybIoP4r47gsAy62pFG/ftjj7dxRMTJvaTJq66TnPzHjR1XUyCHThwgIp2U6BYTgIkQAIkQAIk4HIC7ULZdvldsUMSIIEOQwDu5HAnppCAOwhgEuz55593R9fskwRIgARIgARIgAQcEqCy7RAPC0mABNxN4GxesWCjkAAJkAAJkAAJkAAJkMC1RMDt2civJVi8FxIgARIgARIgARIgARIgARIgARJwhgCVbWcosQ4JkAAJkAAJkAAJkAAJkAAJkAAJNIMAle1mwGJVEiABEiABEiABEiABEiABEiABEnCGAJVtZyixDgmQAAmQAAmQAAmQAAmQAAmQAAk0g0CbKdteXl6CjUICriIwsncPCQvwNWs09woJbFa3WM/4qylxulay8zkCsR60v66t3Fbi5eEhMxNiXX65RF3T+rZh/cyW1DPM5f23tsPeoV1lSPQXO64+YV1lYESI9OjqJ8N7hbf2ltieBEiABEiABEiABEjgS0jAeU2jhXCgYM+aNUOCQ4Klc+fOkpWVLUuXrJCqqioZMXKYpKQkS3l5ha33rl0D5bVXF0hhYZHtHA9IoCEC0wf1kqV7TwiU7lM5hWZDvfvHJ0hhaYW8uyPNNBsW013uGDlAfvrBBls3Ad5dJCU2XNamnpGSiirbeUcHUM4PnsuR4opKR9VcVubdxUO+NmqgfHwg3WV9oqNC/b2dyy+RZOUS2c1f9p7Jcln/twztJ37envL21iMt7nNQZIjE6OTJvozWj6ul4xkcGSpBft5yJDNXJgyIlp2nLrT4ftiQBEiABEiABEiABEjgy0nA7cp2yohkyc3Ll0WLlkqnTp3ktrmzJSkpQXbu3GOIb9m8XXbv3meOg0OC5NZbZ1HR/nK+i2161+fyi+so3w1dPFYtrHepkv7podOyI/18Q1U65Ln07ELBFujTReLCg1x6D54enVzaX2s7a2/jae39sD0JkAAJkAAJkAAJkEDHIeB2ZXvTxq3i4VHrrX7p0iU5ezZTAgMDDKFT6Wek5lKNjdaQxMFyYP9h23cekIAjAvml5VJZXSNF5ZVSWumcdbpv927y5MwRptsKbfvw25/VuQRcrH84Zah4e3qoJ0Yn+d2KHWoxL7DVGd0nQu4YEScZucXy2sYDckgt3c7I10cPlJuG9DbjPXohX15es0eyi8tMU1zz+5OHSldfL9l+8ry89Nluqa65ZOsWbW9J7ifbTmbKqxsOSHZRbTtYXh+ZNkwGa/uMvCJ5cdVuOZ6Vb9p56NgfGJ8okwb0NJb7BZsPyRq14rdWxvWLlPuvSxDvLp5yvqBY/rm+lsFtw/rLDeryHq5u12X6LCbrdSEvr90ru09fNN4GO9MvmGOc//6kJDMe8Ousk3A/mJwkE7VN6vlcWx3Ug0xUyzIYwK1+3dEMeX3DQf1345Jx6f/F7NHGAl6fT1Pj8dXxPzJ9mMCNHu/P1hPnzfOs0ncCgvepS3lnqaiuNl4S5iQ/SIAESIAESIAESIAESKAZBNyubGMs1Zf/gMVxdHSUHDhwCIdy4cJFs8eHhyo38QMHyL/eetd2jgck4IjAX9fsNcWHM69WeANVcYWLNCQkwMfs8ZGeXSCPv7/OfH/jvpm289bB46qI/2b5Vkm9kCcPTkw0LuoHz2VbxarwdZZ7Xlsp0zR++56xg+UnH6y3lTV2gNjfCXHR8t35q4xiN1YV1rgeQZJ9PNPEjD82M0WeWbJFzuQWyQMTEmRcvyhZl5Zhuuvm5yX7M7Llg51H5TsTElWh7S1vbamdkIKyCDfn5z7eLsNjwuWXc0bLA298KlU1NXKrKufdA/3kIZ1MCPH3kZ/dNEqOqSJ+Wt3tWypQ4B+ZPlz+f3tnAlXleebxv4IgO4rsyqYIouKCe7XRuCXGbM50Ups0SZdk5kxqO23apj3tTKbNyZnJnPY0TTLJtGkyGpPJptUkZo/GxAWtBoMCIogsKiCy76vO87z4Xa8IyAUuEPw/59z7Le/3vcvvHj383+d5n/fnW/YgTzhGBvhgTmSwmXB471gudmYWQMO2XYXR1pT2EH4rRH+clwc87NbH61p7FbxqM0Twxkvo+C+27kVJTT0eXpUkYe51pkzbWD83Tsr2obqxCT+VsrWJ0Xg79ZSZDIkPHWNC1jvyuVZ/bp0Rg8bWNtz74oemHRXr2qfiS+3uyjxt7utXf4bZ2yrlCQmQAAmQAAmQAAmQwLAnMGAJ0pRkXLwkpPL0QHZWzlVgYydNRHFRMerq2v/IvuoB3iABBwismhKJ396+0HxUFFumHuNqWc+tn47mJhM+XrKWW72rGoVxTNYyjx/bHoVhPbsvpwjq/fw4owCaRMsSjFZ5Z8dRIj7rZZ13m9Splix1HBChrTZH1punni41Hmn1oj4nEwiW0NbymsYWpJ45bzytH8jabV1nrqaJ2maODxRRexINsuZ8X06hGVNC2FhTvjRuggjSHJSL9/ykTBwkS/kN4iHui6kH+oLwU5GqpqHo2r5ak9xTpurV1o/F2PIUm4e6+JoaHoAP0vINA/Uy24fs3xgfYYR1RX2j8fZvO5JjPN1WVV3xuVZ/bL+JjEejI7bI+n5LaFt180gCJEACJEACJEACJEACfSEwIJ5t7eD4CeFYtGg+tsva7TYRFR1temICDh860vE2r0mgVwTUs9oxQdq1KmoWwagh4zdPizIJsVaIYD8qQtfeNHxZTY91IgxHi3f2WiHsaYVlyBQP9Mb7V6GyvsmEPb8kYd0qSIO8PVElHlvLLgePt99RcWuZCk5v9/aM/uN8PHBGQse1z5ZpCHmQeLPVAqU853x7SLle6/kMSYjWF1NR+sLeNDyxbrGpRiclXjt04op2elO/ev7fOJxle9U+hD5YxqNRAbdMjzblGtpvX94VH1tlXZy8c/QUHl6ZhNcfXGNC8A/K5Mdr0gedZKGRAAmQAAmQAAmQAAmQQH8QGBCxraHjy5ffgLe2v4uKisqr+h0QMFbWcfsgL6/gqjLeIIGBJPCnz47hxytnY6mEiesaYxVlfTUVcH/+/Biel49uJbU2MQYPLpmO3330hYRGi+D29XC4iRp5T8PDNR2ZJQ8DJFRb61PT8nESPq8TAmoaIq0Z2vtqHx8vgH78PdwxS7bE0jXT90tY/bWsRULbdR18Z6YTBrr+vDPT0PHNycfx6YnLYd2dPefoPZ3oePTtZLjKDgkTJHrh+/J7rJQogI8y+jfzu6P94vMkQAIkQAIkQAIkQALDh4DTw8jDwkJsQru8vKJTctOmJyAjPZNepU7p8OZAEtDkaJo0Tdclq9fW3ova234kybpmFaYqiour63FCPMKWR1q3t5oh4eAawq6m23EtnzLBnHf3VSHCUAXjtEv7UWtyNV0Hbq1f16Rkiye1h42roFwQE3JV4rHu6u+sTCcKbpO1zmqVkpzu6FkJb5cQdvv845p0rjNLk5B8HaeahqOHj7kcnq9ef/Ve65pwNU1iZ9kXMuGxJDbM7GSg9zRB3TIJke+pddUfXbMdIuPR9e25pdWS8E6iBDqJuOmqnaVLl+LRRx+Fq+uAzFd21Q3eJwESIAESIAESIAESGMIEnP6XYmLiNHiKx23dulttGJpbWvDy5tfNtf6xGi9ruZkYzYaHJ04kEDPODz9ZNdu0oAL3mW8tM+cPv/G5WXdcWtuAzd+7yYhhDQ/PKCzHs5I5XEOoe2tnK2qwQbKGf3tBvMkMruL3qV3tSyY0EdgOSS72zPpl0DBxzbj9uCRou5apcP/Dxyl45Oa5qJLQdBXC/yPrvVWAq71yINMkRVs8KQzeo93wedZZHL60fZkmT1uREAEfCUnXvbw1m3mWCN6ndn1p3u3qS7O/Rwu/py/1VUPoN0s4vOVZ1/c0Y/qPZKxfk3bV1KOvCcYO5BbLJEIEnrv7RjPhoOH0lmkys9/GLIQmrMuW9eX2a6cPynuaMfxZ+Z10PbcK9Z7wseruqj9nJFGcJo2zErhp3fZr5a33uzouWLAATU1NaG3tWRb8rurhfRIgARIgARIgARIggeFLYER0dLT938rDdqTfuOsOvPn69gEdX2xcFLJP5A3rNgdjjM4CqqJOs2k/9u5B04Rm1X5ItuRSL/Fn/bBtliblUjFdJ8nSOpp6dT0l6ZmGfztqGoJdJSK7s/XGPiK0m1raHPLaXqv9ESJ4faVeFd+OmnrgayXpm7X23f59PwlNr5Y6O/sPybCTyRErLN7+vb6ca0I8jTJwdDLl+eefxx//+EekpaX1pXm+SwIkQAIkQAIkQAIkMMwIhIWFyXbXhWZUTvdsDzN2HM4wJqBe4TB/L+OV1SzeunXYRAlp3rQ/o19GrYKuK1Gn4eq9EdraMXsvcceO9rbOjvXYX6uo743Q1josz7t9fdZ5d3V2x856vzfH3oh3nWxIT0+n0O4NcL5DAiRAAiRAAiRAAtcRAaev2b6OWHKoX3ECunf007tSMV7WE8+WNda6fZR6uXV9Mo0ELAI62fDkk09alzySAAmQAAmQAAmQAAmQQKcE6NnuFAtvXq8EMorKoB8aCZAACZAACZAACZAACZAACfSFAD3bfaHHd0mABEiABEiABEiABEiABEiABEigEwIU251A4S0SIAESIAESIAESIAESIAESIAES6AsBiu2+0OO7JEACJEACJEACJEACJEACJEACJNAJAYrtTqDwFgmQAAmQAAmQAAmQAAmQAAmQAAn0hcCAJUhzc3Mz/Wxu7nwfYS3vqqwvA+S7w5fA3Khg5JZWI9jX02ybVVBe0+PB6v7Tq6dG4r1juahvbu3xe/394LSwAMQG+5tqc85X4eiZ0v5uwuH6osf5wt3VFRX1jQj390ZKQYnDdfAFEiABEiABEiABEiABErjeCThdbKuIvuWWVRgzdgxGjhyJ0tIy7HjnA7S2tguc+fPnYFJsDFpb5HoEcODAYeTnFVzvvwvH3wMCK6ZEYMfRXKjoVqFtie21iTH4zqIE1DRdntg5V12PR7butdXq7T4KSZFB+CzrTL+JbRWpD359On751322dq51on0sqqrHzAmBZl/voSC2E0ID4O/pjhPFFVgyOZxi+1o/IstJgARIgARIgARIgARIoBMCThfbSXNmoqKyCtu27cCIESNw57q1SEycipSUVPj7+2HqtCnYtPH/0NbWhpDQYKxcuQybKbY7+al4yxECu06cxn9/mtrlK0VVdQ6J4i4rsitwlckkRy2/rAb68Rk9CrFB7R5uR+vg8yRAAiRAAiRAAiRAAiRAAkOPgNPFdvL+v8HFpV2EXLx4EYWFxfDx8TYkXFxc0NDQYIS23qitqYWrq8vQo8QeDUkCVQ1NaGm7gNqmFjRoZEQPLCbQD4+snmOebJZ3N7z6qe2tWRFB+CfxTKu9+UU2PNxcsSxuPD5Iy8dHGfmIGOuDHy2fhVB/L5TXNeKd1FP4MD0fUyUU/Ic3zoSfhzvcR7ngT/csN3XszDyNNw5nmfPefsUFj8FDy2aYUPmjZ0vx1M4vTci8tvWz1Un49fb9tqq/u3gqDuWewzF5Tie27ls4BTdMHm8YvXboBHZJfyy7e3481kyPMmUnS6rw3O5UlMmY1JTlqKaRaJYJsJqGy9EB1rs8kgAJkAAJkAAJkAAJkAAJXJuA08W2dqFNRI1l4eFhSE8/bi7LyspRXlaBG5YuRknJecTGTkTy/kPWozySQLcEnt191JRnFpdf9ZynCOVQPy/b/ZrGZiPK88uq8bOte8z9Td9ZbSvXExWpWnbXnMlYNDEUxRJ6vmn/cZytrDXPPbBkOj4+XoAP0/Lg4+GGO2dOgqtMJGm4tb6nnulvzo3DY+8eNM83t7aZY2+/3GXi6ddr54vAPoL0wjL8g/Trn5cm4okPDkMnGnxl3XmYrKkulP6puF4yKRyvHMg0za2ZFmUE+gObP4GX2yg88XeLZX17lVnjHh8yFktiw/GPm3caJgtlrLpuvOxUsXnXXpQPhbD23vLjeyRAAiRAAiRAAiRAAiQwmAQGRGxbA4yLj4Wnpweys3KsWzh9+iwWLJiDMWP84eXlifLyClsZT0igtwTmRYVgsniFLXtbvNDqiW67cBHVXXhrW2VSSMsaRSSreP3z58es183RzXUk6sSLflGu9LlNyRm2cr1WD3vrhfY6bAV9OJkVEWiE9KG8c6aWLeJtf+X7N0PD1bWdvScLsSAmBH9NOYn4kDE4WVKJpksCf/mUCfj9RynQMakw/ySjwAhsTSg3SiYI6ptb0CaRJmrJOUXmyC8SIAESIAESIAESIAESIIH+IzBgYnv8hHAsWjQf22Xttq7PVouIGI/psn77xRdfNtfe3l64+5678JfnN17hDTeF/CIBBwjslsRn3a3ZvlZV6uXuaC/uTccPJFz8oaUzkFtWhXclOZsKXmdZoI8nTkmGcstUzJfVNmCs12iU1NRjn7StYe0qthfEhJpr69kQXy/86pZ5uCCTC2oa3n7kUlbxNPGSZ4o3fuP9q1BZ32Q8+i8dON7lJIRVJ48kQAIkQAIkQAIkQAIkQAI9JzAgYltDx5cvvwFvbX8XFRWVtt6pALfPPF5bW4fq6moEBQWiqKjdm2d7mCckMIAELjl9r2jxxLkKs8bbY5SrCbt+eGUSdLsuTbbmDNP10gHh42xVq0db12prSLyahrdruLyvhLQnyXpzXZdtWZW8+69v7Rdx3r4O27qvR82doF775+Wj26Zp9vYHJUT+dx99Yf8Yz0mABEiABEiABEiABEiABPpAwPH0yQ42FhYWYhPaHUPEq6tqEBMTZbYE02r9/HwREBCAmhrniBcHu87HScBGQEOv18t6bF1HrQnEjsl+2Cp6NZzbspbWy+fWvb4c1QM9PTzACGqtZ7ZsVVZQUXNFMrjkU0Vm7XipeLwb7PYLTyk4Z5KjWe2vnxeHyAAfc5kUGQxNBqc+b12XrpMIjqwvj4yMxOOPP46oqCireh5JgARIgARIgARIgARIgAQ6EHC6ZzsxcRo8vTywbt2ttqabW1rw8ubXkZGRifDwUDzw4P2olO3B/P19sfvTPaitbU9IZXuBJyTQTwRixvnhJ6tmm9rcRDg/861l5vzhNz5HQuhYfG/JNBOmrWu7dd1ziYjR3+44aLJ2N8re8E/edQNU2LqLd/tAbhHO1zTYepYrydfqm1rxzHqpU/aM3515BltSsm3lnZ3cMXMiViREwMfdzYR6J0hm8ywJ8X5q15emnY37M/CX+1ZC9wnXvcH/470rEwhqGPvT65eaLOX29b/6txN45KY5JtGbm2T9P1NRaz76zFkR7Bsk/PzbC+LNHuPqMX9q1xH717s9T0hIMEI7Pz+/2+dYSAIkQAIkQAIkQAIkQALXM4ER0dHR7Ys6B5GCbgE2evRo1NfXmxBXZ3TlG3fdgTdf3+6MqrusMzYuCtkn8rosd0bBQLc50O05g5mjdWood7UkHRuofzgjJVmbhorr+mpHTTOR6/Zouo1XR1NvvQrxOkmW5oht2LBBEhmW45VXXnHkNT5LAiRAAiRAAiRAAiRAAsOeQFhYmGx33Z7Xyeme7Z7Q1IRpdXUMHe8JKz4z+AQ0u/dA2gVZY90boa197E5IqwjXj6OmeRXef/99R1/j8yRAAiRAAiRAAiRAAiRwXREYEmL7uiLOwZLAV5zApk2bvuIjYPdJgARIgARIgARIgARIwPkEnJ4gzflDYAskQAIkQAIkQAIkQAIkQAIkQAIkMLQIUGwPrd+DvSEBEiABEiABEiABEiABEiABEhgGBCi2h8GPyCGQAAmQAAmQAAmQAAmQAAmQAAkMLQIU20Pr92BvSIAESIAESIAESIAESIAESIAEhgEBiu1h8CNyCCRAAiRAAiRAAiRAAiRAAiRAAkOLwICJbTc3N+inMxs5ciQ8PEZ3VsR7JNAlgblRwRjn7YGpYQGIGOvT5XMDWRAV4ItbpkcPZJO9bmuE7N+tDO+cNdF8dD9vy3xGu+Hvk2Lh6da/Gxb0Nx/t5+JJYXAZOQKrEiKt7vNIAiRAAiRAAiRAAiRAAoNOwOliWwX2nXeuxT3fvgv33rced8i5q+vlP+DnzJ2FBx68z9y/7/5vITg4cNChsANfDQIrpkQg1M8L86NDMDl4jOm0CsjXHliDELlvb5u/dxNCfD3tbznlPNTfC7MigpxSd39XOjsiEDdNjUJRVb35XLRrwNt9FJIig+AlR0fs9hkTsX5eXJev9Dcff093rE2MEbE9stt2u+wQC0iABEiABEiABEiABEjASQQuq14nNZA0ZyYqKquwbdsOqBC6c91aJCZORUpKKkJDQzBjxjS8+MLLaGlpQVhYCFbftAIvbXrVSb1htcOdwMWLF3HkdAlmTwjEe1V1Zrjq9W5qaUVxdb3Th5+cUwT9fBVMJyoKhdGBU1f3t0ju//Kv+xwehqvLZe94Zy9/lfh01n/eIwESIAESIAESIAESIIGeEnC62E7e/ze4uLQ70FUIFRYWw8fH2/QvOCQIeXmnjdDWG1rm7u4OT08P1Nc39HQMfO46JVDV0ISWtguobWpBg4hpy1LySzBPvN3vpeWZW+pp/kLuqbm7uuAHy2ZibnQwzlbUYktKtk0c37MgHn4e7pgXFYLXDp3A8ikT0NjSht+8c8C089jti/B+Wi7uXZgAL7dR+N/96diVedrUe/O0KNwxc6I5Tyssw9O7vjTn+vXNuXFYFjfeXP/+4xR8PTbceL//68PDyC+rxtcnh+Pu+fFwc3HBnpNnsXFfBi7IvxW1RRND8d2vTYX7KFecq67DC3vTcbyo3JT19us+6b/W6z16FFzFIzxPQsnVHnr1UxOO/8jqOea6WdhukHv2FuA9Gj9eMRsTA/2QXVJpxnm+pkHC0CeJlzwSQRI90Ci/xdLJ7eN97rOj+PL0eXTHR+vXEPBvikfcTf6v+OR4AV5KPm4Y6G+noe5hMjGg0QsfZeRj84HjaLvQzqftwgVU1jcBcllWx/8z7H8rnpMACZAACZAACZAACQwuAaeLbR1em/zRbll4eBjS04+bywYR1CFTL4fc+vj6GKHt6qqhq/zD2WLGY+cEnt191BRkFl8pPlMKSvD9JdNMJIVO8MyScOn3j+WZZ+NDxhpRdu8LHyJ8jBf+/daFOHiq2Ai7sZ6jjaf3D5+k4Bc3zcX9Gz/Eb25biPFjvJFbWo0wCRHX8PQfiABVgfrD5bPwWdYZI/x2iujel1OIhNCxWNNhzfb2L0+K8M/Fb6QtXc99uqIGz32WihLxtEcG+GC9iPFfbN2H6sYm/HRVkoRFR+Pt1FNmHfK/iLD9+ZY9yBNRrs/OiQzus9h+43AWtkmfVOAG+Xjg5YOZhk2r/DtV8f+zrXvM9abvrDZH+y/t387jp/FvbyVjqUwgfCNpMp7dnYr3juViZ2YBNIzcVQTzVpnEUKtvbp8E6Y5PbJC/WR/+2I4DqGlswY+WzzTCXSdLPGWSQVn/avt+8xv9as08M3Fy7Gypqb+wsg7/+cEhc/7TN9v7bS74RQIkQAIkQAIkQAIkQAKDTMDpa7btxxcXLwmXxGudnZVjbp86lQd3WdN92+1rMHfubCz+2gI0NzejpqbG/jWek4BDBMrqGlEuHxVx6rmdIgL76Jl2cZZ65jw27s9Ac1ubEdDnaurNc1YDeSKqVQzrffVqnxHvd6D35bXee7LPQkXpfgkVzz5XiZhxfubV5tY2VDc0Gy+7VZd11Hq0rFW8sCqat3yRjbSzZcYbf2N8hBHWFfWNRrRvO5JjPN36riYsuyAe3EapWy2/rEZE7Elz3pcvjQLQ/qgHuqn1gjnXazX1GOu5dW3fjq6PDvb1Mp5n9byrV/85EdpqTZfGr3Xqx6pDWal1x2dp3AQzaaETGqW1DdhxNFeE/ATznn5lCedzMjGhHvS92YVmLbmtkCckQAIkQAIkQAIkQAIkMEQJDIhnW8c+fkI4Fi2aj+2ydrtNhI6artN+9dWtSEiIQ2trK7Kzc+AhYly9kTQS6AsBDRtPHD/OeIdV4Fph5h7iKb1tZgwSw8eZkHFdt6yeWHsTTWwzFZ92Sbpt4cv6QEF5NeLFk63h1D01yyNrPR/s44klElZuZTAfKVm1rRBpDZF/YW8anli32Dyeda7ChLfnnK+yXh/QY5D0tVpC9+2tP/6lqnd914n2yRCt+1RpFQLlnmVWSL1el8ukRIhEGNBIgARIgARIgARIgARIYKgTGBEdHd0ffy8P9XGyfyRAAiRAAiRAAiRAAiRAAiRAAiQwYASudOkNWLNsiARIgARIgARIgARIgARIgARIgASGLwGK7eH723JkJEACJEACJEACJEACJEACJEACg0SAYnuQwLNZEiABEiABEiABEiABEiABEiCB4UuAYnv4/rYcGQmQAAmQAAmQAAmQAAmQAAmQwCARoNgeJPBslgRIgARIgARIgARIgARIgARIYPgSoNgevr8tR0YCJEACJEACJEACJEACJEACJDBIBP4fOvOepgZYas4AAAAASUVORK5CYII=;" parent="WIyWlLk6GJQsqaUBKTNV-1" vertex="1">
          <mxGeometry x="620" y="610" width="728.55" height="396.5" as="geometry" />
        </mxCell>
        <mxCell id="K_4VdIDOAv-RHWIk8iGX-20" value="" style="edgeStyle=orthogonalEdgeStyle;rounded=0;orthogonalLoop=1;jettySize=auto;html=1;fillColor=#f8cecc;strokeColor=#b85450;" parent="WIyWlLk6GJQsqaUBKTNV-1" source="K_4VdIDOAv-RHWIk8iGX-17" target="K_4VdIDOAv-RHWIk8iGX-19" edge="1">
          <mxGeometry relative="1" as="geometry" />
        </mxCell>
        <mxCell id="K_4VdIDOAv-RHWIk8iGX-17" value="do the API calls work" style="rhombus;whiteSpace=wrap;html=1;rounded=1;glass=0;strokeWidth=1;shadow=0;fillColor=#dae8fc;strokeColor=#6c8ebf;" parent="WIyWlLk6GJQsqaUBKTNV-1" vertex="1">
          <mxGeometry x="180" y="800" width="80" height="80" as="geometry" />
        </mxCell>
        <mxCell id="K_4VdIDOAv-RHWIk8iGX-22" value="" style="edgeStyle=orthogonalEdgeStyle;rounded=0;orthogonalLoop=1;jettySize=auto;html=1;fillColor=#f8cecc;strokeColor=#b85450;" parent="WIyWlLk6GJQsqaUBKTNV-1" source="K_4VdIDOAv-RHWIk8iGX-19" target="K_4VdIDOAv-RHWIk8iGX-21" edge="1">
          <mxGeometry relative="1" as="geometry" />
        </mxCell>
        <mxCell id="K_4VdIDOAv-RHWIk8iGX-24" value="" style="edgeStyle=orthogonalEdgeStyle;rounded=0;orthogonalLoop=1;jettySize=auto;html=1;fillColor=#f8cecc;strokeColor=#b85450;" parent="WIyWlLk6GJQsqaUBKTNV-1" source="K_4VdIDOAv-RHWIk8iGX-19" target="K_4VdIDOAv-RHWIk8iGX-23" edge="1">
          <mxGeometry relative="1" as="geometry" />
        </mxCell>
        <mxCell id="K_4VdIDOAv-RHWIk8iGX-19" value="so maybe do a dropdown so you can specify which book they are looking for&amp;nbsp;" style="rounded=1;whiteSpace=wrap;html=1;glass=0;strokeWidth=1;shadow=0;fillColor=#f8cecc;strokeColor=#b85450;" parent="WIyWlLk6GJQsqaUBKTNV-1" vertex="1">
          <mxGeometry x="160" y="970" width="120" height="60" as="geometry" />
        </mxCell>
        <mxCell id="K_4VdIDOAv-RHWIk8iGX-21" value="research on that or just maybe go for the first object found&amp;nbsp;" style="whiteSpace=wrap;html=1;rounded=1;glass=0;strokeWidth=1;shadow=0;fillColor=#e1d5e7;strokeColor=#9673a6;" parent="WIyWlLk6GJQsqaUBKTNV-1" vertex="1">
          <mxGeometry x="360" y="970" width="120" height="60" as="geometry" />
        </mxCell>
        <mxCell id="K_4VdIDOAv-RHWIk8iGX-26" value="" style="edgeStyle=orthogonalEdgeStyle;rounded=0;orthogonalLoop=1;jettySize=auto;html=1;fillColor=#f8cecc;strokeColor=#b85450;" parent="WIyWlLk6GJQsqaUBKTNV-1" source="K_4VdIDOAv-RHWIk8iGX-23" target="K_4VdIDOAv-RHWIk8iGX-25" edge="1">
          <mxGeometry relative="1" as="geometry" />
        </mxCell>
        <mxCell id="K_4VdIDOAv-RHWIk8iGX-44" value="" style="edgeStyle=orthogonalEdgeStyle;rounded=0;orthogonalLoop=1;jettySize=auto;html=1;fillColor=#f8cecc;strokeColor=#b85450;" parent="WIyWlLk6GJQsqaUBKTNV-1" source="K_4VdIDOAv-RHWIk8iGX-23" target="K_4VdIDOAv-RHWIk8iGX-43" edge="1">
          <mxGeometry relative="1" as="geometry" />
        </mxCell>
        <mxCell id="K_4VdIDOAv-RHWIk8iGX-23" value="take the three books in and take the subjects of each one and put them in an array&amp;nbsp;" style="whiteSpace=wrap;html=1;rounded=1;glass=0;strokeWidth=1;shadow=0;fillColor=#f8cecc;strokeColor=#b85450;" parent="WIyWlLk6GJQsqaUBKTNV-1" vertex="1">
          <mxGeometry x="160" y="1110" width="120" height="60" as="geometry" />
        </mxCell>
        <mxCell id="K_4VdIDOAv-RHWIk8iGX-28" value="" style="edgeStyle=orthogonalEdgeStyle;rounded=0;orthogonalLoop=1;jettySize=auto;html=1;fillColor=#f8cecc;strokeColor=#b85450;" parent="WIyWlLk6GJQsqaUBKTNV-1" source="K_4VdIDOAv-RHWIk8iGX-25" target="K_4VdIDOAv-RHWIk8iGX-27" edge="1">
          <mxGeometry relative="1" as="geometry" />
        </mxCell>
        <mxCell id="K_4VdIDOAv-RHWIk8iGX-25" value="compare the three arrays take the common subjects between them all&amp;nbsp;" style="whiteSpace=wrap;html=1;rounded=1;glass=0;strokeWidth=1;shadow=0;fillColor=#e1d5e7;strokeColor=#9673a6;" parent="WIyWlLk6GJQsqaUBKTNV-1" vertex="1">
          <mxGeometry x="360" y="1110" width="120" height="60" as="geometry" />
        </mxCell>
        <mxCell id="K_4VdIDOAv-RHWIk8iGX-30" value="" style="edgeStyle=orthogonalEdgeStyle;rounded=0;orthogonalLoop=1;jettySize=auto;html=1;fillColor=#f8cecc;strokeColor=#b85450;" parent="WIyWlLk6GJQsqaUBKTNV-1" source="K_4VdIDOAv-RHWIk8iGX-27" target="K_4VdIDOAv-RHWIk8iGX-29" edge="1">
          <mxGeometry relative="1" as="geometry" />
        </mxCell>
        <mxCell id="K_4VdIDOAv-RHWIk8iGX-46" value="" style="edgeStyle=orthogonalEdgeStyle;rounded=0;orthogonalLoop=1;jettySize=auto;html=1;fillColor=#f8cecc;strokeColor=#b85450;" parent="WIyWlLk6GJQsqaUBKTNV-1" source="K_4VdIDOAv-RHWIk8iGX-27" target="K_4VdIDOAv-RHWIk8iGX-45" edge="1">
          <mxGeometry relative="1" as="geometry" />
        </mxCell>
        <mxCell id="K_4VdIDOAv-RHWIk8iGX-27" value="search through the API for books that most match those subjects&amp;nbsp;" style="whiteSpace=wrap;html=1;rounded=1;glass=0;strokeWidth=1;shadow=0;fillColor=#e1d5e7;strokeColor=#9673a6;" parent="WIyWlLk6GJQsqaUBKTNV-1" vertex="1">
          <mxGeometry x="560" y="1110" width="120" height="60" as="geometry" />
        </mxCell>
        <mxCell id="K_4VdIDOAv-RHWIk8iGX-32" value="" style="edgeStyle=orthogonalEdgeStyle;rounded=0;orthogonalLoop=1;jettySize=auto;html=1;fillColor=#f8cecc;strokeColor=#b85450;" parent="WIyWlLk6GJQsqaUBKTNV-1" source="K_4VdIDOAv-RHWIk8iGX-29" target="K_4VdIDOAv-RHWIk8iGX-31" edge="1">
          <mxGeometry relative="1" as="geometry" />
        </mxCell>
        <mxCell id="K_4VdIDOAv-RHWIk8iGX-29" value="display the books that match&amp;nbsp;" style="rounded=1;whiteSpace=wrap;html=1;glass=0;strokeWidth=1;shadow=0;fillColor=#dae8fc;strokeColor=#6c8ebf;" parent="WIyWlLk6GJQsqaUBKTNV-1" vertex="1">
          <mxGeometry x="560" y="1250" width="120" height="60" as="geometry" />
        </mxCell>
        <mxCell id="K_4VdIDOAv-RHWIk8iGX-31" value="set up the display portion&amp;nbsp;" style="whiteSpace=wrap;html=1;rounded=1;glass=0;strokeWidth=1;shadow=0;fillColor=#dae8fc;strokeColor=#6c8ebf;" parent="WIyWlLk6GJQsqaUBKTNV-1" vertex="1">
          <mxGeometry x="560" y="1390" width="120" height="60" as="geometry" />
        </mxCell>
        <mxCell id="HcyKKQeniy8pddfudtdW-4" value="" style="edgeStyle=orthogonalEdgeStyle;rounded=0;orthogonalLoop=1;jettySize=auto;html=1;" parent="WIyWlLk6GJQsqaUBKTNV-1" source="K_4VdIDOAv-RHWIk8iGX-43" target="HcyKKQeniy8pddfudtdW-3" edge="1">
          <mxGeometry relative="1" as="geometry" />
        </mxCell>
        <mxCell id="HcyKKQeniy8pddfudtdW-14" value="" style="edgeStyle=orthogonalEdgeStyle;rounded=0;orthogonalLoop=1;jettySize=auto;html=1;" parent="WIyWlLk6GJQsqaUBKTNV-1" source="K_4VdIDOAv-RHWIk8iGX-43" target="HcyKKQeniy8pddfudtdW-13" edge="1">
          <mxGeometry relative="1" as="geometry" />
        </mxCell>
        <mxCell id="K_4VdIDOAv-RHWIk8iGX-43" value="might have to use a separate api to display the rating" style="whiteSpace=wrap;html=1;rounded=1;glass=0;strokeWidth=1;shadow=0;fillColor=#f8cecc;strokeColor=#b85450;" parent="WIyWlLk6GJQsqaUBKTNV-1" vertex="1">
          <mxGeometry x="160" y="1250" width="120" height="60" as="geometry" />
        </mxCell>
        <mxCell id="K_4VdIDOAv-RHWIk8iGX-48" value="" style="edgeStyle=orthogonalEdgeStyle;rounded=0;orthogonalLoop=1;jettySize=auto;html=1;fillColor=#f8cecc;strokeColor=#b85450;" parent="WIyWlLk6GJQsqaUBKTNV-1" source="K_4VdIDOAv-RHWIk8iGX-45" target="K_4VdIDOAv-RHWIk8iGX-47" edge="1">
          <mxGeometry relative="1" as="geometry" />
        </mxCell>
        <mxCell id="K_4VdIDOAv-RHWIk8iGX-45" value="&lt;span style=&quot;white-space-collapse: preserve; color: rgb(255, 255, 255); font-family: Inter, OpenSans, Helvetica, Arial, sans-serif; text-align: left; background-color: rgb(33, 33, 33);&quot;&gt;https://openlibrary.org/search.json?q={place common subjects here}&amp;amp;fields=title,author_name,subject&lt;/span&gt;" style="rounded=1;whiteSpace=wrap;html=1;glass=0;strokeWidth=1;shadow=0;fillColor=#e1d5e7;strokeColor=#9673a6;" parent="WIyWlLk6GJQsqaUBKTNV-1" vertex="1">
          <mxGeometry x="760" y="1110" width="120" height="60" as="geometry" />
        </mxCell>
        <mxCell id="K_4VdIDOAv-RHWIk8iGX-50" value="" style="edgeStyle=orthogonalEdgeStyle;rounded=0;orthogonalLoop=1;jettySize=auto;html=1;fillColor=#f8cecc;strokeColor=#b85450;" parent="WIyWlLk6GJQsqaUBKTNV-1" source="K_4VdIDOAv-RHWIk8iGX-47" target="K_4VdIDOAv-RHWIk8iGX-49" edge="1">
          <mxGeometry relative="1" as="geometry" />
        </mxCell>
        <mxCell id="K_4VdIDOAv-RHWIk8iGX-47" value="you have to filter out the books they sent in because obviously those appear too&amp;nbsp;" style="rounded=1;whiteSpace=wrap;html=1;glass=0;strokeWidth=1;shadow=0;fillColor=#dae8fc;strokeColor=#6c8ebf;" parent="WIyWlLk6GJQsqaUBKTNV-1" vertex="1">
          <mxGeometry x="760" y="1250" width="120" height="60" as="geometry" />
        </mxCell>
        <mxCell id="K_4VdIDOAv-RHWIk8iGX-49" value="maybe limit the number of recommendations {9}?" style="whiteSpace=wrap;html=1;rounded=1;glass=0;strokeWidth=1;shadow=0;fillColor=#dae8fc;strokeColor=#6c8ebf;" parent="WIyWlLk6GJQsqaUBKTNV-1" vertex="1">
          <mxGeometry x="760" y="1390" width="120" height="60" as="geometry" />
        </mxCell>
        <mxCell id="K_4VdIDOAv-RHWIk8iGX-52" value="Altera - Book Recommendation Website&amp;nbsp;" style="text;html=1;align=center;verticalAlign=middle;resizable=0;points=[];autosize=1;strokeColor=#8F413E;fillColor=#f8cecc;fontSize=42;fontStyle=1;rounded=1;shadow=1;gradientColor=#fafafa;" parent="WIyWlLk6GJQsqaUBKTNV-1" vertex="1">
          <mxGeometry x="160" y="170" width="780" height="60" as="geometry" />
        </mxCell>
        <mxCell id="HcyKKQeniy8pddfudtdW-6" value="" style="edgeStyle=orthogonalEdgeStyle;rounded=0;orthogonalLoop=1;jettySize=auto;html=1;fillColor=#f8cecc;strokeColor=#b85450;" parent="WIyWlLk6GJQsqaUBKTNV-1" source="HcyKKQeniy8pddfudtdW-3" target="HcyKKQeniy8pddfudtdW-5" edge="1">
          <mxGeometry relative="1" as="geometry" />
        </mxCell>
        <mxCell id="HcyKKQeniy8pddfudtdW-8" value="" style="edgeStyle=orthogonalEdgeStyle;rounded=0;orthogonalLoop=1;jettySize=auto;html=1;" parent="WIyWlLk6GJQsqaUBKTNV-1" source="HcyKKQeniy8pddfudtdW-3" target="HcyKKQeniy8pddfudtdW-7" edge="1">
          <mxGeometry relative="1" as="geometry" />
        </mxCell>
        <mxCell id="HcyKKQeniy8pddfudtdW-3" value="UI DESIGN THE PAGES&amp;nbsp;" style="whiteSpace=wrap;html=1;rounded=1;glass=0;strokeWidth=1;shadow=0;fillColor=#f8cecc;strokeColor=#b85450;" parent="WIyWlLk6GJQsqaUBKTNV-1" vertex="1">
          <mxGeometry x="160" y="1390" width="120" height="60" as="geometry" />
        </mxCell>
        <mxCell id="HcyKKQeniy8pddfudtdW-26" value="" style="edgeStyle=orthogonalEdgeStyle;rounded=0;orthogonalLoop=1;jettySize=auto;html=1;" parent="WIyWlLk6GJQsqaUBKTNV-1" source="HcyKKQeniy8pddfudtdW-5" target="HcyKKQeniy8pddfudtdW-25" edge="1">
          <mxGeometry relative="1" as="geometry" />
        </mxCell>
        <mxCell id="HcyKKQeniy8pddfudtdW-5" value="Bug fixes/ figuring out details&amp;nbsp;" style="whiteSpace=wrap;html=1;rounded=1;glass=0;strokeWidth=1;shadow=0;fillColor=#f8cecc;strokeColor=#b85450;" parent="WIyWlLk6GJQsqaUBKTNV-1" vertex="1">
          <mxGeometry x="160" y="1610" width="120" height="60" as="geometry" />
        </mxCell>
        <mxCell id="HcyKKQeniy8pddfudtdW-10" value="" style="edgeStyle=orthogonalEdgeStyle;rounded=0;orthogonalLoop=1;jettySize=auto;html=1;" parent="WIyWlLk6GJQsqaUBKTNV-1" source="HcyKKQeniy8pddfudtdW-7" target="HcyKKQeniy8pddfudtdW-9" edge="1">
          <mxGeometry relative="1" as="geometry" />
        </mxCell>
        <mxCell id="HcyKKQeniy8pddfudtdW-7" value="Home - where input is taken" style="whiteSpace=wrap;html=1;fillColor=#d5e8d4;strokeColor=#82b366;rounded=1;glass=0;strokeWidth=1;shadow=0;" parent="WIyWlLk6GJQsqaUBKTNV-1" vertex="1">
          <mxGeometry x="414" y="1390" width="120" height="60" as="geometry" />
        </mxCell>
        <mxCell id="HcyKKQeniy8pddfudtdW-12" value="" style="edgeStyle=orthogonalEdgeStyle;rounded=0;orthogonalLoop=1;jettySize=auto;html=1;" parent="WIyWlLk6GJQsqaUBKTNV-1" source="HcyKKQeniy8pddfudtdW-9" target="HcyKKQeniy8pddfudtdW-11" edge="1">
          <mxGeometry relative="1" as="geometry" />
        </mxCell>
        <mxCell id="HcyKKQeniy8pddfudtdW-9" value="Recommendations&amp;nbsp;&lt;br&gt;10 results slide through" style="rounded=1;whiteSpace=wrap;html=1;fillColor=#d5e8d4;strokeColor=#82b366;glass=0;strokeWidth=1;shadow=0;" parent="WIyWlLk6GJQsqaUBKTNV-1" vertex="1">
          <mxGeometry x="520" y="1530" width="120" height="60" as="geometry" />
        </mxCell>
        <mxCell id="HcyKKQeniy8pddfudtdW-11" value="Details of the book" style="rounded=1;whiteSpace=wrap;html=1;fillColor=#d5e8d4;strokeColor=#82b366;glass=0;strokeWidth=1;shadow=0;" parent="WIyWlLk6GJQsqaUBKTNV-1" vertex="1">
          <mxGeometry x="690" y="1610" width="120" height="60" as="geometry" />
        </mxCell>
        <mxCell id="HcyKKQeniy8pddfudtdW-13" value="might have to use a separate api to display places to buy it&amp;nbsp;" style="whiteSpace=wrap;html=1;rounded=1;glass=0;strokeWidth=1;shadow=0;fillColor=#dae8fc;strokeColor=#6c8ebf;" parent="WIyWlLk6GJQsqaUBKTNV-1" vertex="1">
          <mxGeometry x="360" y="1250" width="120" height="60" as="geometry" />
        </mxCell>
        <mxCell id="HcyKKQeniy8pddfudtdW-18" value="" style="edgeStyle=orthogonalEdgeStyle;rounded=0;orthogonalLoop=1;jettySize=auto;html=1;" parent="WIyWlLk6GJQsqaUBKTNV-1" source="HcyKKQeniy8pddfudtdW-15" target="HcyKKQeniy8pddfudtdW-17" edge="1">
          <mxGeometry relative="1" as="geometry" />
        </mxCell>
        <mxCell id="HcyKKQeniy8pddfudtdW-15" value="1 day&amp;nbsp;" style="rhombus;whiteSpace=wrap;html=1;" parent="WIyWlLk6GJQsqaUBKTNV-1" vertex="1">
          <mxGeometry x="30" y="340" width="80" height="80" as="geometry" />
        </mxCell>
        <mxCell id="HcyKKQeniy8pddfudtdW-16" value="Timeline&amp;nbsp;" style="rounded=0;whiteSpace=wrap;html=1;fillColor=#f5f5f5;fontColor=#333333;strokeColor=#666666;" parent="WIyWlLk6GJQsqaUBKTNV-1" vertex="1">
          <mxGeometry x="30" y="240" width="70" height="60" as="geometry" />
        </mxCell>
        <mxCell id="HcyKKQeniy8pddfudtdW-20" value="" style="edgeStyle=orthogonalEdgeStyle;rounded=0;orthogonalLoop=1;jettySize=auto;html=1;" parent="WIyWlLk6GJQsqaUBKTNV-1" source="HcyKKQeniy8pddfudtdW-17" target="HcyKKQeniy8pddfudtdW-19" edge="1">
          <mxGeometry relative="1" as="geometry" />
        </mxCell>
        <mxCell id="HcyKKQeniy8pddfudtdW-17" value="3 days&amp;nbsp;" style="rhombus;whiteSpace=wrap;html=1;" parent="WIyWlLk6GJQsqaUBKTNV-1" vertex="1">
          <mxGeometry x="30" y="780" width="80" height="80" as="geometry" />
        </mxCell>
        <mxCell id="HcyKKQeniy8pddfudtdW-22" value="" style="edgeStyle=orthogonalEdgeStyle;rounded=0;orthogonalLoop=1;jettySize=auto;html=1;" parent="WIyWlLk6GJQsqaUBKTNV-1" source="HcyKKQeniy8pddfudtdW-19" target="HcyKKQeniy8pddfudtdW-21" edge="1">
          <mxGeometry relative="1" as="geometry" />
        </mxCell>
        <mxCell id="HcyKKQeniy8pddfudtdW-19" value="5 days" style="rhombus;whiteSpace=wrap;html=1;" parent="WIyWlLk6GJQsqaUBKTNV-1" vertex="1">
          <mxGeometry x="30" y="1220" width="80" height="80" as="geometry" />
        </mxCell>
        <mxCell id="HcyKKQeniy8pddfudtdW-24" value="" style="edgeStyle=orthogonalEdgeStyle;rounded=0;orthogonalLoop=1;jettySize=auto;html=1;" parent="WIyWlLk6GJQsqaUBKTNV-1" source="HcyKKQeniy8pddfudtdW-21" target="HcyKKQeniy8pddfudtdW-23" edge="1">
          <mxGeometry relative="1" as="geometry" />
        </mxCell>
        <mxCell id="HcyKKQeniy8pddfudtdW-21" value="7 days" style="rhombus;whiteSpace=wrap;html=1;" parent="WIyWlLk6GJQsqaUBKTNV-1" vertex="1">
          <mxGeometry x="30" y="1370" width="80" height="80" as="geometry" />
        </mxCell>
        <mxCell id="HcyKKQeniy8pddfudtdW-28" value="" style="edgeStyle=orthogonalEdgeStyle;rounded=0;orthogonalLoop=1;jettySize=auto;html=1;" parent="WIyWlLk6GJQsqaUBKTNV-1" source="HcyKKQeniy8pddfudtdW-23" target="HcyKKQeniy8pddfudtdW-27" edge="1">
          <mxGeometry relative="1" as="geometry" />
        </mxCell>
        <mxCell id="HcyKKQeniy8pddfudtdW-23" value="8 days" style="rhombus;whiteSpace=wrap;html=1;" parent="WIyWlLk6GJQsqaUBKTNV-1" vertex="1">
          <mxGeometry x="30" y="1600" width="80" height="80" as="geometry" />
        </mxCell>
        <mxCell id="HcyKKQeniy8pddfudtdW-25" value="DEPLOY USING HEROKU or another option" style="whiteSpace=wrap;html=1;rounded=1;glass=0;strokeWidth=1;shadow=0;fillColor=#f8cecc;strokeColor=#b85450;" parent="WIyWlLk6GJQsqaUBKTNV-1" vertex="1">
          <mxGeometry x="160" y="1790" width="120" height="60" as="geometry" />
        </mxCell>
        <mxCell id="HcyKKQeniy8pddfudtdW-27" value="12 days" style="rhombus;whiteSpace=wrap;html=1;" parent="WIyWlLk6GJQsqaUBKTNV-1" vertex="1">
          <mxGeometry x="30" y="1780" width="80" height="80" as="geometry" />
        </mxCell>
      </root>
    </mxGraphModel>
  </diagram>
</mxfile>
